G04 #@! TF.GenerationSoftware,KiCad,Pcbnew,(5.0.1)-4*
G04 #@! TF.CreationDate,2018-12-27T15:39:12-05:00*
G04 #@! TF.ProjectId,XHP70_LED_driver,58485037305F4C45445F647269766572,rev?*
G04 #@! TF.SameCoordinates,Original*
G04 #@! TF.FileFunction,Legend,Bot*
G04 #@! TF.FilePolarity,Positive*
%FSLAX46Y46*%
G04 Gerber Fmt 4.6, Leading zero omitted, Abs format (unit mm)*
G04 Created by KiCad (PCBNEW (5.0.1)-4) date 12/27/2018 3:39:12 PM*
%MOMM*%
%LPD*%
G01*
G04 APERTURE LIST*
%ADD10C,0.120000*%
%ADD11C,0.100000*%
G04 APERTURE END LIST*
D10*
G04 #@! TO.C,L1*
X102550000Y-60450000D02*
X102550000Y-58750000D01*
X95950000Y-60450000D02*
X102550000Y-60450000D01*
X95950000Y-58750000D02*
X95950000Y-60450000D01*
X95950000Y-54050000D02*
X95950000Y-55750000D01*
X102550000Y-54050000D02*
X95950000Y-54050000D01*
X102550000Y-55750000D02*
X102550000Y-54050000D01*
G04 #@! TO.C,C4*
X97050000Y-61670000D02*
X96550000Y-61670000D01*
X96550000Y-60730000D02*
X97050000Y-60730000D01*
G04 #@! TO.C,C1*
X100500000Y-63820000D02*
X98500000Y-63820000D01*
X98500000Y-61780000D02*
X100500000Y-61780000D01*
G04 #@! TO.C,D1*
X105282843Y-65331371D02*
X108040559Y-62573655D01*
X103868629Y-63917157D02*
X106626345Y-61159441D01*
X105282843Y-65331371D02*
X103868629Y-63917157D01*
G04 #@! TO.C,C11*
X104070000Y-55750000D02*
X104070000Y-56250000D01*
X103130000Y-56250000D02*
X103130000Y-55750000D01*
G04 #@! TO.C,L1*
D11*
X96483333Y-54826190D02*
X96721428Y-54826190D01*
X96721428Y-54326190D01*
X96054761Y-54826190D02*
X96340476Y-54826190D01*
X96197619Y-54826190D02*
X96197619Y-54326190D01*
X96245238Y-54397619D01*
X96292857Y-54445238D01*
X96340476Y-54469047D01*
G04 #@! TO.C,C4*
X96883333Y-62178571D02*
X96907142Y-62202380D01*
X96978571Y-62226190D01*
X97026190Y-62226190D01*
X97097619Y-62202380D01*
X97145238Y-62154761D01*
X97169047Y-62107142D01*
X97192857Y-62011904D01*
X97192857Y-61940476D01*
X97169047Y-61845238D01*
X97145238Y-61797619D01*
X97097619Y-61750000D01*
X97026190Y-61726190D01*
X96978571Y-61726190D01*
X96907142Y-61750000D01*
X96883333Y-61773809D01*
X96454761Y-61892857D02*
X96454761Y-62226190D01*
X96573809Y-61702380D02*
X96692857Y-62059523D01*
X96383333Y-62059523D01*
G04 #@! TO.C,C6*
X101283333Y-52778571D02*
X101307142Y-52802380D01*
X101378571Y-52826190D01*
X101426190Y-52826190D01*
X101497619Y-52802380D01*
X101545238Y-52754761D01*
X101569047Y-52707142D01*
X101592857Y-52611904D01*
X101592857Y-52540476D01*
X101569047Y-52445238D01*
X101545238Y-52397619D01*
X101497619Y-52350000D01*
X101426190Y-52326190D01*
X101378571Y-52326190D01*
X101307142Y-52350000D01*
X101283333Y-52373809D01*
X100854761Y-52326190D02*
X100950000Y-52326190D01*
X100997619Y-52350000D01*
X101021428Y-52373809D01*
X101069047Y-52445238D01*
X101092857Y-52540476D01*
X101092857Y-52730952D01*
X101069047Y-52778571D01*
X101045238Y-52802380D01*
X100997619Y-52826190D01*
X100902380Y-52826190D01*
X100854761Y-52802380D01*
X100830952Y-52778571D01*
X100807142Y-52730952D01*
X100807142Y-52611904D01*
X100830952Y-52564285D01*
X100854761Y-52540476D01*
X100902380Y-52516666D01*
X100997619Y-52516666D01*
X101045238Y-52540476D01*
X101069047Y-52564285D01*
X101092857Y-52611904D01*
G04 #@! TO.C,C7*
X100483333Y-53378571D02*
X100507142Y-53402380D01*
X100578571Y-53426190D01*
X100626190Y-53426190D01*
X100697619Y-53402380D01*
X100745238Y-53354761D01*
X100769047Y-53307142D01*
X100792857Y-53211904D01*
X100792857Y-53140476D01*
X100769047Y-53045238D01*
X100745238Y-52997619D01*
X100697619Y-52950000D01*
X100626190Y-52926190D01*
X100578571Y-52926190D01*
X100507142Y-52950000D01*
X100483333Y-52973809D01*
X100316666Y-52926190D02*
X99983333Y-52926190D01*
X100197619Y-53426190D01*
G04 #@! TO.C,C1*
X99583333Y-63028571D02*
X99607142Y-63052380D01*
X99678571Y-63076190D01*
X99726190Y-63076190D01*
X99797619Y-63052380D01*
X99845238Y-63004761D01*
X99869047Y-62957142D01*
X99892857Y-62861904D01*
X99892857Y-62790476D01*
X99869047Y-62695238D01*
X99845238Y-62647619D01*
X99797619Y-62600000D01*
X99726190Y-62576190D01*
X99678571Y-62576190D01*
X99607142Y-62600000D01*
X99583333Y-62623809D01*
X99107142Y-63076190D02*
X99392857Y-63076190D01*
X99250000Y-63076190D02*
X99250000Y-62576190D01*
X99297619Y-62647619D01*
X99345238Y-62695238D01*
X99392857Y-62719047D01*
G04 #@! TO.C,D1*
X106620896Y-62898984D02*
X106267343Y-62545431D01*
X106183164Y-62629610D01*
X106149492Y-62696954D01*
X106149492Y-62764297D01*
X106166328Y-62814805D01*
X106216835Y-62898984D01*
X106267343Y-62949492D01*
X106351522Y-63000000D01*
X106402030Y-63016835D01*
X106469374Y-63016835D01*
X106536717Y-62983164D01*
X106620896Y-62898984D01*
X106082148Y-63437732D02*
X106284179Y-63235702D01*
X106183164Y-63336717D02*
X105829610Y-62983164D01*
X105913790Y-63000000D01*
X105981133Y-63000000D01*
X106031641Y-62983164D01*
G04 #@! TO.C,R3*
X99726190Y-60266666D02*
X99488095Y-60100000D01*
X99726190Y-59980952D02*
X99226190Y-59980952D01*
X99226190Y-60171428D01*
X99250000Y-60219047D01*
X99273809Y-60242857D01*
X99321428Y-60266666D01*
X99392857Y-60266666D01*
X99440476Y-60242857D01*
X99464285Y-60219047D01*
X99488095Y-60171428D01*
X99488095Y-59980952D01*
X99226190Y-60433333D02*
X99226190Y-60742857D01*
X99416666Y-60576190D01*
X99416666Y-60647619D01*
X99440476Y-60695238D01*
X99464285Y-60719047D01*
X99511904Y-60742857D01*
X99630952Y-60742857D01*
X99678571Y-60719047D01*
X99702380Y-60695238D01*
X99726190Y-60647619D01*
X99726190Y-60504761D01*
X99702380Y-60457142D01*
X99678571Y-60433333D01*
G04 #@! TO.C,R5*
X98483333Y-53626190D02*
X98650000Y-53388095D01*
X98769047Y-53626190D02*
X98769047Y-53126190D01*
X98578571Y-53126190D01*
X98530952Y-53150000D01*
X98507142Y-53173809D01*
X98483333Y-53221428D01*
X98483333Y-53292857D01*
X98507142Y-53340476D01*
X98530952Y-53364285D01*
X98578571Y-53388095D01*
X98769047Y-53388095D01*
X98030952Y-53126190D02*
X98269047Y-53126190D01*
X98292857Y-53364285D01*
X98269047Y-53340476D01*
X98221428Y-53316666D01*
X98102380Y-53316666D01*
X98054761Y-53340476D01*
X98030952Y-53364285D01*
X98007142Y-53411904D01*
X98007142Y-53530952D01*
X98030952Y-53578571D01*
X98054761Y-53602380D01*
X98102380Y-53626190D01*
X98221428Y-53626190D01*
X98269047Y-53602380D01*
X98292857Y-53578571D01*
G04 #@! TO.C,R6*
X103133333Y-52626190D02*
X103300000Y-52388095D01*
X103419047Y-52626190D02*
X103419047Y-52126190D01*
X103228571Y-52126190D01*
X103180952Y-52150000D01*
X103157142Y-52173809D01*
X103133333Y-52221428D01*
X103133333Y-52292857D01*
X103157142Y-52340476D01*
X103180952Y-52364285D01*
X103228571Y-52388095D01*
X103419047Y-52388095D01*
X102704761Y-52126190D02*
X102800000Y-52126190D01*
X102847619Y-52150000D01*
X102871428Y-52173809D01*
X102919047Y-52245238D01*
X102942857Y-52340476D01*
X102942857Y-52530952D01*
X102919047Y-52578571D01*
X102895238Y-52602380D01*
X102847619Y-52626190D01*
X102752380Y-52626190D01*
X102704761Y-52602380D01*
X102680952Y-52578571D01*
X102657142Y-52530952D01*
X102657142Y-52411904D01*
X102680952Y-52364285D01*
X102704761Y-52340476D01*
X102752380Y-52316666D01*
X102847619Y-52316666D01*
X102895238Y-52340476D01*
X102919047Y-52364285D01*
X102942857Y-52411904D01*
G04 #@! TO.C,R7*
X105283333Y-54026190D02*
X105450000Y-53788095D01*
X105569047Y-54026190D02*
X105569047Y-53526190D01*
X105378571Y-53526190D01*
X105330952Y-53550000D01*
X105307142Y-53573809D01*
X105283333Y-53621428D01*
X105283333Y-53692857D01*
X105307142Y-53740476D01*
X105330952Y-53764285D01*
X105378571Y-53788095D01*
X105569047Y-53788095D01*
X105116666Y-53526190D02*
X104783333Y-53526190D01*
X104997619Y-54026190D01*
G04 #@! TO.C,C11*
X104778571Y-55728571D02*
X104802380Y-55704761D01*
X104826190Y-55633333D01*
X104826190Y-55585714D01*
X104802380Y-55514285D01*
X104754761Y-55466666D01*
X104707142Y-55442857D01*
X104611904Y-55419047D01*
X104540476Y-55419047D01*
X104445238Y-55442857D01*
X104397619Y-55466666D01*
X104350000Y-55514285D01*
X104326190Y-55585714D01*
X104326190Y-55633333D01*
X104350000Y-55704761D01*
X104373809Y-55728571D01*
X104826190Y-56204761D02*
X104826190Y-55919047D01*
X104826190Y-56061904D02*
X104326190Y-56061904D01*
X104397619Y-56014285D01*
X104445238Y-55966666D01*
X104469047Y-55919047D01*
X104826190Y-56680952D02*
X104826190Y-56395238D01*
X104826190Y-56538095D02*
X104326190Y-56538095D01*
X104397619Y-56490476D01*
X104445238Y-56442857D01*
X104469047Y-56395238D01*
G04 #@! TO.C,R4*
X101933333Y-61626190D02*
X102100000Y-61388095D01*
X102219047Y-61626190D02*
X102219047Y-61126190D01*
X102028571Y-61126190D01*
X101980952Y-61150000D01*
X101957142Y-61173809D01*
X101933333Y-61221428D01*
X101933333Y-61292857D01*
X101957142Y-61340476D01*
X101980952Y-61364285D01*
X102028571Y-61388095D01*
X102219047Y-61388095D01*
X101504761Y-61292857D02*
X101504761Y-61626190D01*
X101623809Y-61102380D02*
X101742857Y-61459523D01*
X101433333Y-61459523D01*
G04 #@! TD*
M02*
