G04 #@! TF.GenerationSoftware,KiCad,Pcbnew,(5.0.1)-4*
G04 #@! TF.CreationDate,2018-12-27T15:39:12-05:00*
G04 #@! TF.ProjectId,XHP70_LED_driver,58485037305F4C45445F647269766572,rev?*
G04 #@! TF.SameCoordinates,Original*
G04 #@! TF.FileFunction,Legend,Top*
G04 #@! TF.FilePolarity,Positive*
%FSLAX46Y46*%
G04 Gerber Fmt 4.6, Leading zero omitted, Abs format (unit mm)*
G04 Created by KiCad (PCBNEW (5.0.1)-4) date 12/27/2018 3:39:12 PM*
%MOMM*%
%LPD*%
G01*
G04 APERTURE LIST*
%ADD10C,0.300000*%
%ADD11C,0.120000*%
%ADD12C,0.100000*%
G04 APERTURE END LIST*
D10*
X97347018Y-46860870D02*
X96489875Y-46860870D01*
X96918446Y-46860870D02*
X96918446Y-45360870D01*
X96775589Y-45575156D01*
X96632732Y-45718013D01*
X96489875Y-45789441D01*
X97847018Y-45360870D02*
X98847018Y-45360870D01*
X98204161Y-46860870D01*
X99418446Y-46718013D02*
X99489875Y-46789441D01*
X99418446Y-46860870D01*
X99347018Y-46789441D01*
X99418446Y-46718013D01*
X99418446Y-46860870D01*
X100418446Y-45360870D02*
X100561303Y-45360870D01*
X100704161Y-45432299D01*
X100775589Y-45503727D01*
X100847018Y-45646584D01*
X100918446Y-45932299D01*
X100918446Y-46289441D01*
X100847018Y-46575156D01*
X100775589Y-46718013D01*
X100704161Y-46789441D01*
X100561303Y-46860870D01*
X100418446Y-46860870D01*
X100275589Y-46789441D01*
X100204161Y-46718013D01*
X100132732Y-46575156D01*
X100061303Y-46289441D01*
X100061303Y-45932299D01*
X100132732Y-45646584D01*
X100204161Y-45503727D01*
X100275589Y-45432299D01*
X100418446Y-45360870D01*
X101847018Y-45360870D02*
X101989875Y-45360870D01*
X102132732Y-45432299D01*
X102204161Y-45503727D01*
X102275589Y-45646584D01*
X102347018Y-45932299D01*
X102347018Y-46289441D01*
X102275589Y-46575156D01*
X102204161Y-46718013D01*
X102132732Y-46789441D01*
X101989875Y-46860870D01*
X101847018Y-46860870D01*
X101704161Y-46789441D01*
X101632732Y-46718013D01*
X101561303Y-46575156D01*
X101489875Y-46289441D01*
X101489875Y-45932299D01*
X101561303Y-45646584D01*
X101632732Y-45503727D01*
X101704161Y-45432299D01*
X101847018Y-45360870D01*
X103275589Y-45360870D02*
X103418446Y-45360870D01*
X103561303Y-45432299D01*
X103632732Y-45503727D01*
X103704161Y-45646584D01*
X103775589Y-45932299D01*
X103775589Y-46289441D01*
X103704161Y-46575156D01*
X103632732Y-46718013D01*
X103561303Y-46789441D01*
X103418446Y-46860870D01*
X103275589Y-46860870D01*
X103132732Y-46789441D01*
X103061303Y-46718013D01*
X102989875Y-46575156D01*
X102918446Y-46289441D01*
X102918446Y-45932299D01*
X102989875Y-45646584D01*
X103061303Y-45503727D01*
X103132732Y-45432299D01*
X103275589Y-45360870D01*
X105561303Y-46860870D02*
X105561303Y-45860870D01*
X105561303Y-46003727D02*
X105632732Y-45932299D01*
X105775589Y-45860870D01*
X105989875Y-45860870D01*
X106132732Y-45932299D01*
X106204161Y-46075156D01*
X106204161Y-46860870D01*
X106204161Y-46075156D02*
X106275589Y-45932299D01*
X106418446Y-45860870D01*
X106632732Y-45860870D01*
X106775589Y-45932299D01*
X106847018Y-46075156D01*
X106847018Y-46860870D01*
X107561303Y-46860870D02*
X107561303Y-45860870D01*
X107561303Y-46003727D02*
X107632732Y-45932299D01*
X107775589Y-45860870D01*
X107989875Y-45860870D01*
X108132732Y-45932299D01*
X108204161Y-46075156D01*
X108204161Y-46860870D01*
X108204161Y-46075156D02*
X108275589Y-45932299D01*
X108418446Y-45860870D01*
X108632732Y-45860870D01*
X108775589Y-45932299D01*
X108847018Y-46075156D01*
X108847018Y-46860870D01*
X94204161Y-48282299D02*
X111204161Y-48282299D01*
X94204161Y-58282299D02*
X94204161Y-47695878D01*
X111204161Y-58282299D02*
X111204161Y-47695878D01*
X111204161Y-48282299D02*
X110077657Y-48868720D01*
X111204161Y-48282299D02*
X110077657Y-47695878D01*
X94204161Y-48282299D02*
X95330665Y-48868720D01*
X94204161Y-48282299D02*
X95330665Y-47695878D01*
D11*
G04 #@! TO.C,U2*
X100610000Y-62800000D02*
X100610000Y-61000000D01*
X97390000Y-61000000D02*
X97390000Y-63450000D01*
G04 #@! TO.C,R8*
X100520000Y-61800000D02*
X100520000Y-60600000D01*
X102280000Y-60600000D02*
X102280000Y-61800000D01*
G04 #@! TO.C,C3*
X99170000Y-53450000D02*
X99170000Y-52950000D01*
X98230000Y-52950000D02*
X98230000Y-53450000D01*
G04 #@! TO.C,C8*
X109270000Y-59950000D02*
X109270000Y-59450000D01*
X108330000Y-59450000D02*
X108330000Y-59950000D01*
G04 #@! TO.C,D2*
X102000000Y-57450000D02*
X104000000Y-57450000D01*
X104000000Y-57450000D02*
X104000000Y-53550000D01*
X102000000Y-57450000D02*
X102000000Y-53550000D01*
G04 #@! TO.C,C9*
X105280000Y-60750000D02*
X105280000Y-58750000D01*
X102320000Y-58750000D02*
X102320000Y-60750000D01*
G04 #@! TO.C,C10*
X105320000Y-58750000D02*
X105320000Y-60750000D01*
X108280000Y-60750000D02*
X108280000Y-58750000D01*
G04 #@! TO.C,U2*
D12*
X96619047Y-60326190D02*
X96619047Y-60730952D01*
X96642857Y-60778571D01*
X96666666Y-60802380D01*
X96714285Y-60826190D01*
X96809523Y-60826190D01*
X96857142Y-60802380D01*
X96880952Y-60778571D01*
X96904761Y-60730952D01*
X96904761Y-60326190D01*
X97119047Y-60373809D02*
X97142857Y-60350000D01*
X97190476Y-60326190D01*
X97309523Y-60326190D01*
X97357142Y-60350000D01*
X97380952Y-60373809D01*
X97404761Y-60421428D01*
X97404761Y-60469047D01*
X97380952Y-60540476D01*
X97095238Y-60826190D01*
X97404761Y-60826190D01*
G04 #@! TO.C,R8*
X101266666Y-61426190D02*
X101100000Y-61188095D01*
X100980952Y-61426190D02*
X100980952Y-60926190D01*
X101171428Y-60926190D01*
X101219047Y-60950000D01*
X101242857Y-60973809D01*
X101266666Y-61021428D01*
X101266666Y-61092857D01*
X101242857Y-61140476D01*
X101219047Y-61164285D01*
X101171428Y-61188095D01*
X100980952Y-61188095D01*
X101552380Y-61140476D02*
X101504761Y-61116666D01*
X101480952Y-61092857D01*
X101457142Y-61045238D01*
X101457142Y-61021428D01*
X101480952Y-60973809D01*
X101504761Y-60950000D01*
X101552380Y-60926190D01*
X101647619Y-60926190D01*
X101695238Y-60950000D01*
X101719047Y-60973809D01*
X101742857Y-61021428D01*
X101742857Y-61045238D01*
X101719047Y-61092857D01*
X101695238Y-61116666D01*
X101647619Y-61140476D01*
X101552380Y-61140476D01*
X101504761Y-61164285D01*
X101480952Y-61188095D01*
X101457142Y-61235714D01*
X101457142Y-61330952D01*
X101480952Y-61378571D01*
X101504761Y-61402380D01*
X101552380Y-61426190D01*
X101647619Y-61426190D01*
X101695238Y-61402380D01*
X101719047Y-61378571D01*
X101742857Y-61330952D01*
X101742857Y-61235714D01*
X101719047Y-61188095D01*
X101695238Y-61164285D01*
X101647619Y-61140476D01*
G04 #@! TO.C,C3*
X97616666Y-53178571D02*
X97592857Y-53202380D01*
X97521428Y-53226190D01*
X97473809Y-53226190D01*
X97402380Y-53202380D01*
X97354761Y-53154761D01*
X97330952Y-53107142D01*
X97307142Y-53011904D01*
X97307142Y-52940476D01*
X97330952Y-52845238D01*
X97354761Y-52797619D01*
X97402380Y-52750000D01*
X97473809Y-52726190D01*
X97521428Y-52726190D01*
X97592857Y-52750000D01*
X97616666Y-52773809D01*
X97783333Y-52726190D02*
X98092857Y-52726190D01*
X97926190Y-52916666D01*
X97997619Y-52916666D01*
X98045238Y-52940476D01*
X98069047Y-52964285D01*
X98092857Y-53011904D01*
X98092857Y-53130952D01*
X98069047Y-53178571D01*
X98045238Y-53202380D01*
X97997619Y-53226190D01*
X97854761Y-53226190D01*
X97807142Y-53202380D01*
X97783333Y-53178571D01*
G04 #@! TO.C,C8*
X108716666Y-58678571D02*
X108692857Y-58702380D01*
X108621428Y-58726190D01*
X108573809Y-58726190D01*
X108502380Y-58702380D01*
X108454761Y-58654761D01*
X108430952Y-58607142D01*
X108407142Y-58511904D01*
X108407142Y-58440476D01*
X108430952Y-58345238D01*
X108454761Y-58297619D01*
X108502380Y-58250000D01*
X108573809Y-58226190D01*
X108621428Y-58226190D01*
X108692857Y-58250000D01*
X108716666Y-58273809D01*
X109002380Y-58440476D02*
X108954761Y-58416666D01*
X108930952Y-58392857D01*
X108907142Y-58345238D01*
X108907142Y-58321428D01*
X108930952Y-58273809D01*
X108954761Y-58250000D01*
X109002380Y-58226190D01*
X109097619Y-58226190D01*
X109145238Y-58250000D01*
X109169047Y-58273809D01*
X109192857Y-58321428D01*
X109192857Y-58345238D01*
X109169047Y-58392857D01*
X109145238Y-58416666D01*
X109097619Y-58440476D01*
X109002380Y-58440476D01*
X108954761Y-58464285D01*
X108930952Y-58488095D01*
X108907142Y-58535714D01*
X108907142Y-58630952D01*
X108930952Y-58678571D01*
X108954761Y-58702380D01*
X109002380Y-58726190D01*
X109097619Y-58726190D01*
X109145238Y-58702380D01*
X109169047Y-58678571D01*
X109192857Y-58630952D01*
X109192857Y-58535714D01*
X109169047Y-58488095D01*
X109145238Y-58464285D01*
X109097619Y-58440476D01*
G04 #@! TO.C,C2*
X94916666Y-59178571D02*
X94892857Y-59202380D01*
X94821428Y-59226190D01*
X94773809Y-59226190D01*
X94702380Y-59202380D01*
X94654761Y-59154761D01*
X94630952Y-59107142D01*
X94607142Y-59011904D01*
X94607142Y-58940476D01*
X94630952Y-58845238D01*
X94654761Y-58797619D01*
X94702380Y-58750000D01*
X94773809Y-58726190D01*
X94821428Y-58726190D01*
X94892857Y-58750000D01*
X94916666Y-58773809D01*
X95107142Y-58773809D02*
X95130952Y-58750000D01*
X95178571Y-58726190D01*
X95297619Y-58726190D01*
X95345238Y-58750000D01*
X95369047Y-58773809D01*
X95392857Y-58821428D01*
X95392857Y-58869047D01*
X95369047Y-58940476D01*
X95083333Y-59226190D01*
X95392857Y-59226190D01*
G04 #@! TO.C,C5*
X96578571Y-62283333D02*
X96602380Y-62307142D01*
X96626190Y-62378571D01*
X96626190Y-62426190D01*
X96602380Y-62497619D01*
X96554761Y-62545238D01*
X96507142Y-62569047D01*
X96411904Y-62592857D01*
X96340476Y-62592857D01*
X96245238Y-62569047D01*
X96197619Y-62545238D01*
X96150000Y-62497619D01*
X96126190Y-62426190D01*
X96126190Y-62378571D01*
X96150000Y-62307142D01*
X96173809Y-62283333D01*
X96126190Y-61830952D02*
X96126190Y-62069047D01*
X96364285Y-62092857D01*
X96340476Y-62069047D01*
X96316666Y-62021428D01*
X96316666Y-61902380D01*
X96340476Y-61854761D01*
X96364285Y-61830952D01*
X96411904Y-61807142D01*
X96530952Y-61807142D01*
X96578571Y-61830952D01*
X96602380Y-61854761D01*
X96626190Y-61902380D01*
X96626190Y-62021428D01*
X96602380Y-62069047D01*
X96578571Y-62092857D01*
G04 #@! TO.C,D2*
X104626190Y-53769047D02*
X104126190Y-53769047D01*
X104126190Y-53650000D01*
X104150000Y-53578571D01*
X104197619Y-53530952D01*
X104245238Y-53507142D01*
X104340476Y-53483333D01*
X104411904Y-53483333D01*
X104507142Y-53507142D01*
X104554761Y-53530952D01*
X104602380Y-53578571D01*
X104626190Y-53650000D01*
X104626190Y-53769047D01*
X104173809Y-53292857D02*
X104150000Y-53269047D01*
X104126190Y-53221428D01*
X104126190Y-53102380D01*
X104150000Y-53054761D01*
X104173809Y-53030952D01*
X104221428Y-53007142D01*
X104269047Y-53007142D01*
X104340476Y-53030952D01*
X104626190Y-53316666D01*
X104626190Y-53007142D01*
G04 #@! TO.C,R1*
X96116666Y-55026190D02*
X95950000Y-54788095D01*
X95830952Y-55026190D02*
X95830952Y-54526190D01*
X96021428Y-54526190D01*
X96069047Y-54550000D01*
X96092857Y-54573809D01*
X96116666Y-54621428D01*
X96116666Y-54692857D01*
X96092857Y-54740476D01*
X96069047Y-54764285D01*
X96021428Y-54788095D01*
X95830952Y-54788095D01*
X96592857Y-55026190D02*
X96307142Y-55026190D01*
X96450000Y-55026190D02*
X96450000Y-54526190D01*
X96402380Y-54597619D01*
X96354761Y-54645238D01*
X96307142Y-54669047D01*
G04 #@! TO.C,R2*
X96916666Y-53826190D02*
X96750000Y-53588095D01*
X96630952Y-53826190D02*
X96630952Y-53326190D01*
X96821428Y-53326190D01*
X96869047Y-53350000D01*
X96892857Y-53373809D01*
X96916666Y-53421428D01*
X96916666Y-53492857D01*
X96892857Y-53540476D01*
X96869047Y-53564285D01*
X96821428Y-53588095D01*
X96630952Y-53588095D01*
X97107142Y-53373809D02*
X97130952Y-53350000D01*
X97178571Y-53326190D01*
X97297619Y-53326190D01*
X97345238Y-53350000D01*
X97369047Y-53373809D01*
X97392857Y-53421428D01*
X97392857Y-53469047D01*
X97369047Y-53540476D01*
X97083333Y-53826190D01*
X97392857Y-53826190D01*
G04 #@! TO.C,C9*
X103716666Y-59878571D02*
X103692857Y-59902380D01*
X103621428Y-59926190D01*
X103573809Y-59926190D01*
X103502380Y-59902380D01*
X103454761Y-59854761D01*
X103430952Y-59807142D01*
X103407142Y-59711904D01*
X103407142Y-59640476D01*
X103430952Y-59545238D01*
X103454761Y-59497619D01*
X103502380Y-59450000D01*
X103573809Y-59426190D01*
X103621428Y-59426190D01*
X103692857Y-59450000D01*
X103716666Y-59473809D01*
X103954761Y-59926190D02*
X104050000Y-59926190D01*
X104097619Y-59902380D01*
X104121428Y-59878571D01*
X104169047Y-59807142D01*
X104192857Y-59711904D01*
X104192857Y-59521428D01*
X104169047Y-59473809D01*
X104145238Y-59450000D01*
X104097619Y-59426190D01*
X104002380Y-59426190D01*
X103954761Y-59450000D01*
X103930952Y-59473809D01*
X103907142Y-59521428D01*
X103907142Y-59640476D01*
X103930952Y-59688095D01*
X103954761Y-59711904D01*
X104002380Y-59735714D01*
X104097619Y-59735714D01*
X104145238Y-59711904D01*
X104169047Y-59688095D01*
X104192857Y-59640476D01*
G04 #@! TO.C,C10*
X106578571Y-59878571D02*
X106554761Y-59902380D01*
X106483333Y-59926190D01*
X106435714Y-59926190D01*
X106364285Y-59902380D01*
X106316666Y-59854761D01*
X106292857Y-59807142D01*
X106269047Y-59711904D01*
X106269047Y-59640476D01*
X106292857Y-59545238D01*
X106316666Y-59497619D01*
X106364285Y-59450000D01*
X106435714Y-59426190D01*
X106483333Y-59426190D01*
X106554761Y-59450000D01*
X106578571Y-59473809D01*
X107054761Y-59926190D02*
X106769047Y-59926190D01*
X106911904Y-59926190D02*
X106911904Y-59426190D01*
X106864285Y-59497619D01*
X106816666Y-59545238D01*
X106769047Y-59569047D01*
X107364285Y-59426190D02*
X107411904Y-59426190D01*
X107459523Y-59450000D01*
X107483333Y-59473809D01*
X107507142Y-59521428D01*
X107530952Y-59616666D01*
X107530952Y-59735714D01*
X107507142Y-59830952D01*
X107483333Y-59878571D01*
X107459523Y-59902380D01*
X107411904Y-59926190D01*
X107364285Y-59926190D01*
X107316666Y-59902380D01*
X107292857Y-59878571D01*
X107269047Y-59830952D01*
X107245238Y-59735714D01*
X107245238Y-59616666D01*
X107269047Y-59521428D01*
X107292857Y-59473809D01*
X107316666Y-59450000D01*
X107364285Y-59426190D01*
G04 #@! TO.C,U1*
X99419047Y-53926190D02*
X99419047Y-54330952D01*
X99442857Y-54378571D01*
X99466666Y-54402380D01*
X99514285Y-54426190D01*
X99609523Y-54426190D01*
X99657142Y-54402380D01*
X99680952Y-54378571D01*
X99704761Y-54330952D01*
X99704761Y-53926190D01*
X100204761Y-54426190D02*
X99919047Y-54426190D01*
X100061904Y-54426190D02*
X100061904Y-53926190D01*
X100014285Y-53997619D01*
X99966666Y-54045238D01*
X99919047Y-54069047D01*
G04 #@! TD*
M02*
