G04 #@! TF.GenerationSoftware,KiCad,Pcbnew,(5.0.1)-4*
G04 #@! TF.CreationDate,2019-01-02T07:29:33-05:00*
G04 #@! TF.ProjectId,XHP70_LED_driver,58485037305F4C45445F647269766572,rev?*
G04 #@! TF.SameCoordinates,Original*
G04 #@! TF.FileFunction,Copper,L2,Bot,Signal*
G04 #@! TF.FilePolarity,Positive*
%FSLAX46Y46*%
G04 Gerber Fmt 4.6, Leading zero omitted, Abs format (unit mm)*
G04 Created by KiCad (PCBNEW (5.0.1)-4) date 1/2/2019 7:29:33 AM*
%MOMM*%
%LPD*%
G01*
G04 APERTURE LIST*
G04 #@! TA.AperFunction,SMDPad,CuDef*
%ADD10R,2.500000X1.000000*%
G04 #@! TD*
G04 #@! TA.AperFunction,ComponentPad*
%ADD11R,0.500000X0.500000*%
G04 #@! TD*
G04 #@! TA.AperFunction,SMDPad,CuDef*
%ADD12R,1.500000X2.400000*%
G04 #@! TD*
G04 #@! TA.AperFunction,SMDPad,CuDef*
%ADD13R,0.600000X0.500000*%
G04 #@! TD*
G04 #@! TA.AperFunction,ViaPad*
%ADD14C,0.450000*%
G04 #@! TD*
G04 #@! TA.AperFunction,ViaPad*
%ADD15C,0.800000*%
G04 #@! TD*
G04 #@! TA.AperFunction,Conductor*
%ADD16C,0.250000*%
G04 #@! TD*
G04 #@! TA.AperFunction,Conductor*
%ADD17C,0.254000*%
G04 #@! TD*
%ADD18C,0.254000*%
G04 APERTURE END LIST*
D10*
G04 #@! TO.P,C2,1*
G04 #@! TO.N,GND*
X104600000Y-62400000D03*
G04 #@! TO.P,C2,2*
G04 #@! TO.N,+BATT*
X104600000Y-59400000D03*
G04 #@! TD*
D11*
G04 #@! TO.P,U1,21*
G04 #@! TO.N,GND*
X99000000Y-55750000D03*
X99500000Y-55750000D03*
X100000000Y-55750000D03*
X100500000Y-55750000D03*
X99000000Y-56250000D03*
X99500000Y-56250000D03*
X100000000Y-56250000D03*
X100500000Y-56250000D03*
X99000000Y-56750000D03*
X99500000Y-56750000D03*
X100000000Y-56750000D03*
X100500000Y-56750000D03*
X99000000Y-57250000D03*
X99500000Y-57250000D03*
X100000000Y-57250000D03*
X100500000Y-57250000D03*
X99000000Y-57750000D03*
X99500000Y-57750000D03*
X100000000Y-57750000D03*
X100500000Y-57750000D03*
X99000000Y-58250000D03*
X99500000Y-58250000D03*
X100000000Y-58250000D03*
X100500000Y-58250000D03*
G04 #@! TD*
D12*
G04 #@! TO.P,L1,2*
G04 #@! TO.N,+BATT*
X102000000Y-57250000D03*
G04 #@! TO.P,L1,1*
G04 #@! TO.N,Net-(C1-Pad2)*
X96500000Y-57250000D03*
G04 #@! TD*
D13*
G04 #@! TO.P,C9,2*
G04 #@! TO.N,+BATT*
X97800000Y-61200000D03*
G04 #@! TO.P,C9,1*
G04 #@! TO.N,GND*
X96700000Y-61200000D03*
G04 #@! TD*
D14*
G04 #@! TO.N,/MODE*
X102000000Y-59300000D03*
G04 #@! TO.N,Net-(C1-Pad2)*
X96400000Y-57700000D03*
X95900000Y-57700000D03*
X96900000Y-56700000D03*
X96900000Y-57200000D03*
X96400000Y-57200000D03*
X95900000Y-57200000D03*
X96900000Y-56200000D03*
X96400000Y-56200000D03*
X95900000Y-56200000D03*
G04 #@! TO.N,+BATT*
X98000024Y-59340961D03*
X98199992Y-61200000D03*
X104800000Y-55600000D03*
X108206036Y-58200000D03*
G04 #@! TO.N,Net-(C1-Pad2)*
X95900000Y-56700000D03*
X96400000Y-56699998D03*
G04 #@! TO.N,GND*
X95600000Y-59100000D03*
D15*
X99000000Y-63851972D03*
D14*
X100599984Y-60600000D03*
X99000000Y-62377010D03*
G04 #@! TO.N,/LED_K*
X102500000Y-52800000D03*
X108200000Y-54900012D03*
D15*
G04 #@! TO.N,/DAC_OUT*
X102500000Y-61400000D03*
D14*
X105200006Y-50752009D03*
G04 #@! TO.N,/ADC_IOUT*
X97994979Y-62377010D03*
X105500000Y-55600000D03*
G04 #@! TO.N,/ENABLE*
X103500006Y-50200000D03*
X98600000Y-53100000D03*
G04 #@! TO.N,/MODE*
X106700000Y-55600000D03*
G04 #@! TD*
D16*
G04 #@! TO.N,+BATT*
X97899992Y-59440993D02*
X98000024Y-59340961D01*
X97974993Y-60975001D02*
X98199992Y-61200000D01*
X97899992Y-60900000D02*
X97974993Y-60975001D01*
X97899992Y-59440993D02*
X97899992Y-60900000D01*
X104600000Y-55899940D02*
X104775021Y-55724919D01*
X104600000Y-59400000D02*
X104600000Y-55899940D01*
X97940985Y-59400000D02*
X97899992Y-59440993D01*
X101100000Y-59400000D02*
X97940985Y-59400000D01*
X102000000Y-57300000D02*
X102000000Y-58500000D01*
X102000000Y-58500000D02*
X101100000Y-59400000D01*
X107256036Y-57250000D02*
X107981037Y-57975001D01*
X102000000Y-57250000D02*
X107256036Y-57250000D01*
X107981037Y-57975001D02*
X108206036Y-58200000D01*
G04 #@! TO.N,GND*
X100475001Y-55724999D02*
X100200000Y-56000000D01*
X99000000Y-62199984D02*
X99000000Y-62377010D01*
X100599984Y-60600000D02*
X99000000Y-62199984D01*
G04 #@! TO.N,/LED_K*
X107975001Y-54675013D02*
X108200000Y-54900012D01*
X104375013Y-54675013D02*
X107975001Y-54675013D01*
X102500000Y-52800000D02*
X104375013Y-54675013D01*
G04 #@! TO.N,/DAC_OUT*
X105200006Y-51100006D02*
X105200006Y-50752009D01*
X109437060Y-55337060D02*
X105200006Y-51100006D01*
X109437060Y-58741274D02*
X109437060Y-55337060D01*
X102500000Y-61400000D02*
X106778334Y-61400000D01*
X106778334Y-61400000D02*
X109437060Y-58741274D01*
G04 #@! TO.N,/ADC_IOUT*
X109060049Y-56566013D02*
X109060049Y-58585111D01*
X101382974Y-60700000D02*
X99228962Y-62854012D01*
X106147976Y-55052024D02*
X107546060Y-55052024D01*
X99228962Y-62854012D02*
X98471981Y-62854012D01*
X98219978Y-62602009D02*
X97994979Y-62377010D01*
X106945160Y-60700000D02*
X101382974Y-60700000D01*
X109060049Y-58585111D02*
X106945160Y-60700000D01*
X107546060Y-55052024D02*
X109060049Y-56566013D01*
X105600000Y-55600000D02*
X106147976Y-55052024D01*
X98471981Y-62854012D02*
X98219978Y-62602009D01*
G04 #@! TO.N,/ENABLE*
X100600000Y-53100000D02*
X98600000Y-53100000D01*
X100800000Y-52900000D02*
X100600000Y-53100000D01*
X103500006Y-50200000D02*
X100800006Y-52900000D01*
X100800006Y-52900000D02*
X100800000Y-52900000D01*
G04 #@! TO.N,/MODE*
X102224999Y-59524999D02*
X102000000Y-59300000D01*
X107500000Y-55600000D02*
X108683038Y-56783038D01*
X106700000Y-55600000D02*
X107500000Y-55600000D01*
X108683038Y-56783038D02*
X108683038Y-58428948D01*
X108683038Y-58428948D02*
X106959985Y-60152001D01*
X106959985Y-60152001D02*
X102852001Y-60152001D01*
X102852001Y-60152001D02*
X102224999Y-59524999D01*
G04 #@! TD*
D17*
G04 #@! TO.N,GND*
X102694913Y-49571873D02*
X102694913Y-49571873D01*
X101250082Y-49813173D02*
X103029820Y-49813173D01*
X103970192Y-49813173D02*
X105158171Y-49813173D01*
X100434942Y-50054473D02*
X102904356Y-50054473D01*
X104095657Y-50054473D02*
X105977016Y-50054473D01*
X99869223Y-50295773D02*
X102688642Y-50295773D01*
X104106006Y-50295773D02*
X104799229Y-50295773D01*
X105600783Y-50295773D02*
X106526713Y-50295773D01*
X99373778Y-50537073D02*
X102447342Y-50537073D01*
X104016315Y-50537073D02*
X104633106Y-50537073D01*
X105766907Y-50537073D02*
X107033957Y-50537073D01*
X98970595Y-50778373D02*
X102206042Y-50778373D01*
X103687244Y-50778373D02*
X104594006Y-50778373D01*
X105806006Y-50778373D02*
X107427723Y-50778373D01*
X98577978Y-51019673D02*
X101964742Y-51019673D01*
X103395924Y-51019673D02*
X104654946Y-51019673D01*
X105835265Y-51019673D02*
X107821489Y-51019673D01*
X98276787Y-51260973D02*
X101723442Y-51260973D01*
X103154624Y-51260973D02*
X104716111Y-51260973D01*
X106076565Y-51260973D02*
X108125912Y-51260973D01*
X97975595Y-51502273D02*
X101482142Y-51502273D01*
X102913324Y-51502273D02*
X104886681Y-51502273D01*
X106317865Y-51502273D02*
X108420723Y-51502273D01*
X97693775Y-51743573D02*
X101240842Y-51743573D01*
X102672024Y-51743573D02*
X105127981Y-51743573D01*
X106559165Y-51743573D02*
X108713370Y-51743573D01*
X97464790Y-51984873D02*
X100999542Y-51984873D01*
X102430724Y-51984873D02*
X105369281Y-51984873D01*
X106800465Y-51984873D02*
X108937600Y-51984873D01*
X97235804Y-52226173D02*
X100758242Y-52226173D01*
X102189424Y-52226173D02*
X102301787Y-52226173D01*
X102698214Y-52226173D02*
X105610581Y-52226173D01*
X107041765Y-52226173D02*
X109161829Y-52226173D01*
X97006819Y-52467473D02*
X100516942Y-52467473D01*
X101948124Y-52467473D02*
X101981808Y-52467473D01*
X103018193Y-52467473D02*
X105851881Y-52467473D01*
X107283065Y-52467473D02*
X109386059Y-52467473D01*
X96832255Y-52708773D02*
X98134214Y-52708773D01*
X101706824Y-52708773D02*
X101894000Y-52708773D01*
X103124365Y-52708773D02*
X106093181Y-52708773D01*
X107524365Y-52708773D02*
X109571561Y-52708773D01*
X96658863Y-52950073D02*
X98006173Y-52950073D01*
X101465524Y-52950073D02*
X101906232Y-52950073D01*
X103365665Y-52950073D02*
X106334481Y-52950073D01*
X107765665Y-52950073D02*
X109741149Y-52950073D01*
X96485472Y-53191373D02*
X97994000Y-53191373D01*
X101224224Y-53191373D02*
X102034360Y-53191373D01*
X103606965Y-53191373D02*
X106575781Y-53191373D01*
X108006965Y-53191373D02*
X109910738Y-53191373D01*
X96325603Y-53432673D02*
X98081868Y-53432673D01*
X100986276Y-53432673D02*
X102417081Y-53432673D01*
X103848265Y-53432673D02*
X106817081Y-53432673D01*
X108248265Y-53432673D02*
X110080326Y-53432673D01*
X96197841Y-53673973D02*
X98402139Y-53673973D01*
X98797860Y-53673973D02*
X102658381Y-53673973D01*
X104089565Y-53673973D02*
X107058381Y-53673973D01*
X108489565Y-53673973D02*
X110204930Y-53673973D01*
X96070079Y-53915273D02*
X102899681Y-53915273D01*
X104330865Y-53915273D02*
X107299681Y-53915273D01*
X108730865Y-53915273D02*
X110329474Y-53915273D01*
X95942317Y-54156573D02*
X103140981Y-54156573D01*
X104572165Y-54156573D02*
X107540981Y-54156573D01*
X108972165Y-54156573D02*
X110454018Y-54156573D01*
X95825947Y-54397873D02*
X103382281Y-54397873D01*
X109213465Y-54397873D02*
X110578562Y-54397873D01*
X95737644Y-54639173D02*
X103623581Y-54639173D01*
X109454765Y-54639173D02*
X110665221Y-54639173D01*
X95649341Y-54880473D02*
X100896801Y-54880473D01*
X109696065Y-54880473D02*
X110750670Y-54880473D01*
X95561038Y-55121773D02*
X100819376Y-55121773D01*
X109901771Y-55121773D02*
X110836119Y-55121773D01*
X95473811Y-55363073D02*
X100824510Y-55363073D01*
X109947798Y-55363073D02*
X110921568Y-55363073D01*
X95421199Y-55604373D02*
X95754417Y-55604373D01*
X96045584Y-55604373D02*
X96254417Y-55604373D01*
X96545584Y-55604373D02*
X96754417Y-55604373D01*
X97045584Y-55604373D02*
X100829644Y-55604373D01*
X109943060Y-55604373D02*
X110982380Y-55604373D01*
X95368587Y-55845673D02*
X95397314Y-55845673D01*
X97571699Y-55845673D02*
X100834779Y-55845673D01*
X109943060Y-55845673D02*
X111032351Y-55845673D01*
X97638464Y-56086973D02*
X100839913Y-56086973D01*
X109943060Y-56086973D02*
X111082322Y-56086973D01*
X95263362Y-56328273D02*
X95297202Y-56328273D01*
X97638464Y-56328273D02*
X100845047Y-56328273D01*
X109943060Y-56328273D02*
X111132293Y-56328273D01*
X95230907Y-56569573D02*
X95298095Y-56569573D01*
X97638464Y-56569573D02*
X100850181Y-56569573D01*
X109943060Y-56569573D02*
X111173752Y-56569573D01*
X95211917Y-56810873D02*
X95294000Y-56810873D01*
X97638464Y-56810873D02*
X100855315Y-56810873D01*
X109943060Y-56810873D02*
X111190202Y-56810873D01*
X95192926Y-57052173D02*
X95305303Y-57052173D01*
X97638464Y-57052173D02*
X99799802Y-57052173D01*
X100375000Y-57052173D02*
X100625000Y-57052173D01*
X109943060Y-57052173D02*
X111206653Y-57052173D01*
X95173935Y-57293473D02*
X95294000Y-57293473D01*
X97638464Y-57293473D02*
X99648228Y-57293473D01*
X100375000Y-57293473D02*
X100625000Y-57293473D01*
X109943060Y-57293473D02*
X111223103Y-57293473D01*
X95157537Y-57534773D02*
X95312510Y-57534773D01*
X97638464Y-57534773D02*
X99683523Y-57534773D01*
X100375000Y-57534773D02*
X100625000Y-57534773D01*
X109943060Y-57534773D02*
X111239553Y-57534773D01*
X95171451Y-57776073D02*
X95294000Y-57776073D01*
X97638464Y-57776073D02*
X100647000Y-57776073D01*
X109943060Y-57776073D02*
X111241557Y-57776073D01*
X95185364Y-58017373D02*
X95361536Y-58017373D01*
X97638464Y-58017373D02*
X99631377Y-58017373D01*
X100375000Y-58017373D02*
X100625000Y-58017373D01*
X109943060Y-58017373D02*
X111220022Y-58017373D01*
X95199277Y-58258673D02*
X95361536Y-58258673D01*
X97638464Y-58258673D02*
X99669826Y-58258673D01*
X100375000Y-58258673D02*
X100625000Y-58258673D01*
X109943060Y-58258673D02*
X111198486Y-58258673D01*
X95213190Y-58499973D02*
X95371476Y-58499973D01*
X97628523Y-58499973D02*
X99851947Y-58499973D01*
X100351277Y-58499973D02*
X100648723Y-58499973D01*
X109943060Y-58499973D02*
X111176951Y-58499973D01*
X95245541Y-58741273D02*
X95500138Y-58741273D01*
X97499861Y-58741273D02*
X97864245Y-58741273D01*
X98135804Y-58741273D02*
X100896387Y-58741273D01*
X109952973Y-58741273D02*
X111155415Y-58741273D01*
X95292883Y-58982573D02*
X97501399Y-58982573D01*
X109884389Y-58982573D02*
X111116517Y-58982573D01*
X95340224Y-59223873D02*
X97394024Y-59223873D01*
X109670052Y-59223873D02*
X111061252Y-59223873D01*
X95387565Y-59465173D02*
X97388888Y-59465173D01*
X109428752Y-59465173D02*
X111005987Y-59465173D01*
X95438493Y-59706473D02*
X97393992Y-59706473D01*
X109187452Y-59706473D02*
X110950721Y-59706473D01*
X95521108Y-59947773D02*
X97393992Y-59947773D01*
X108946152Y-59947773D02*
X110892063Y-59947773D01*
X95603724Y-60189073D02*
X97393992Y-60189073D01*
X108704852Y-60189073D02*
X110800883Y-60189073D01*
X95686339Y-60430373D02*
X97393992Y-60430373D01*
X108463552Y-60430373D02*
X110709703Y-60430373D01*
X95768955Y-60671673D02*
X97230764Y-60671673D01*
X108222252Y-60671673D02*
X110618524Y-60671673D01*
X95883010Y-60912973D02*
X97118902Y-60912973D01*
X107980952Y-60912973D02*
X110527344Y-60912973D01*
X96004371Y-61154273D02*
X97111536Y-61154273D01*
X107739652Y-61154273D02*
X110402204Y-61154273D01*
X96125732Y-61395573D02*
X97111536Y-61395573D01*
X101402992Y-61395573D02*
X101719000Y-61395573D01*
X107498352Y-61395573D02*
X110271189Y-61395573D01*
X96247093Y-61636873D02*
X97166639Y-61636873D01*
X101161692Y-61636873D02*
X101752767Y-61636873D01*
X107257052Y-61636873D02*
X110140174Y-61636873D01*
X96402269Y-61878173D02*
X97636803Y-61878173D01*
X100920392Y-61878173D02*
X101873672Y-61878173D01*
X106968063Y-61878173D02*
X110009159Y-61878173D01*
X96568110Y-62119473D02*
X97445725Y-62119473D01*
X100679092Y-62119473D02*
X102196109Y-62119473D01*
X102803890Y-62119473D02*
X109838042Y-62119473D01*
X96733951Y-62360773D02*
X97388979Y-62360773D01*
X100437792Y-62360773D02*
X109660789Y-62360773D01*
X96901030Y-62602073D02*
X97432273Y-62602073D01*
X100196492Y-62602073D02*
X109483536Y-62602073D01*
X97120596Y-62843373D02*
X97604329Y-62843373D01*
X99955192Y-62843373D02*
X109294252Y-62843373D01*
X97340162Y-63084673D02*
X97987051Y-63084673D01*
X99713892Y-63084673D02*
X109060416Y-63084673D01*
X97559728Y-63325973D02*
X98267545Y-63325973D01*
X99433397Y-63325973D02*
X108826580Y-63325973D01*
X97825473Y-63567273D02*
X108592744Y-63567273D01*
X98114064Y-63808573D02*
X108288244Y-63808573D01*
X98402656Y-64049873D02*
X107980503Y-64049873D01*
X98764284Y-64291173D02*
X107656136Y-64291173D01*
X99148950Y-64532473D02*
X107243200Y-64532473D01*
X99586100Y-64773773D02*
X106830264Y-64773773D01*
X100120520Y-65015073D02*
X106269739Y-65015073D01*
X100790657Y-65256373D02*
X105641736Y-65256373D01*
X101755009Y-65497673D02*
X104721956Y-65497673D01*
X111244000Y-57600000D02*
X111244000Y-57600000D01*
X111002700Y-55702490D02*
X111002700Y-59479520D01*
X110761400Y-54910771D02*
X110761400Y-60293560D01*
X110520100Y-54284603D02*
X110520100Y-60932141D01*
X110278800Y-53817093D02*
X110278800Y-61381554D01*
X110037500Y-53371737D02*
X110037500Y-61825974D01*
X109796200Y-53028401D02*
X109796200Y-54968469D01*
X109796200Y-59109866D02*
X109796200Y-62176432D01*
X109554900Y-52685066D02*
X109554900Y-54739309D01*
X109554900Y-59339026D02*
X109554900Y-62504922D01*
X109313600Y-52389497D02*
X109313600Y-54498009D01*
X109313600Y-59580326D02*
X109313600Y-62823406D01*
X109072300Y-52129827D02*
X109072300Y-54256709D01*
X109072300Y-59821626D02*
X109072300Y-63072408D01*
X108831000Y-51870157D02*
X108831000Y-54015409D01*
X108831000Y-60062926D02*
X108831000Y-63321411D01*
X108589700Y-51640578D02*
X108589700Y-53774109D01*
X108589700Y-60304226D02*
X108589700Y-63570413D01*
X108348400Y-51443077D02*
X108348400Y-53532809D01*
X108348400Y-60545526D02*
X108348400Y-63761404D01*
X108107100Y-51245575D02*
X108107100Y-53291509D01*
X108107100Y-60786826D02*
X108107100Y-63950607D01*
X107865800Y-51048073D02*
X107865800Y-53050209D01*
X107865800Y-61028126D02*
X107865800Y-64139811D01*
X107624500Y-50898957D02*
X107624500Y-52808909D01*
X107624500Y-61269426D02*
X107624500Y-64309659D01*
X107383200Y-50751089D02*
X107383200Y-52567609D01*
X107383200Y-53998791D02*
X107383200Y-54169013D01*
X107383200Y-61510726D02*
X107383200Y-64450663D01*
X107141900Y-50603220D02*
X107141900Y-52326309D01*
X107141900Y-53757491D02*
X107141900Y-54169013D01*
X107141900Y-61765635D02*
X107141900Y-64591667D01*
X106900600Y-50459897D02*
X106900600Y-52085009D01*
X106900600Y-53516191D02*
X106900600Y-54169013D01*
X106900600Y-61891593D02*
X106900600Y-64732671D01*
X106659300Y-50353974D02*
X106659300Y-51843709D01*
X106659300Y-53274891D02*
X106659300Y-54169013D01*
X106659300Y-61906000D02*
X106659300Y-64853710D01*
X106418000Y-50248051D02*
X106418000Y-51602409D01*
X106418000Y-53033591D02*
X106418000Y-54169013D01*
X106418000Y-61906000D02*
X106418000Y-64953660D01*
X106176700Y-50142127D02*
X106176700Y-51361109D01*
X106176700Y-52792291D02*
X106176700Y-54169013D01*
X106176700Y-61906000D02*
X106176700Y-65053610D01*
X105935400Y-50036204D02*
X105935400Y-51119809D01*
X105935400Y-52550991D02*
X105935400Y-54169013D01*
X105935400Y-61906000D02*
X105935400Y-65153560D01*
X105694100Y-49965836D02*
X105694100Y-50389090D01*
X105694100Y-52309691D02*
X105694100Y-54169013D01*
X105694100Y-61906000D02*
X105694100Y-65242635D01*
X105452800Y-49897100D02*
X105452800Y-50200791D01*
X105452800Y-52068391D02*
X105452800Y-54169013D01*
X105452800Y-61906000D02*
X105452800Y-65305939D01*
X105211500Y-49828364D02*
X105211500Y-50146009D01*
X105211500Y-51827091D02*
X105211500Y-54169013D01*
X105211500Y-61906000D02*
X105211500Y-65369243D01*
X104970200Y-49759628D02*
X104970200Y-50191268D01*
X104970200Y-51585791D02*
X104970200Y-54169013D01*
X104970200Y-61906000D02*
X104970200Y-65432547D01*
X104728900Y-49711351D02*
X104728900Y-50366102D01*
X104728900Y-51305719D02*
X104728900Y-54169013D01*
X104728900Y-61906000D02*
X104728900Y-65495851D01*
X104487600Y-49677009D02*
X104487600Y-54072009D01*
X104487600Y-61906000D02*
X104487600Y-65528104D01*
X104246300Y-49642667D02*
X104246300Y-53830709D01*
X104246300Y-61906000D02*
X104246300Y-65557305D01*
X104005000Y-49608325D02*
X104005000Y-49847981D01*
X104005000Y-50552019D02*
X104005000Y-53589409D01*
X104005000Y-61906000D02*
X104005000Y-65586505D01*
X103763700Y-49577468D02*
X103763700Y-49653297D01*
X103763700Y-50746704D02*
X103763700Y-53348109D01*
X103763700Y-61906000D02*
X103763700Y-65615706D01*
X103522400Y-49576205D02*
X103522400Y-49594000D01*
X103522400Y-50893198D02*
X103522400Y-53106809D01*
X103522400Y-54537991D02*
X103522400Y-54719000D01*
X103522400Y-61906000D02*
X103522400Y-65631428D01*
X103281100Y-49574942D02*
X103281100Y-49634744D01*
X103281100Y-51134498D02*
X103281100Y-52865509D01*
X103281100Y-54296691D02*
X103281100Y-54719000D01*
X103281100Y-61906000D02*
X103281100Y-65627637D01*
X103039800Y-49573678D02*
X103039800Y-49803193D01*
X103039800Y-51375798D02*
X103039800Y-52519639D01*
X103039800Y-54055391D02*
X103039800Y-54719000D01*
X103039800Y-61964701D02*
X103039800Y-65623847D01*
X102798500Y-49572415D02*
X102798500Y-50185914D01*
X102798500Y-51617098D02*
X102798500Y-52267714D01*
X102798500Y-53814091D02*
X102798500Y-54719000D01*
X102798500Y-62121706D02*
X102798500Y-65620056D01*
X102557200Y-49590004D02*
X102557200Y-50427214D01*
X102557200Y-51858398D02*
X102557200Y-52194000D01*
X102557200Y-53572791D02*
X102557200Y-54719000D01*
X102557200Y-62181000D02*
X102557200Y-65616266D01*
X102315900Y-49621772D02*
X102315900Y-50668514D01*
X102315900Y-52099698D02*
X102315900Y-52220327D01*
X102315900Y-53379672D02*
X102315900Y-54719000D01*
X102315900Y-62169091D02*
X102315900Y-65583503D01*
X102074600Y-49653539D02*
X102074600Y-50909814D01*
X102074600Y-52340998D02*
X102074600Y-52368387D01*
X102074600Y-53231613D02*
X102074600Y-54719000D01*
X102074600Y-62069142D02*
X102074600Y-65546578D01*
X101833300Y-49685307D02*
X101833300Y-51151114D01*
X101833300Y-52582298D02*
X101833300Y-54719000D01*
X101833300Y-61831295D02*
X101833300Y-65509654D01*
X101592000Y-49719636D02*
X101592000Y-51392414D01*
X101592000Y-52823598D02*
X101592000Y-54719000D01*
X101592000Y-61206566D02*
X101592000Y-65472730D01*
X101350700Y-49785648D02*
X101350700Y-51633714D01*
X101350700Y-53064898D02*
X101350700Y-54719000D01*
X101350700Y-61447866D02*
X101350700Y-65422266D01*
X101109400Y-49851660D02*
X101109400Y-51875014D01*
X101109400Y-53306191D02*
X101109400Y-54738025D01*
X101109400Y-61689166D02*
X101109400Y-65350790D01*
X100868100Y-49917672D02*
X100868100Y-52116314D01*
X100868100Y-53529423D02*
X100868100Y-54925470D01*
X100868100Y-58635000D02*
X100868100Y-58894000D01*
X100868100Y-61930466D02*
X100868100Y-65279313D01*
X100626800Y-49983684D02*
X100626800Y-52357614D01*
X100626800Y-53610582D02*
X100626800Y-57021950D01*
X100626800Y-57625000D02*
X100626800Y-57875000D01*
X100626800Y-58478050D02*
X100626800Y-58894000D01*
X100626800Y-62171766D02*
X100626800Y-65207837D01*
X100385500Y-50075563D02*
X100385500Y-52594000D01*
X100385500Y-53606000D02*
X100385500Y-58894000D01*
X100385500Y-62413066D02*
X100385500Y-65134717D01*
X100144200Y-50178486D02*
X100144200Y-52594000D01*
X100144200Y-53606000D02*
X100144200Y-56865000D01*
X100144200Y-57625000D02*
X100144200Y-57875000D01*
X100144200Y-58635000D02*
X100144200Y-58894000D01*
X100144200Y-62654366D02*
X100144200Y-65025766D01*
X99902900Y-50281409D02*
X99902900Y-52594000D01*
X99902900Y-53606000D02*
X99902900Y-56956454D01*
X99902900Y-57625000D02*
X99902900Y-57875000D01*
X99902900Y-58543545D02*
X99902900Y-58894000D01*
X99902900Y-62895666D02*
X99902900Y-64916814D01*
X99661600Y-50384333D02*
X99661600Y-52594000D01*
X99661600Y-53606000D02*
X99661600Y-57261187D01*
X99661600Y-57512850D02*
X99661600Y-57987150D01*
X99661600Y-58238812D02*
X99661600Y-58894000D01*
X99661600Y-63136966D02*
X99661600Y-64807863D01*
X99420300Y-50509231D02*
X99420300Y-52594000D01*
X99420300Y-53606000D02*
X99420300Y-57373690D01*
X99420300Y-57373690D02*
X99420300Y-58033750D01*
X99420300Y-58033750D02*
X99420300Y-58894000D01*
X99420300Y-63331865D02*
X99420300Y-64698912D01*
X99179000Y-50653646D02*
X99179000Y-52594000D01*
X99179000Y-53606000D02*
X99179000Y-57373690D01*
X99179000Y-57373690D02*
X99179000Y-58033750D01*
X99179000Y-58033750D02*
X99179000Y-58894000D01*
X99179000Y-63360012D02*
X99179000Y-64551324D01*
X98937700Y-50798061D02*
X98937700Y-52583951D01*
X98937700Y-53616050D02*
X98937700Y-57373690D01*
X98937700Y-57373690D02*
X98937700Y-58033750D01*
X98937700Y-58033750D02*
X98937700Y-58894000D01*
X98937700Y-63360012D02*
X98937700Y-64399957D01*
X98696400Y-50942476D02*
X98696400Y-52494000D01*
X98696400Y-53706000D02*
X98696400Y-57373690D01*
X98696400Y-57373690D02*
X98696400Y-58033750D01*
X98696400Y-58033750D02*
X98696400Y-58894000D01*
X98696400Y-63360012D02*
X98696400Y-64248590D01*
X98455100Y-51118118D02*
X98455100Y-52504089D01*
X98455100Y-53695910D02*
X98455100Y-57373690D01*
X98455100Y-57373690D02*
X98455100Y-58033750D01*
X98455100Y-58033750D02*
X98455100Y-58894000D01*
X98455100Y-63366567D02*
X98455100Y-64093724D01*
X98213800Y-51311436D02*
X98213800Y-52629187D01*
X98213800Y-53570813D02*
X98213800Y-57373690D01*
X98213800Y-57373690D02*
X98213800Y-58033750D01*
X98213800Y-58033750D02*
X98213800Y-58773581D01*
X98213800Y-63290061D02*
X98213800Y-63891966D01*
X97972500Y-51504753D02*
X97972500Y-52979459D01*
X97972500Y-52979459D02*
X97972500Y-57373690D01*
X97972500Y-57373690D02*
X97972500Y-58033750D01*
X97972500Y-58033750D02*
X97972500Y-58734961D01*
X97972500Y-63070122D02*
X97972500Y-63690208D01*
X97731200Y-51704137D02*
X97731200Y-52979459D01*
X97731200Y-52979459D02*
X97731200Y-57373690D01*
X97731200Y-57373690D02*
X97731200Y-58033750D01*
X97731200Y-58033750D02*
X97731200Y-58796381D01*
X97731200Y-62923678D02*
X97731200Y-63488449D01*
X97489900Y-51958413D02*
X97489900Y-52979459D01*
X97489900Y-52979459D02*
X97489900Y-55752071D01*
X97489900Y-58747930D02*
X97489900Y-58994072D01*
X97489900Y-61836454D02*
X97489900Y-62025076D01*
X97489900Y-62728944D02*
X97489900Y-63249234D01*
X97248600Y-52212690D02*
X97248600Y-52979459D01*
X97248600Y-52979459D02*
X97248600Y-55661536D01*
X97248600Y-58838464D02*
X97248600Y-60659754D01*
X97248600Y-61740245D02*
X97248600Y-62984049D01*
X97007300Y-52466967D02*
X97007300Y-52979459D01*
X97007300Y-52979459D02*
X97007300Y-55594000D01*
X97007300Y-58838464D02*
X97007300Y-60950000D01*
X97007300Y-60950000D02*
X97007300Y-62718864D01*
X96766000Y-52800978D02*
X96766000Y-52979459D01*
X96766000Y-52979459D02*
X96766000Y-55599574D01*
X96766000Y-58838464D02*
X96766000Y-60950000D01*
X96766000Y-60950000D02*
X96766000Y-62407406D01*
X96524700Y-53136783D02*
X96524700Y-55595723D01*
X96524700Y-58838464D02*
X96524700Y-60950000D01*
X96524700Y-60950000D02*
X96524700Y-62056312D01*
X96283400Y-53512381D02*
X96283400Y-55594000D01*
X96283400Y-58838464D02*
X96283400Y-60950000D01*
X96283400Y-60950000D02*
X96283400Y-61705219D01*
X96042100Y-53968117D02*
X96042100Y-55602931D01*
X96042100Y-58838464D02*
X96042100Y-60950000D01*
X96042100Y-60950000D02*
X96042100Y-61229291D01*
X95800800Y-54466591D02*
X95800800Y-55594000D01*
X95800800Y-58838464D02*
X95800800Y-60749519D01*
X95559500Y-55125976D02*
X95559500Y-55685110D01*
X95559500Y-58780936D02*
X95559500Y-60059908D01*
X95318200Y-56378964D02*
X95318200Y-56521035D01*
X95318200Y-56878964D02*
X95318200Y-57021035D01*
X95318200Y-57378964D02*
X95318200Y-57521035D01*
X95318200Y-57878964D02*
X95318200Y-59111619D01*
X98405992Y-59906000D02*
X100939644Y-59906000D01*
X98405992Y-60147300D02*
X101147166Y-60147300D01*
X98405992Y-60388600D02*
X100978783Y-60388600D01*
X98407204Y-60629900D02*
X100737483Y-60629900D01*
X98719729Y-60871200D02*
X100496183Y-60871200D01*
X98805992Y-61112500D02*
X100254883Y-61112500D01*
X98792215Y-61353800D02*
X100013583Y-61353800D01*
X98661905Y-61595100D02*
X99772283Y-61595100D01*
X98273385Y-61836400D02*
X99530983Y-61836400D01*
X98526931Y-62077700D02*
X99289683Y-62077700D01*
X98652560Y-62319000D02*
X99048383Y-62319000D01*
X102178409Y-60194000D02*
X102178409Y-60194000D01*
X101937109Y-60181000D02*
X101937109Y-60194000D01*
X101695809Y-60181000D02*
X101695809Y-60194000D01*
X101454509Y-60181000D02*
X101454509Y-60194000D01*
X101213209Y-60163736D02*
X101213209Y-60217855D01*
X100971909Y-59981581D02*
X100971909Y-60395473D01*
X100730609Y-59906000D02*
X100730609Y-60636773D01*
X100489309Y-59906000D02*
X100489309Y-60878073D01*
X100248009Y-59906000D02*
X100248009Y-61119373D01*
X100006709Y-59906000D02*
X100006709Y-61360673D01*
X99765409Y-59906000D02*
X99765409Y-61601973D01*
X99524109Y-59906000D02*
X99524109Y-61843273D01*
X99282809Y-59906000D02*
X99282809Y-62084573D01*
X99041509Y-59906000D02*
X99041509Y-62325873D01*
X98800209Y-59906000D02*
X98800209Y-61065498D01*
X98800209Y-61334503D02*
X98800209Y-62348012D01*
X98558909Y-59906000D02*
X98558909Y-60701904D01*
X98558909Y-61698096D02*
X98558909Y-62154904D01*
X98317609Y-61806000D02*
X98317609Y-61854719D01*
D18*
X103789128Y-49577602D02*
X104872442Y-49731781D01*
X105924808Y-50031555D01*
X106926753Y-50471378D01*
X107859738Y-51043112D01*
X108706497Y-51736176D01*
X109451362Y-52537747D01*
X110080550Y-53432991D01*
X110582418Y-54405342D01*
X110947680Y-55436809D01*
X111169576Y-56508304D01*
X111244000Y-57600000D01*
X111242236Y-57768461D01*
X111144965Y-58858359D01*
X110900678Y-59924972D01*
X110513895Y-60948563D01*
X109991774Y-61910191D01*
X109343975Y-62792062D01*
X108582487Y-63577857D01*
X107721399Y-64253036D01*
X106776645Y-64805105D01*
X105765709Y-65223849D01*
X104707295Y-65501519D01*
X103620990Y-65632976D01*
X102526895Y-65615789D01*
X101445256Y-65450274D01*
X100396086Y-65139496D01*
X99398802Y-64689205D01*
X98471855Y-64107733D01*
X97632400Y-63405839D01*
X96895970Y-62596513D01*
X96276191Y-61694729D01*
X95901632Y-60950000D01*
X97111536Y-60950000D01*
X97111536Y-61450000D01*
X97141106Y-61598659D01*
X97225314Y-61724686D01*
X97351341Y-61808894D01*
X97500000Y-61838464D01*
X97711590Y-61838464D01*
X97651708Y-61863268D01*
X97481237Y-62033739D01*
X97388979Y-62256469D01*
X97388979Y-62497551D01*
X97481237Y-62720281D01*
X97651708Y-62890752D01*
X97874438Y-62983010D01*
X97885388Y-62983010D01*
X98078942Y-63176564D01*
X98107175Y-63218818D01*
X98274550Y-63330653D01*
X98422146Y-63360012D01*
X98471980Y-63369925D01*
X98521814Y-63360012D01*
X99179128Y-63360012D01*
X99228962Y-63369925D01*
X99278796Y-63360012D01*
X99278797Y-63360012D01*
X99426393Y-63330653D01*
X99593768Y-63218818D01*
X99622001Y-63176564D01*
X101592566Y-61206000D01*
X101735009Y-61206000D01*
X101719000Y-61244649D01*
X101719000Y-61555351D01*
X101837900Y-61842401D01*
X102057599Y-62062100D01*
X102344649Y-62181000D01*
X102655351Y-62181000D01*
X102942401Y-62062100D01*
X103098501Y-61906000D01*
X106728500Y-61906000D01*
X106778334Y-61915913D01*
X106828168Y-61906000D01*
X106828169Y-61906000D01*
X106975765Y-61876641D01*
X107143140Y-61764806D01*
X107171373Y-61722552D01*
X109759616Y-59134310D01*
X109801866Y-59106080D01*
X109913701Y-58938705D01*
X109943060Y-58791109D01*
X109943060Y-58791108D01*
X109952973Y-58741275D01*
X109943060Y-58691441D01*
X109943060Y-55386893D01*
X109952973Y-55337059D01*
X109927095Y-55206966D01*
X109913701Y-55139629D01*
X109801866Y-54972254D01*
X109759615Y-54944023D01*
X105771484Y-50955893D01*
X105806006Y-50872550D01*
X105806006Y-50631468D01*
X105713748Y-50408738D01*
X105543277Y-50238267D01*
X105320547Y-50146009D01*
X105079465Y-50146009D01*
X104856735Y-50238267D01*
X104686264Y-50408738D01*
X104594006Y-50631468D01*
X104594006Y-50872550D01*
X104685432Y-51093272D01*
X104684093Y-51100006D01*
X104694006Y-51149840D01*
X104723365Y-51297436D01*
X104835200Y-51464812D01*
X104877454Y-51493045D01*
X107553421Y-54169013D01*
X104584605Y-54169013D01*
X103106000Y-52690409D01*
X103106000Y-52679459D01*
X103013742Y-52456729D01*
X102843271Y-52286258D01*
X102620541Y-52194000D01*
X102379459Y-52194000D01*
X102156729Y-52286258D01*
X101986258Y-52456729D01*
X101894000Y-52679459D01*
X101894000Y-52920541D01*
X101986258Y-53143271D01*
X102156729Y-53313742D01*
X102379459Y-53406000D01*
X102390409Y-53406000D01*
X103703408Y-54719000D01*
X101200000Y-54719000D01*
X101046743Y-54751183D01*
X100924922Y-54836384D01*
X100844980Y-54961718D01*
X100819086Y-55108105D01*
X100856467Y-56865000D01*
X100783750Y-56865000D01*
X100625000Y-57023750D01*
X100625000Y-57625000D01*
X100647000Y-57625000D01*
X100647000Y-57875000D01*
X100625000Y-57875000D01*
X100625000Y-58476250D01*
X100783750Y-58635000D01*
X100876309Y-58635000D01*
X100893971Y-58627684D01*
X100899445Y-58884964D01*
X100890409Y-58894000D01*
X98410076Y-58894000D01*
X98343295Y-58827219D01*
X98120565Y-58734961D01*
X97879483Y-58734961D01*
X97656753Y-58827219D01*
X97486282Y-58997690D01*
X97394024Y-59220420D01*
X97394024Y-59390998D01*
X97384079Y-59440993D01*
X97393992Y-59490827D01*
X97393993Y-60582622D01*
X97351341Y-60591106D01*
X97225314Y-60675314D01*
X97141106Y-60801341D01*
X97111536Y-60950000D01*
X95901632Y-60950000D01*
X95784533Y-60717175D01*
X95430093Y-59681940D01*
X95219429Y-58608181D01*
X95156441Y-57515765D01*
X95242293Y-56424908D01*
X95294000Y-56187759D01*
X95294000Y-56320541D01*
X95347624Y-56450000D01*
X95294000Y-56579459D01*
X95294000Y-56820541D01*
X95347624Y-56950000D01*
X95294000Y-57079459D01*
X95294000Y-57320541D01*
X95347624Y-57450000D01*
X95294000Y-57579459D01*
X95294000Y-57820541D01*
X95361536Y-57983587D01*
X95361536Y-58450000D01*
X95391106Y-58598659D01*
X95475314Y-58724686D01*
X95601341Y-58808894D01*
X95750000Y-58838464D01*
X97250000Y-58838464D01*
X97398659Y-58808894D01*
X97524686Y-58724686D01*
X97608894Y-58598659D01*
X97638464Y-58450000D01*
X97638464Y-58033750D01*
X99615000Y-58033750D01*
X99615000Y-58126310D01*
X99711673Y-58359699D01*
X99890302Y-58538327D01*
X100123691Y-58635000D01*
X100216250Y-58635000D01*
X100375000Y-58476250D01*
X100375000Y-57875000D01*
X99773750Y-57875000D01*
X99615000Y-58033750D01*
X97638464Y-58033750D01*
X97638464Y-57373690D01*
X99615000Y-57373690D01*
X99615000Y-57466250D01*
X99773750Y-57625000D01*
X100375000Y-57625000D01*
X100375000Y-57023750D01*
X100216250Y-56865000D01*
X100123691Y-56865000D01*
X99890302Y-56961673D01*
X99711673Y-57140301D01*
X99615000Y-57373690D01*
X97638464Y-57373690D01*
X97638464Y-56050000D01*
X97608894Y-55901341D01*
X97524686Y-55775314D01*
X97398659Y-55691106D01*
X97250000Y-55661536D01*
X97183587Y-55661536D01*
X97020541Y-55594000D01*
X96779459Y-55594000D01*
X96650000Y-55647624D01*
X96520541Y-55594000D01*
X96279459Y-55594000D01*
X96150000Y-55647624D01*
X96020541Y-55594000D01*
X95779459Y-55594000D01*
X95556729Y-55686258D01*
X95386258Y-55856729D01*
X95343858Y-55959092D01*
X95475398Y-55355796D01*
X95851440Y-54328210D01*
X96363463Y-53361168D01*
X96637748Y-52979459D01*
X97994000Y-52979459D01*
X97994000Y-53220541D01*
X98086258Y-53443271D01*
X98256729Y-53613742D01*
X98479459Y-53706000D01*
X98720541Y-53706000D01*
X98943271Y-53613742D01*
X98951013Y-53606000D01*
X100550166Y-53606000D01*
X100600000Y-53615913D01*
X100649834Y-53606000D01*
X100649835Y-53606000D01*
X100797431Y-53576641D01*
X100964806Y-53464806D01*
X100993039Y-53422552D01*
X101122540Y-53293051D01*
X101164812Y-53264806D01*
X101193045Y-53222552D01*
X103609598Y-50806000D01*
X103620547Y-50806000D01*
X103843277Y-50713742D01*
X104013748Y-50543271D01*
X104106006Y-50320541D01*
X104106006Y-50079459D01*
X104013748Y-49856729D01*
X103843277Y-49686258D01*
X103620547Y-49594000D01*
X103379465Y-49594000D01*
X103156735Y-49686258D01*
X102986264Y-49856729D01*
X102894006Y-50079459D01*
X102894006Y-50090408D01*
X100477466Y-52506949D01*
X100435194Y-52535194D01*
X100406961Y-52577448D01*
X100390409Y-52594000D01*
X98951013Y-52594000D01*
X98943271Y-52586258D01*
X98720541Y-52494000D01*
X98479459Y-52494000D01*
X98256729Y-52586258D01*
X98086258Y-52756729D01*
X97994000Y-52979459D01*
X96637748Y-52979459D01*
X97001991Y-52472561D01*
X97755210Y-51678835D01*
X98609180Y-50994676D01*
X99548100Y-50432744D01*
X100554597Y-50003436D01*
X101610044Y-49714699D01*
X102694913Y-49571873D01*
X103789128Y-49577602D01*
D17*
X102694913Y-49571873D02*
X102694913Y-49571873D01*
X101250082Y-49813173D02*
X103029820Y-49813173D01*
X103970192Y-49813173D02*
X105158171Y-49813173D01*
X100434942Y-50054473D02*
X102904356Y-50054473D01*
X104095657Y-50054473D02*
X105977016Y-50054473D01*
X99869223Y-50295773D02*
X102688642Y-50295773D01*
X104106006Y-50295773D02*
X104799229Y-50295773D01*
X105600783Y-50295773D02*
X106526713Y-50295773D01*
X99373778Y-50537073D02*
X102447342Y-50537073D01*
X104016315Y-50537073D02*
X104633106Y-50537073D01*
X105766907Y-50537073D02*
X107033957Y-50537073D01*
X98970595Y-50778373D02*
X102206042Y-50778373D01*
X103687244Y-50778373D02*
X104594006Y-50778373D01*
X105806006Y-50778373D02*
X107427723Y-50778373D01*
X98577978Y-51019673D02*
X101964742Y-51019673D01*
X103395924Y-51019673D02*
X104654946Y-51019673D01*
X105835265Y-51019673D02*
X107821489Y-51019673D01*
X98276787Y-51260973D02*
X101723442Y-51260973D01*
X103154624Y-51260973D02*
X104716111Y-51260973D01*
X106076565Y-51260973D02*
X108125912Y-51260973D01*
X97975595Y-51502273D02*
X101482142Y-51502273D01*
X102913324Y-51502273D02*
X104886681Y-51502273D01*
X106317865Y-51502273D02*
X108420723Y-51502273D01*
X97693775Y-51743573D02*
X101240842Y-51743573D01*
X102672024Y-51743573D02*
X105127981Y-51743573D01*
X106559165Y-51743573D02*
X108713370Y-51743573D01*
X97464790Y-51984873D02*
X100999542Y-51984873D01*
X102430724Y-51984873D02*
X105369281Y-51984873D01*
X106800465Y-51984873D02*
X108937600Y-51984873D01*
X97235804Y-52226173D02*
X100758242Y-52226173D01*
X102189424Y-52226173D02*
X102301787Y-52226173D01*
X102698214Y-52226173D02*
X105610581Y-52226173D01*
X107041765Y-52226173D02*
X109161829Y-52226173D01*
X97006819Y-52467473D02*
X100516942Y-52467473D01*
X101948124Y-52467473D02*
X101981808Y-52467473D01*
X103018193Y-52467473D02*
X105851881Y-52467473D01*
X107283065Y-52467473D02*
X109386059Y-52467473D01*
X96832255Y-52708773D02*
X98134214Y-52708773D01*
X101706824Y-52708773D02*
X101894000Y-52708773D01*
X103124365Y-52708773D02*
X106093181Y-52708773D01*
X107524365Y-52708773D02*
X109571561Y-52708773D01*
X96658863Y-52950073D02*
X98006173Y-52950073D01*
X101465524Y-52950073D02*
X101906232Y-52950073D01*
X103365665Y-52950073D02*
X106334481Y-52950073D01*
X107765665Y-52950073D02*
X109741149Y-52950073D01*
X96485472Y-53191373D02*
X97994000Y-53191373D01*
X101224224Y-53191373D02*
X102034360Y-53191373D01*
X103606965Y-53191373D02*
X106575781Y-53191373D01*
X108006965Y-53191373D02*
X109910738Y-53191373D01*
X96325603Y-53432673D02*
X98081868Y-53432673D01*
X100986276Y-53432673D02*
X102417081Y-53432673D01*
X103848265Y-53432673D02*
X106817081Y-53432673D01*
X108248265Y-53432673D02*
X110080326Y-53432673D01*
X96197841Y-53673973D02*
X98402139Y-53673973D01*
X98797860Y-53673973D02*
X102658381Y-53673973D01*
X104089565Y-53673973D02*
X107058381Y-53673973D01*
X108489565Y-53673973D02*
X110204930Y-53673973D01*
X96070079Y-53915273D02*
X102899681Y-53915273D01*
X104330865Y-53915273D02*
X107299681Y-53915273D01*
X108730865Y-53915273D02*
X110329474Y-53915273D01*
X95942317Y-54156573D02*
X103140981Y-54156573D01*
X104572165Y-54156573D02*
X107540981Y-54156573D01*
X108972165Y-54156573D02*
X110454018Y-54156573D01*
X95825947Y-54397873D02*
X103382281Y-54397873D01*
X109213465Y-54397873D02*
X110578562Y-54397873D01*
X95737644Y-54639173D02*
X103623581Y-54639173D01*
X109454765Y-54639173D02*
X110665221Y-54639173D01*
X95649341Y-54880473D02*
X100896801Y-54880473D01*
X109696065Y-54880473D02*
X110750670Y-54880473D01*
X95561038Y-55121773D02*
X100819376Y-55121773D01*
X109901771Y-55121773D02*
X110836119Y-55121773D01*
X95473811Y-55363073D02*
X100824510Y-55363073D01*
X109947798Y-55363073D02*
X110921568Y-55363073D01*
X95421199Y-55604373D02*
X95754417Y-55604373D01*
X96045584Y-55604373D02*
X96254417Y-55604373D01*
X96545584Y-55604373D02*
X96754417Y-55604373D01*
X97045584Y-55604373D02*
X100829644Y-55604373D01*
X109943060Y-55604373D02*
X110982380Y-55604373D01*
X95368587Y-55845673D02*
X95397314Y-55845673D01*
X97571699Y-55845673D02*
X100834779Y-55845673D01*
X109943060Y-55845673D02*
X111032351Y-55845673D01*
X97638464Y-56086973D02*
X100839913Y-56086973D01*
X109943060Y-56086973D02*
X111082322Y-56086973D01*
X95263362Y-56328273D02*
X95297202Y-56328273D01*
X97638464Y-56328273D02*
X100845047Y-56328273D01*
X109943060Y-56328273D02*
X111132293Y-56328273D01*
X95230907Y-56569573D02*
X95298095Y-56569573D01*
X97638464Y-56569573D02*
X100850181Y-56569573D01*
X109943060Y-56569573D02*
X111173752Y-56569573D01*
X95211917Y-56810873D02*
X95294000Y-56810873D01*
X97638464Y-56810873D02*
X100855315Y-56810873D01*
X109943060Y-56810873D02*
X111190202Y-56810873D01*
X95192926Y-57052173D02*
X95305303Y-57052173D01*
X97638464Y-57052173D02*
X99799802Y-57052173D01*
X100375000Y-57052173D02*
X100625000Y-57052173D01*
X109943060Y-57052173D02*
X111206653Y-57052173D01*
X95173935Y-57293473D02*
X95294000Y-57293473D01*
X97638464Y-57293473D02*
X99648228Y-57293473D01*
X100375000Y-57293473D02*
X100625000Y-57293473D01*
X109943060Y-57293473D02*
X111223103Y-57293473D01*
X95157537Y-57534773D02*
X95312510Y-57534773D01*
X97638464Y-57534773D02*
X99683523Y-57534773D01*
X100375000Y-57534773D02*
X100625000Y-57534773D01*
X109943060Y-57534773D02*
X111239553Y-57534773D01*
X95171451Y-57776073D02*
X95294000Y-57776073D01*
X97638464Y-57776073D02*
X100647000Y-57776073D01*
X109943060Y-57776073D02*
X111241557Y-57776073D01*
X95185364Y-58017373D02*
X95361536Y-58017373D01*
X97638464Y-58017373D02*
X99631377Y-58017373D01*
X100375000Y-58017373D02*
X100625000Y-58017373D01*
X109943060Y-58017373D02*
X111220022Y-58017373D01*
X95199277Y-58258673D02*
X95361536Y-58258673D01*
X97638464Y-58258673D02*
X99669826Y-58258673D01*
X100375000Y-58258673D02*
X100625000Y-58258673D01*
X109943060Y-58258673D02*
X111198486Y-58258673D01*
X95213190Y-58499973D02*
X95371476Y-58499973D01*
X97628523Y-58499973D02*
X99851947Y-58499973D01*
X100351277Y-58499973D02*
X100648723Y-58499973D01*
X109943060Y-58499973D02*
X111176951Y-58499973D01*
X95245541Y-58741273D02*
X95500138Y-58741273D01*
X97499861Y-58741273D02*
X97864245Y-58741273D01*
X98135804Y-58741273D02*
X100896387Y-58741273D01*
X109952973Y-58741273D02*
X111155415Y-58741273D01*
X95292883Y-58982573D02*
X97501399Y-58982573D01*
X109884389Y-58982573D02*
X111116517Y-58982573D01*
X95340224Y-59223873D02*
X97394024Y-59223873D01*
X109670052Y-59223873D02*
X111061252Y-59223873D01*
X95387565Y-59465173D02*
X97388888Y-59465173D01*
X109428752Y-59465173D02*
X111005987Y-59465173D01*
X95438493Y-59706473D02*
X97393992Y-59706473D01*
X109187452Y-59706473D02*
X110950721Y-59706473D01*
X95521108Y-59947773D02*
X97393992Y-59947773D01*
X108946152Y-59947773D02*
X110892063Y-59947773D01*
X95603724Y-60189073D02*
X97393992Y-60189073D01*
X108704852Y-60189073D02*
X110800883Y-60189073D01*
X95686339Y-60430373D02*
X97393992Y-60430373D01*
X108463552Y-60430373D02*
X110709703Y-60430373D01*
X95768955Y-60671673D02*
X97230764Y-60671673D01*
X108222252Y-60671673D02*
X110618524Y-60671673D01*
X95883010Y-60912973D02*
X97118902Y-60912973D01*
X107980952Y-60912973D02*
X110527344Y-60912973D01*
X96004371Y-61154273D02*
X97111536Y-61154273D01*
X107739652Y-61154273D02*
X110402204Y-61154273D01*
X96125732Y-61395573D02*
X97111536Y-61395573D01*
X101402992Y-61395573D02*
X101719000Y-61395573D01*
X107498352Y-61395573D02*
X110271189Y-61395573D01*
X96247093Y-61636873D02*
X97166639Y-61636873D01*
X101161692Y-61636873D02*
X101752767Y-61636873D01*
X107257052Y-61636873D02*
X110140174Y-61636873D01*
X96402269Y-61878173D02*
X97636803Y-61878173D01*
X100920392Y-61878173D02*
X101873672Y-61878173D01*
X106968063Y-61878173D02*
X110009159Y-61878173D01*
X96568110Y-62119473D02*
X97445725Y-62119473D01*
X100679092Y-62119473D02*
X102196109Y-62119473D01*
X102803890Y-62119473D02*
X109838042Y-62119473D01*
X96733951Y-62360773D02*
X97388979Y-62360773D01*
X100437792Y-62360773D02*
X109660789Y-62360773D01*
X96901030Y-62602073D02*
X97432273Y-62602073D01*
X100196492Y-62602073D02*
X109483536Y-62602073D01*
X97120596Y-62843373D02*
X97604329Y-62843373D01*
X99955192Y-62843373D02*
X109294252Y-62843373D01*
X97340162Y-63084673D02*
X97987051Y-63084673D01*
X99713892Y-63084673D02*
X109060416Y-63084673D01*
X97559728Y-63325973D02*
X98267545Y-63325973D01*
X99433397Y-63325973D02*
X108826580Y-63325973D01*
X97825473Y-63567273D02*
X108592744Y-63567273D01*
X98114064Y-63808573D02*
X108288244Y-63808573D01*
X98402656Y-64049873D02*
X107980503Y-64049873D01*
X98764284Y-64291173D02*
X107656136Y-64291173D01*
X99148950Y-64532473D02*
X107243200Y-64532473D01*
X99586100Y-64773773D02*
X106830264Y-64773773D01*
X100120520Y-65015073D02*
X106269739Y-65015073D01*
X100790657Y-65256373D02*
X105641736Y-65256373D01*
X101755009Y-65497673D02*
X104721956Y-65497673D01*
X111244000Y-57600000D02*
X111244000Y-57600000D01*
X111002700Y-55702490D02*
X111002700Y-59479520D01*
X110761400Y-54910771D02*
X110761400Y-60293560D01*
X110520100Y-54284603D02*
X110520100Y-60932141D01*
X110278800Y-53817093D02*
X110278800Y-61381554D01*
X110037500Y-53371737D02*
X110037500Y-61825974D01*
X109796200Y-53028401D02*
X109796200Y-54968469D01*
X109796200Y-59109866D02*
X109796200Y-62176432D01*
X109554900Y-52685066D02*
X109554900Y-54739309D01*
X109554900Y-59339026D02*
X109554900Y-62504922D01*
X109313600Y-52389497D02*
X109313600Y-54498009D01*
X109313600Y-59580326D02*
X109313600Y-62823406D01*
X109072300Y-52129827D02*
X109072300Y-54256709D01*
X109072300Y-59821626D02*
X109072300Y-63072408D01*
X108831000Y-51870157D02*
X108831000Y-54015409D01*
X108831000Y-60062926D02*
X108831000Y-63321411D01*
X108589700Y-51640578D02*
X108589700Y-53774109D01*
X108589700Y-60304226D02*
X108589700Y-63570413D01*
X108348400Y-51443077D02*
X108348400Y-53532809D01*
X108348400Y-60545526D02*
X108348400Y-63761404D01*
X108107100Y-51245575D02*
X108107100Y-53291509D01*
X108107100Y-60786826D02*
X108107100Y-63950607D01*
X107865800Y-51048073D02*
X107865800Y-53050209D01*
X107865800Y-61028126D02*
X107865800Y-64139811D01*
X107624500Y-50898957D02*
X107624500Y-52808909D01*
X107624500Y-61269426D02*
X107624500Y-64309659D01*
X107383200Y-50751089D02*
X107383200Y-52567609D01*
X107383200Y-53998791D02*
X107383200Y-54169013D01*
X107383200Y-61510726D02*
X107383200Y-64450663D01*
X107141900Y-50603220D02*
X107141900Y-52326309D01*
X107141900Y-53757491D02*
X107141900Y-54169013D01*
X107141900Y-61765635D02*
X107141900Y-64591667D01*
X106900600Y-50459897D02*
X106900600Y-52085009D01*
X106900600Y-53516191D02*
X106900600Y-54169013D01*
X106900600Y-61891593D02*
X106900600Y-64732671D01*
X106659300Y-50353974D02*
X106659300Y-51843709D01*
X106659300Y-53274891D02*
X106659300Y-54169013D01*
X106659300Y-61906000D02*
X106659300Y-64853710D01*
X106418000Y-50248051D02*
X106418000Y-51602409D01*
X106418000Y-53033591D02*
X106418000Y-54169013D01*
X106418000Y-61906000D02*
X106418000Y-64953660D01*
X106176700Y-50142127D02*
X106176700Y-51361109D01*
X106176700Y-52792291D02*
X106176700Y-54169013D01*
X106176700Y-61906000D02*
X106176700Y-65053610D01*
X105935400Y-50036204D02*
X105935400Y-51119809D01*
X105935400Y-52550991D02*
X105935400Y-54169013D01*
X105935400Y-61906000D02*
X105935400Y-65153560D01*
X105694100Y-49965836D02*
X105694100Y-50389090D01*
X105694100Y-52309691D02*
X105694100Y-54169013D01*
X105694100Y-61906000D02*
X105694100Y-65242635D01*
X105452800Y-49897100D02*
X105452800Y-50200791D01*
X105452800Y-52068391D02*
X105452800Y-54169013D01*
X105452800Y-61906000D02*
X105452800Y-65305939D01*
X105211500Y-49828364D02*
X105211500Y-50146009D01*
X105211500Y-51827091D02*
X105211500Y-54169013D01*
X105211500Y-61906000D02*
X105211500Y-65369243D01*
X104970200Y-49759628D02*
X104970200Y-50191268D01*
X104970200Y-51585791D02*
X104970200Y-54169013D01*
X104970200Y-61906000D02*
X104970200Y-65432547D01*
X104728900Y-49711351D02*
X104728900Y-50366102D01*
X104728900Y-51305719D02*
X104728900Y-54169013D01*
X104728900Y-61906000D02*
X104728900Y-65495851D01*
X104487600Y-49677009D02*
X104487600Y-54072009D01*
X104487600Y-61906000D02*
X104487600Y-65528104D01*
X104246300Y-49642667D02*
X104246300Y-53830709D01*
X104246300Y-61906000D02*
X104246300Y-65557305D01*
X104005000Y-49608325D02*
X104005000Y-49847981D01*
X104005000Y-50552019D02*
X104005000Y-53589409D01*
X104005000Y-61906000D02*
X104005000Y-65586505D01*
X103763700Y-49577468D02*
X103763700Y-49653297D01*
X103763700Y-50746704D02*
X103763700Y-53348109D01*
X103763700Y-61906000D02*
X103763700Y-65615706D01*
X103522400Y-49576205D02*
X103522400Y-49594000D01*
X103522400Y-50893198D02*
X103522400Y-53106809D01*
X103522400Y-54537991D02*
X103522400Y-54719000D01*
X103522400Y-61906000D02*
X103522400Y-65631428D01*
X103281100Y-49574942D02*
X103281100Y-49634744D01*
X103281100Y-51134498D02*
X103281100Y-52865509D01*
X103281100Y-54296691D02*
X103281100Y-54719000D01*
X103281100Y-61906000D02*
X103281100Y-65627637D01*
X103039800Y-49573678D02*
X103039800Y-49803193D01*
X103039800Y-51375798D02*
X103039800Y-52519639D01*
X103039800Y-54055391D02*
X103039800Y-54719000D01*
X103039800Y-61964701D02*
X103039800Y-65623847D01*
X102798500Y-49572415D02*
X102798500Y-50185914D01*
X102798500Y-51617098D02*
X102798500Y-52267714D01*
X102798500Y-53814091D02*
X102798500Y-54719000D01*
X102798500Y-62121706D02*
X102798500Y-65620056D01*
X102557200Y-49590004D02*
X102557200Y-50427214D01*
X102557200Y-51858398D02*
X102557200Y-52194000D01*
X102557200Y-53572791D02*
X102557200Y-54719000D01*
X102557200Y-62181000D02*
X102557200Y-65616266D01*
X102315900Y-49621772D02*
X102315900Y-50668514D01*
X102315900Y-52099698D02*
X102315900Y-52220327D01*
X102315900Y-53379672D02*
X102315900Y-54719000D01*
X102315900Y-62169091D02*
X102315900Y-65583503D01*
X102074600Y-49653539D02*
X102074600Y-50909814D01*
X102074600Y-52340998D02*
X102074600Y-52368387D01*
X102074600Y-53231613D02*
X102074600Y-54719000D01*
X102074600Y-62069142D02*
X102074600Y-65546578D01*
X101833300Y-49685307D02*
X101833300Y-51151114D01*
X101833300Y-52582298D02*
X101833300Y-54719000D01*
X101833300Y-61831295D02*
X101833300Y-65509654D01*
X101592000Y-49719636D02*
X101592000Y-51392414D01*
X101592000Y-52823598D02*
X101592000Y-54719000D01*
X101592000Y-61206566D02*
X101592000Y-65472730D01*
X101350700Y-49785648D02*
X101350700Y-51633714D01*
X101350700Y-53064898D02*
X101350700Y-54719000D01*
X101350700Y-61447866D02*
X101350700Y-65422266D01*
X101109400Y-49851660D02*
X101109400Y-51875014D01*
X101109400Y-53306191D02*
X101109400Y-54738025D01*
X101109400Y-61689166D02*
X101109400Y-65350790D01*
X100868100Y-49917672D02*
X100868100Y-52116314D01*
X100868100Y-53529423D02*
X100868100Y-54925470D01*
X100868100Y-58635000D02*
X100868100Y-58894000D01*
X100868100Y-61930466D02*
X100868100Y-65279313D01*
X100626800Y-49983684D02*
X100626800Y-52357614D01*
X100626800Y-53610582D02*
X100626800Y-57021950D01*
X100626800Y-57625000D02*
X100626800Y-57875000D01*
X100626800Y-58478050D02*
X100626800Y-58894000D01*
X100626800Y-62171766D02*
X100626800Y-65207837D01*
X100385500Y-50075563D02*
X100385500Y-52594000D01*
X100385500Y-53606000D02*
X100385500Y-58894000D01*
X100385500Y-62413066D02*
X100385500Y-65134717D01*
X100144200Y-50178486D02*
X100144200Y-52594000D01*
X100144200Y-53606000D02*
X100144200Y-56865000D01*
X100144200Y-57625000D02*
X100144200Y-57875000D01*
X100144200Y-58635000D02*
X100144200Y-58894000D01*
X100144200Y-62654366D02*
X100144200Y-65025766D01*
X99902900Y-50281409D02*
X99902900Y-52594000D01*
X99902900Y-53606000D02*
X99902900Y-56956454D01*
X99902900Y-57625000D02*
X99902900Y-57875000D01*
X99902900Y-58543545D02*
X99902900Y-58894000D01*
X99902900Y-62895666D02*
X99902900Y-64916814D01*
X99661600Y-50384333D02*
X99661600Y-52594000D01*
X99661600Y-53606000D02*
X99661600Y-57261187D01*
X99661600Y-57512850D02*
X99661600Y-57987150D01*
X99661600Y-58238812D02*
X99661600Y-58894000D01*
X99661600Y-63136966D02*
X99661600Y-64807863D01*
X99420300Y-50509231D02*
X99420300Y-52594000D01*
X99420300Y-53606000D02*
X99420300Y-57373690D01*
X99420300Y-57373690D02*
X99420300Y-58033750D01*
X99420300Y-58033750D02*
X99420300Y-58894000D01*
X99420300Y-63331865D02*
X99420300Y-64698912D01*
X99179000Y-50653646D02*
X99179000Y-52594000D01*
X99179000Y-53606000D02*
X99179000Y-57373690D01*
X99179000Y-57373690D02*
X99179000Y-58033750D01*
X99179000Y-58033750D02*
X99179000Y-58894000D01*
X99179000Y-63360012D02*
X99179000Y-64551324D01*
X98937700Y-50798061D02*
X98937700Y-52583951D01*
X98937700Y-53616050D02*
X98937700Y-57373690D01*
X98937700Y-57373690D02*
X98937700Y-58033750D01*
X98937700Y-58033750D02*
X98937700Y-58894000D01*
X98937700Y-63360012D02*
X98937700Y-64399957D01*
X98696400Y-50942476D02*
X98696400Y-52494000D01*
X98696400Y-53706000D02*
X98696400Y-57373690D01*
X98696400Y-57373690D02*
X98696400Y-58033750D01*
X98696400Y-58033750D02*
X98696400Y-58894000D01*
X98696400Y-63360012D02*
X98696400Y-64248590D01*
X98455100Y-51118118D02*
X98455100Y-52504089D01*
X98455100Y-53695910D02*
X98455100Y-57373690D01*
X98455100Y-57373690D02*
X98455100Y-58033750D01*
X98455100Y-58033750D02*
X98455100Y-58894000D01*
X98455100Y-63366567D02*
X98455100Y-64093724D01*
X98213800Y-51311436D02*
X98213800Y-52629187D01*
X98213800Y-53570813D02*
X98213800Y-57373690D01*
X98213800Y-57373690D02*
X98213800Y-58033750D01*
X98213800Y-58033750D02*
X98213800Y-58773581D01*
X98213800Y-63290061D02*
X98213800Y-63891966D01*
X97972500Y-51504753D02*
X97972500Y-52979459D01*
X97972500Y-52979459D02*
X97972500Y-57373690D01*
X97972500Y-57373690D02*
X97972500Y-58033750D01*
X97972500Y-58033750D02*
X97972500Y-58734961D01*
X97972500Y-63070122D02*
X97972500Y-63690208D01*
X97731200Y-51704137D02*
X97731200Y-52979459D01*
X97731200Y-52979459D02*
X97731200Y-57373690D01*
X97731200Y-57373690D02*
X97731200Y-58033750D01*
X97731200Y-58033750D02*
X97731200Y-58796381D01*
X97731200Y-62923678D02*
X97731200Y-63488449D01*
X97489900Y-51958413D02*
X97489900Y-52979459D01*
X97489900Y-52979459D02*
X97489900Y-55752071D01*
X97489900Y-58747930D02*
X97489900Y-58994072D01*
X97489900Y-61836454D02*
X97489900Y-62025076D01*
X97489900Y-62728944D02*
X97489900Y-63249234D01*
X97248600Y-52212690D02*
X97248600Y-52979459D01*
X97248600Y-52979459D02*
X97248600Y-55661536D01*
X97248600Y-58838464D02*
X97248600Y-60659754D01*
X97248600Y-61740245D02*
X97248600Y-62984049D01*
X97007300Y-52466967D02*
X97007300Y-52979459D01*
X97007300Y-52979459D02*
X97007300Y-55594000D01*
X97007300Y-58838464D02*
X97007300Y-60950000D01*
X97007300Y-60950000D02*
X97007300Y-62718864D01*
X96766000Y-52800978D02*
X96766000Y-52979459D01*
X96766000Y-52979459D02*
X96766000Y-55599574D01*
X96766000Y-58838464D02*
X96766000Y-60950000D01*
X96766000Y-60950000D02*
X96766000Y-62407406D01*
X96524700Y-53136783D02*
X96524700Y-55595723D01*
X96524700Y-58838464D02*
X96524700Y-60950000D01*
X96524700Y-60950000D02*
X96524700Y-62056312D01*
X96283400Y-53512381D02*
X96283400Y-55594000D01*
X96283400Y-58838464D02*
X96283400Y-60950000D01*
X96283400Y-60950000D02*
X96283400Y-61705219D01*
X96042100Y-53968117D02*
X96042100Y-55602931D01*
X96042100Y-58838464D02*
X96042100Y-60950000D01*
X96042100Y-60950000D02*
X96042100Y-61229291D01*
X95800800Y-54466591D02*
X95800800Y-55594000D01*
X95800800Y-58838464D02*
X95800800Y-60749519D01*
X95559500Y-55125976D02*
X95559500Y-55685110D01*
X95559500Y-58780936D02*
X95559500Y-60059908D01*
X95318200Y-56378964D02*
X95318200Y-56521035D01*
X95318200Y-56878964D02*
X95318200Y-57021035D01*
X95318200Y-57378964D02*
X95318200Y-57521035D01*
X95318200Y-57878964D02*
X95318200Y-59111619D01*
X98405992Y-59906000D02*
X100939644Y-59906000D01*
X98405992Y-60147300D02*
X101147166Y-60147300D01*
X98405992Y-60388600D02*
X100978783Y-60388600D01*
X98407204Y-60629900D02*
X100737483Y-60629900D01*
X98719729Y-60871200D02*
X100496183Y-60871200D01*
X98805992Y-61112500D02*
X100254883Y-61112500D01*
X98792215Y-61353800D02*
X100013583Y-61353800D01*
X98661905Y-61595100D02*
X99772283Y-61595100D01*
X98273385Y-61836400D02*
X99530983Y-61836400D01*
X98526931Y-62077700D02*
X99289683Y-62077700D01*
X98652560Y-62319000D02*
X99048383Y-62319000D01*
X102178409Y-60194000D02*
X102178409Y-60194000D01*
X101937109Y-60181000D02*
X101937109Y-60194000D01*
X101695809Y-60181000D02*
X101695809Y-60194000D01*
X101454509Y-60181000D02*
X101454509Y-60194000D01*
X101213209Y-60163736D02*
X101213209Y-60217855D01*
X100971909Y-59981581D02*
X100971909Y-60395473D01*
X100730609Y-59906000D02*
X100730609Y-60636773D01*
X100489309Y-59906000D02*
X100489309Y-60878073D01*
X100248009Y-59906000D02*
X100248009Y-61119373D01*
X100006709Y-59906000D02*
X100006709Y-61360673D01*
X99765409Y-59906000D02*
X99765409Y-61601973D01*
X99524109Y-59906000D02*
X99524109Y-61843273D01*
X99282809Y-59906000D02*
X99282809Y-62084573D01*
X99041509Y-59906000D02*
X99041509Y-62325873D01*
X98800209Y-59906000D02*
X98800209Y-61065498D01*
X98800209Y-61334503D02*
X98800209Y-62348012D01*
X98558909Y-59906000D02*
X98558909Y-60701904D01*
X98558909Y-61698096D02*
X98558909Y-62154904D01*
X98317609Y-61806000D02*
X98317609Y-61854719D01*
D18*
X100948002Y-59945802D02*
X101030592Y-60069408D01*
X101154198Y-60151998D01*
X101300000Y-60181000D01*
X102165409Y-60181000D01*
X102178409Y-60194000D01*
X101432808Y-60194000D01*
X101382974Y-60184087D01*
X101333140Y-60194000D01*
X101333139Y-60194000D01*
X101185543Y-60223359D01*
X101018168Y-60335194D01*
X100989937Y-60377445D01*
X99019371Y-62348012D01*
X98681572Y-62348012D01*
X98600979Y-62267419D01*
X98600979Y-62256469D01*
X98508721Y-62033739D01*
X98338250Y-61863268D01*
X98220501Y-61814495D01*
X98248659Y-61808894D01*
X98252990Y-61806000D01*
X98320533Y-61806000D01*
X98543263Y-61713742D01*
X98713734Y-61543271D01*
X98805992Y-61320541D01*
X98805992Y-61079459D01*
X98713734Y-60856729D01*
X98543263Y-60686258D01*
X98405992Y-60629398D01*
X98405992Y-59906000D01*
X100939644Y-59906000D01*
X100948002Y-59945802D01*
D17*
G04 #@! TO.N,+BATT*
X101329731Y-55227000D02*
X105015987Y-55227000D01*
X101334866Y-55468300D02*
X104898623Y-55468300D01*
X101340000Y-55709600D02*
X104894000Y-55709600D01*
X101345134Y-55950900D02*
X104993887Y-55950900D01*
X106006113Y-55950900D02*
X106193887Y-55950900D01*
X101350268Y-56192200D02*
X105346142Y-56192200D01*
X105653857Y-56192200D02*
X106546142Y-56192200D01*
X106853857Y-56192200D02*
X107376608Y-56192200D01*
X101355402Y-56433500D02*
X107617908Y-56433500D01*
X101360536Y-56674800D02*
X107859208Y-56674800D01*
X101365670Y-56916100D02*
X108100508Y-56916100D01*
X101370804Y-57157400D02*
X108173000Y-57157400D01*
X101375938Y-57398700D02*
X108173000Y-57398700D01*
X101381072Y-57640000D02*
X108173000Y-57640000D01*
X101386206Y-57881300D02*
X108173000Y-57881300D01*
X101391340Y-58122600D02*
X108173000Y-58122600D01*
X101396474Y-58363900D02*
X108032495Y-58363900D01*
X101401608Y-58605200D02*
X107791195Y-58605200D01*
X101406742Y-58846500D02*
X101596487Y-58846500D01*
X102403513Y-58846500D02*
X107549895Y-58846500D01*
X101411876Y-59087800D02*
X101431967Y-59087800D01*
X102568034Y-59087800D02*
X107308595Y-59087800D01*
X102744692Y-59329100D02*
X107067295Y-59329100D01*
X102985992Y-59570400D02*
X106825995Y-59570400D01*
X108173000Y-56988591D02*
X108173000Y-58223394D01*
X107931700Y-56747291D02*
X107931700Y-58464694D01*
X107690400Y-56505991D02*
X107690400Y-58705994D01*
X107449100Y-56264691D02*
X107449100Y-58947294D01*
X107207800Y-56106000D02*
X107207800Y-59188594D01*
X106966500Y-56145542D02*
X106966500Y-59429894D01*
X106725200Y-56206000D02*
X106725200Y-59646001D01*
X106483900Y-56166418D02*
X106483900Y-59646001D01*
X106242600Y-55999613D02*
X106242600Y-59646001D01*
X106001300Y-55955713D02*
X106001300Y-59646001D01*
X105760000Y-56148235D02*
X105760000Y-59646001D01*
X105518700Y-56206000D02*
X105518700Y-59646001D01*
X105277400Y-56163725D02*
X105277400Y-59646001D01*
X105036100Y-55993113D02*
X105036100Y-59646001D01*
X104794800Y-55227000D02*
X104794800Y-59646001D01*
X104553500Y-55227000D02*
X104553500Y-59646001D01*
X104312200Y-55227000D02*
X104312200Y-59646001D01*
X104070900Y-55227000D02*
X104070900Y-59646001D01*
X103829600Y-55227000D02*
X103829600Y-59646001D01*
X103588300Y-55227000D02*
X103588300Y-59646001D01*
X103347000Y-55227000D02*
X103347000Y-59646001D01*
X103105700Y-55227000D02*
X103105700Y-59646001D01*
X102864400Y-55227000D02*
X102864400Y-59448809D01*
X102623100Y-55227000D02*
X102623100Y-59207509D01*
X102381800Y-55227000D02*
X102381800Y-58824787D01*
X102140500Y-55227000D02*
X102140500Y-58702268D01*
X101899200Y-55227000D02*
X101899200Y-58694000D01*
X101657900Y-55227000D02*
X101657900Y-58785772D01*
X101416600Y-55227000D02*
X101416600Y-59124898D01*
D18*
X104986258Y-55256729D02*
X104894000Y-55479459D01*
X104894000Y-55720541D01*
X104986258Y-55943271D01*
X105156729Y-56113742D01*
X105379459Y-56206000D01*
X105620541Y-56206000D01*
X105843271Y-56113742D01*
X106013742Y-55943271D01*
X106043032Y-55872559D01*
X106123597Y-55791994D01*
X106186258Y-55943271D01*
X106356729Y-56113742D01*
X106579459Y-56206000D01*
X106820541Y-56206000D01*
X107043271Y-56113742D01*
X107051013Y-56106000D01*
X107290409Y-56106000D01*
X108173000Y-56988592D01*
X108173000Y-58223394D01*
X106750394Y-59646001D01*
X103061593Y-59646001D01*
X102606000Y-59190409D01*
X102606000Y-59179459D01*
X102513742Y-58956729D01*
X102343271Y-58786258D01*
X102120541Y-58694000D01*
X101879459Y-58694000D01*
X101656729Y-58786258D01*
X101486258Y-58956729D01*
X101412857Y-59133935D01*
X101329731Y-55227000D01*
X105015987Y-55227000D01*
X104986258Y-55256729D01*
G04 #@! TD*
M02*
