G04 #@! TF.GenerationSoftware,KiCad,Pcbnew,(5.0.1)-4*
G04 #@! TF.CreationDate,2019-01-02T07:29:33-05:00*
G04 #@! TF.ProjectId,XHP70_LED_driver,58485037305F4C45445F647269766572,rev?*
G04 #@! TF.SameCoordinates,Original*
G04 #@! TF.FileFunction,Paste,Top*
G04 #@! TF.FilePolarity,Positive*
%FSLAX46Y46*%
G04 Gerber Fmt 4.6, Leading zero omitted, Abs format (unit mm)*
G04 Created by KiCad (PCBNEW (5.0.1)-4) date 1/2/2019 7:29:33 AM*
%MOMM*%
%LPD*%
G01*
G04 APERTURE LIST*
%ADD10R,0.600000X0.500000*%
%ADD11R,1.000000X1.250000*%
%ADD12R,2.500000X1.000000*%
%ADD13R,1.300000X0.700000*%
%ADD14R,0.700000X0.600000*%
%ADD15R,0.500000X0.600000*%
%ADD16R,0.600000X0.400000*%
%ADD17R,0.555000X0.555000*%
%ADD18O,0.200000X0.750000*%
%ADD19O,0.750000X0.200000*%
%ADD20R,0.650000X1.060000*%
%ADD21R,0.240000X0.600000*%
%ADD22R,0.600000X0.240000*%
%ADD23R,3.000000X1.000000*%
%ADD24R,0.400000X0.600000*%
G04 APERTURE END LIST*
D10*
G04 #@! TO.C,C1*
X96050000Y-58200000D03*
X97150000Y-58200000D03*
G04 #@! TD*
D11*
G04 #@! TO.C,C5*
X109700000Y-56300000D03*
X107700000Y-56300000D03*
G04 #@! TD*
D12*
G04 #@! TO.C,C11*
X104600000Y-58400000D03*
X104600000Y-61400000D03*
G04 #@! TD*
D13*
G04 #@! TO.C,R6*
X101400000Y-60300000D03*
X101400000Y-62200000D03*
G04 #@! TD*
D14*
G04 #@! TO.C,D1*
X109700000Y-57900000D03*
X109700000Y-59300000D03*
G04 #@! TD*
D15*
G04 #@! TO.C,C6*
X96700000Y-61150000D03*
X96700000Y-60050000D03*
G04 #@! TD*
G04 #@! TO.C,C7*
X103000000Y-53850000D03*
X103000000Y-52750000D03*
G04 #@! TD*
D16*
G04 #@! TO.C,R3*
X106800000Y-60050000D03*
X106800000Y-60950000D03*
G04 #@! TD*
D17*
G04 #@! TO.C,U2*
X106062500Y-53562500D03*
X106062500Y-52637500D03*
X105137500Y-53562500D03*
X105137500Y-52637500D03*
D18*
X106400000Y-54600000D03*
X106000000Y-54600000D03*
X105600000Y-54600000D03*
X105200000Y-54600000D03*
X104800000Y-54600000D03*
D19*
X104100000Y-53900000D03*
X104100000Y-53500000D03*
X104100000Y-53100000D03*
X104100000Y-52700000D03*
X104100000Y-52300000D03*
D18*
X104800000Y-51600000D03*
X105200000Y-51600000D03*
X105600000Y-51600000D03*
X106000000Y-51600000D03*
X106400000Y-51600000D03*
D19*
X107100000Y-52300000D03*
X107100000Y-52700000D03*
X107100000Y-53100000D03*
X107100000Y-53500000D03*
X107100000Y-53900000D03*
G04 #@! TD*
D20*
G04 #@! TO.C,U3*
X99000000Y-60600000D03*
X98050000Y-60600000D03*
X99950000Y-60600000D03*
X99950000Y-62800000D03*
X99000000Y-62800000D03*
X98050000Y-62800000D03*
G04 #@! TD*
D21*
G04 #@! TO.C,U1*
X99000000Y-54850000D03*
X99000000Y-59150000D03*
D22*
X98100000Y-56750000D03*
X98100000Y-57250000D03*
X98100000Y-57750000D03*
X98100000Y-58250000D03*
X98100000Y-56250000D03*
X98100000Y-55750000D03*
X98100000Y-55250000D03*
X98100000Y-58750000D03*
D21*
X100500000Y-54850000D03*
X100500000Y-59150000D03*
D22*
X101400000Y-57750000D03*
X101400000Y-55250000D03*
X101400000Y-58750000D03*
X101400000Y-57250000D03*
X101400000Y-58250000D03*
X101400000Y-56250000D03*
X101400000Y-56750000D03*
X101400000Y-55750000D03*
D21*
X100000000Y-59150000D03*
X100000000Y-54850000D03*
X99500000Y-59150000D03*
X99500000Y-54850000D03*
G04 #@! TD*
D23*
G04 #@! TO.C,TP1*
X104400000Y-57100000D03*
G04 #@! TD*
G04 #@! TO.C,TP2*
X104600000Y-62700000D03*
G04 #@! TD*
D10*
G04 #@! TO.C,C4*
X98550000Y-53900000D03*
X99650000Y-53900000D03*
G04 #@! TD*
G04 #@! TO.C,C3*
X96050000Y-59100000D03*
X97150000Y-59100000D03*
G04 #@! TD*
D15*
G04 #@! TO.C,C8*
X102100000Y-53850000D03*
X102100000Y-52750000D03*
G04 #@! TD*
D24*
G04 #@! TO.C,R1*
X97150000Y-55400000D03*
X96250000Y-55400000D03*
G04 #@! TD*
D16*
G04 #@! TO.C,R2*
X106800000Y-59250000D03*
X106800000Y-58350000D03*
G04 #@! TD*
G04 #@! TO.C,R5*
X102900000Y-54750000D03*
X102900000Y-55650000D03*
G04 #@! TD*
D15*
G04 #@! TO.C,C10*
X102700000Y-59150000D03*
X102700000Y-60250000D03*
G04 #@! TD*
D16*
G04 #@! TO.C,R4*
X101100000Y-54250000D03*
X101100000Y-53350000D03*
G04 #@! TD*
M02*
