G04 #@! TF.GenerationSoftware,KiCad,Pcbnew,(5.0.1)-4*
G04 #@! TF.CreationDate,2019-01-02T12:26:21-05:00*
G04 #@! TF.ProjectId,XHP70_LED_driver,58485037305F4C45445F647269766572,rev?*
G04 #@! TF.SameCoordinates,Original*
G04 #@! TF.FileFunction,Legend,Top*
G04 #@! TF.FilePolarity,Positive*
%FSLAX46Y46*%
G04 Gerber Fmt 4.6, Leading zero omitted, Abs format (unit mm)*
G04 Created by KiCad (PCBNEW (5.0.1)-4) date 1/2/2019 12:26:21 PM*
%MOMM*%
%LPD*%
G01*
G04 APERTURE LIST*
%ADD10C,0.150000*%
%ADD11C,0.120000*%
%ADD12C,0.100000*%
G04 APERTURE END LIST*
D10*
G04 #@! TO.C,U2*
X103387500Y-54962500D02*
X103887500Y-54962500D01*
X103387500Y-51712500D02*
X103887500Y-51712500D01*
X106637500Y-51712500D02*
X106137500Y-51712500D01*
X106637500Y-54962500D02*
X106137500Y-54962500D01*
X103387500Y-51712500D02*
X103387500Y-52212500D01*
X106637500Y-51712500D02*
X106637500Y-52212500D01*
X103387500Y-54962500D02*
X103387500Y-54462500D01*
D11*
G04 #@! TO.C,C1*
X96800000Y-57730000D02*
X96300000Y-57730000D01*
X96300000Y-58670000D02*
X96800000Y-58670000D01*
G04 #@! TO.C,C5*
X108200000Y-57250000D02*
X109200000Y-57250000D01*
X109200000Y-55550000D02*
X108200000Y-55550000D01*
G04 #@! TO.C,C11*
X106080000Y-60900000D02*
X106080000Y-58900000D01*
X103120000Y-58900000D02*
X103120000Y-60900000D01*
G04 #@! TO.C,R6*
X100520000Y-61850000D02*
X100520000Y-60650000D01*
X102280000Y-60650000D02*
X102280000Y-61850000D01*
G04 #@! TO.C,D1*
X109100000Y-59300000D02*
X109100000Y-57450000D01*
X110300000Y-59300000D02*
X110300000Y-57450000D01*
X110300000Y-57450000D02*
X109100000Y-57450000D01*
G04 #@! TO.C,C6*
X96280000Y-60300000D02*
X96280000Y-60800000D01*
X97220000Y-60800000D02*
X97220000Y-60300000D01*
G04 #@! TO.C,C7*
X100050000Y-51920000D02*
X100550000Y-51920000D01*
X100550000Y-50980000D02*
X100050000Y-50980000D01*
G04 #@! TO.C,U3*
X97390000Y-60800000D02*
X97390000Y-63250000D01*
X100610000Y-62600000D02*
X100610000Y-60800000D01*
G04 #@! TO.C,C4*
X99300000Y-53380000D02*
X98800000Y-53380000D01*
X98800000Y-54320000D02*
X99300000Y-54320000D01*
G04 #@! TO.C,C3*
X96800000Y-58530000D02*
X96300000Y-58530000D01*
X96300000Y-59470000D02*
X96800000Y-59470000D01*
G04 #@! TO.C,C8*
X100050000Y-52820000D02*
X100550000Y-52820000D01*
X100550000Y-51880000D02*
X100050000Y-51880000D01*
G04 #@! TO.C,C10*
X103170000Y-59950000D02*
X103170000Y-59450000D01*
X102230000Y-59450000D02*
X102230000Y-59950000D01*
G04 #@! TO.C,U1*
D12*
X99369047Y-60226190D02*
X99369047Y-60630952D01*
X99392857Y-60678571D01*
X99416666Y-60702380D01*
X99464285Y-60726190D01*
X99559523Y-60726190D01*
X99607142Y-60702380D01*
X99630952Y-60678571D01*
X99654761Y-60630952D01*
X99654761Y-60226190D01*
X100154761Y-60726190D02*
X99869047Y-60726190D01*
X100011904Y-60726190D02*
X100011904Y-60226190D01*
X99964285Y-60297619D01*
X99916666Y-60345238D01*
X99869047Y-60369047D01*
G04 #@! TO.C,U2*
X103469047Y-50826190D02*
X103469047Y-51230952D01*
X103492857Y-51278571D01*
X103516666Y-51302380D01*
X103564285Y-51326190D01*
X103659523Y-51326190D01*
X103707142Y-51302380D01*
X103730952Y-51278571D01*
X103754761Y-51230952D01*
X103754761Y-50826190D01*
X103969047Y-50873809D02*
X103992857Y-50850000D01*
X104040476Y-50826190D01*
X104159523Y-50826190D01*
X104207142Y-50850000D01*
X104230952Y-50873809D01*
X104254761Y-50921428D01*
X104254761Y-50969047D01*
X104230952Y-51040476D01*
X103945238Y-51326190D01*
X104254761Y-51326190D01*
G04 #@! TO.C,C1*
X95066666Y-58078571D02*
X95042857Y-58102380D01*
X94971428Y-58126190D01*
X94923809Y-58126190D01*
X94852380Y-58102380D01*
X94804761Y-58054761D01*
X94780952Y-58007142D01*
X94757142Y-57911904D01*
X94757142Y-57840476D01*
X94780952Y-57745238D01*
X94804761Y-57697619D01*
X94852380Y-57650000D01*
X94923809Y-57626190D01*
X94971428Y-57626190D01*
X95042857Y-57650000D01*
X95066666Y-57673809D01*
X95542857Y-58126190D02*
X95257142Y-58126190D01*
X95400000Y-58126190D02*
X95400000Y-57626190D01*
X95352380Y-57697619D01*
X95304761Y-57745238D01*
X95257142Y-57769047D01*
G04 #@! TO.C,C5*
X108766666Y-55278571D02*
X108742857Y-55302380D01*
X108671428Y-55326190D01*
X108623809Y-55326190D01*
X108552380Y-55302380D01*
X108504761Y-55254761D01*
X108480952Y-55207142D01*
X108457142Y-55111904D01*
X108457142Y-55040476D01*
X108480952Y-54945238D01*
X108504761Y-54897619D01*
X108552380Y-54850000D01*
X108623809Y-54826190D01*
X108671428Y-54826190D01*
X108742857Y-54850000D01*
X108766666Y-54873809D01*
X109219047Y-54826190D02*
X108980952Y-54826190D01*
X108957142Y-55064285D01*
X108980952Y-55040476D01*
X109028571Y-55016666D01*
X109147619Y-55016666D01*
X109195238Y-55040476D01*
X109219047Y-55064285D01*
X109242857Y-55111904D01*
X109242857Y-55230952D01*
X109219047Y-55278571D01*
X109195238Y-55302380D01*
X109147619Y-55326190D01*
X109028571Y-55326190D01*
X108980952Y-55302380D01*
X108957142Y-55278571D01*
G04 #@! TO.C,C11*
X106128571Y-57778571D02*
X106104761Y-57802380D01*
X106033333Y-57826190D01*
X105985714Y-57826190D01*
X105914285Y-57802380D01*
X105866666Y-57754761D01*
X105842857Y-57707142D01*
X105819047Y-57611904D01*
X105819047Y-57540476D01*
X105842857Y-57445238D01*
X105866666Y-57397619D01*
X105914285Y-57350000D01*
X105985714Y-57326190D01*
X106033333Y-57326190D01*
X106104761Y-57350000D01*
X106128571Y-57373809D01*
X106604761Y-57826190D02*
X106319047Y-57826190D01*
X106461904Y-57826190D02*
X106461904Y-57326190D01*
X106414285Y-57397619D01*
X106366666Y-57445238D01*
X106319047Y-57469047D01*
X107080952Y-57826190D02*
X106795238Y-57826190D01*
X106938095Y-57826190D02*
X106938095Y-57326190D01*
X106890476Y-57397619D01*
X106842857Y-57445238D01*
X106795238Y-57469047D01*
G04 #@! TO.C,R6*
X101316666Y-63276190D02*
X101150000Y-63038095D01*
X101030952Y-63276190D02*
X101030952Y-62776190D01*
X101221428Y-62776190D01*
X101269047Y-62800000D01*
X101292857Y-62823809D01*
X101316666Y-62871428D01*
X101316666Y-62942857D01*
X101292857Y-62990476D01*
X101269047Y-63014285D01*
X101221428Y-63038095D01*
X101030952Y-63038095D01*
X101745238Y-62776190D02*
X101650000Y-62776190D01*
X101602380Y-62800000D01*
X101578571Y-62823809D01*
X101530952Y-62895238D01*
X101507142Y-62990476D01*
X101507142Y-63180952D01*
X101530952Y-63228571D01*
X101554761Y-63252380D01*
X101602380Y-63276190D01*
X101697619Y-63276190D01*
X101745238Y-63252380D01*
X101769047Y-63228571D01*
X101792857Y-63180952D01*
X101792857Y-63061904D01*
X101769047Y-63014285D01*
X101745238Y-62990476D01*
X101697619Y-62966666D01*
X101602380Y-62966666D01*
X101554761Y-62990476D01*
X101530952Y-63014285D01*
X101507142Y-63061904D01*
G04 #@! TO.C,D1*
X108180952Y-57926190D02*
X108180952Y-57426190D01*
X108300000Y-57426190D01*
X108371428Y-57450000D01*
X108419047Y-57497619D01*
X108442857Y-57545238D01*
X108466666Y-57640476D01*
X108466666Y-57711904D01*
X108442857Y-57807142D01*
X108419047Y-57854761D01*
X108371428Y-57902380D01*
X108300000Y-57926190D01*
X108180952Y-57926190D01*
X108942857Y-57926190D02*
X108657142Y-57926190D01*
X108800000Y-57926190D02*
X108800000Y-57426190D01*
X108752380Y-57497619D01*
X108704761Y-57545238D01*
X108657142Y-57569047D01*
G04 #@! TO.C,C6*
X95716666Y-60128571D02*
X95692857Y-60152380D01*
X95621428Y-60176190D01*
X95573809Y-60176190D01*
X95502380Y-60152380D01*
X95454761Y-60104761D01*
X95430952Y-60057142D01*
X95407142Y-59961904D01*
X95407142Y-59890476D01*
X95430952Y-59795238D01*
X95454761Y-59747619D01*
X95502380Y-59700000D01*
X95573809Y-59676190D01*
X95621428Y-59676190D01*
X95692857Y-59700000D01*
X95716666Y-59723809D01*
X96145238Y-59676190D02*
X96050000Y-59676190D01*
X96002380Y-59700000D01*
X95978571Y-59723809D01*
X95930952Y-59795238D01*
X95907142Y-59890476D01*
X95907142Y-60080952D01*
X95930952Y-60128571D01*
X95954761Y-60152380D01*
X96002380Y-60176190D01*
X96097619Y-60176190D01*
X96145238Y-60152380D01*
X96169047Y-60128571D01*
X96192857Y-60080952D01*
X96192857Y-59961904D01*
X96169047Y-59914285D01*
X96145238Y-59890476D01*
X96097619Y-59866666D01*
X96002380Y-59866666D01*
X95954761Y-59890476D01*
X95930952Y-59914285D01*
X95907142Y-59961904D01*
G04 #@! TO.C,C7*
X98766666Y-51728571D02*
X98742857Y-51752380D01*
X98671428Y-51776190D01*
X98623809Y-51776190D01*
X98552380Y-51752380D01*
X98504761Y-51704761D01*
X98480952Y-51657142D01*
X98457142Y-51561904D01*
X98457142Y-51490476D01*
X98480952Y-51395238D01*
X98504761Y-51347619D01*
X98552380Y-51300000D01*
X98623809Y-51276190D01*
X98671428Y-51276190D01*
X98742857Y-51300000D01*
X98766666Y-51323809D01*
X98933333Y-51276190D02*
X99266666Y-51276190D01*
X99052380Y-51776190D01*
G04 #@! TO.C,R3*
X107616666Y-60726190D02*
X107450000Y-60488095D01*
X107330952Y-60726190D02*
X107330952Y-60226190D01*
X107521428Y-60226190D01*
X107569047Y-60250000D01*
X107592857Y-60273809D01*
X107616666Y-60321428D01*
X107616666Y-60392857D01*
X107592857Y-60440476D01*
X107569047Y-60464285D01*
X107521428Y-60488095D01*
X107330952Y-60488095D01*
X107783333Y-60226190D02*
X108092857Y-60226190D01*
X107926190Y-60416666D01*
X107997619Y-60416666D01*
X108045238Y-60440476D01*
X108069047Y-60464285D01*
X108092857Y-60511904D01*
X108092857Y-60630952D01*
X108069047Y-60678571D01*
X108045238Y-60702380D01*
X107997619Y-60726190D01*
X107854761Y-60726190D01*
X107807142Y-60702380D01*
X107783333Y-60678571D01*
G04 #@! TO.C,U3*
X97119047Y-59476190D02*
X97119047Y-59880952D01*
X97142857Y-59928571D01*
X97166666Y-59952380D01*
X97214285Y-59976190D01*
X97309523Y-59976190D01*
X97357142Y-59952380D01*
X97380952Y-59928571D01*
X97404761Y-59880952D01*
X97404761Y-59476190D01*
X97595238Y-59476190D02*
X97904761Y-59476190D01*
X97738095Y-59666666D01*
X97809523Y-59666666D01*
X97857142Y-59690476D01*
X97880952Y-59714285D01*
X97904761Y-59761904D01*
X97904761Y-59880952D01*
X97880952Y-59928571D01*
X97857142Y-59952380D01*
X97809523Y-59976190D01*
X97666666Y-59976190D01*
X97619047Y-59952380D01*
X97595238Y-59928571D01*
G04 #@! TO.C,C4*
X97516666Y-54028571D02*
X97492857Y-54052380D01*
X97421428Y-54076190D01*
X97373809Y-54076190D01*
X97302380Y-54052380D01*
X97254761Y-54004761D01*
X97230952Y-53957142D01*
X97207142Y-53861904D01*
X97207142Y-53790476D01*
X97230952Y-53695238D01*
X97254761Y-53647619D01*
X97302380Y-53600000D01*
X97373809Y-53576190D01*
X97421428Y-53576190D01*
X97492857Y-53600000D01*
X97516666Y-53623809D01*
X97945238Y-53742857D02*
X97945238Y-54076190D01*
X97826190Y-53552380D02*
X97707142Y-53909523D01*
X98016666Y-53909523D01*
G04 #@! TO.C,C3*
X95116666Y-58878571D02*
X95092857Y-58902380D01*
X95021428Y-58926190D01*
X94973809Y-58926190D01*
X94902380Y-58902380D01*
X94854761Y-58854761D01*
X94830952Y-58807142D01*
X94807142Y-58711904D01*
X94807142Y-58640476D01*
X94830952Y-58545238D01*
X94854761Y-58497619D01*
X94902380Y-58450000D01*
X94973809Y-58426190D01*
X95021428Y-58426190D01*
X95092857Y-58450000D01*
X95116666Y-58473809D01*
X95283333Y-58426190D02*
X95592857Y-58426190D01*
X95426190Y-58616666D01*
X95497619Y-58616666D01*
X95545238Y-58640476D01*
X95569047Y-58664285D01*
X95592857Y-58711904D01*
X95592857Y-58830952D01*
X95569047Y-58878571D01*
X95545238Y-58902380D01*
X95497619Y-58926190D01*
X95354761Y-58926190D01*
X95307142Y-58902380D01*
X95283333Y-58878571D01*
G04 #@! TO.C,C8*
X98766666Y-52528571D02*
X98742857Y-52552380D01*
X98671428Y-52576190D01*
X98623809Y-52576190D01*
X98552380Y-52552380D01*
X98504761Y-52504761D01*
X98480952Y-52457142D01*
X98457142Y-52361904D01*
X98457142Y-52290476D01*
X98480952Y-52195238D01*
X98504761Y-52147619D01*
X98552380Y-52100000D01*
X98623809Y-52076190D01*
X98671428Y-52076190D01*
X98742857Y-52100000D01*
X98766666Y-52123809D01*
X99052380Y-52290476D02*
X99004761Y-52266666D01*
X98980952Y-52242857D01*
X98957142Y-52195238D01*
X98957142Y-52171428D01*
X98980952Y-52123809D01*
X99004761Y-52100000D01*
X99052380Y-52076190D01*
X99147619Y-52076190D01*
X99195238Y-52100000D01*
X99219047Y-52123809D01*
X99242857Y-52171428D01*
X99242857Y-52195238D01*
X99219047Y-52242857D01*
X99195238Y-52266666D01*
X99147619Y-52290476D01*
X99052380Y-52290476D01*
X99004761Y-52314285D01*
X98980952Y-52338095D01*
X98957142Y-52385714D01*
X98957142Y-52480952D01*
X98980952Y-52528571D01*
X99004761Y-52552380D01*
X99052380Y-52576190D01*
X99147619Y-52576190D01*
X99195238Y-52552380D01*
X99219047Y-52528571D01*
X99242857Y-52480952D01*
X99242857Y-52385714D01*
X99219047Y-52338095D01*
X99195238Y-52314285D01*
X99147619Y-52290476D01*
G04 #@! TO.C,R1*
X96616666Y-54826190D02*
X96450000Y-54588095D01*
X96330952Y-54826190D02*
X96330952Y-54326190D01*
X96521428Y-54326190D01*
X96569047Y-54350000D01*
X96592857Y-54373809D01*
X96616666Y-54421428D01*
X96616666Y-54492857D01*
X96592857Y-54540476D01*
X96569047Y-54564285D01*
X96521428Y-54588095D01*
X96330952Y-54588095D01*
X97092857Y-54826190D02*
X96807142Y-54826190D01*
X96950000Y-54826190D02*
X96950000Y-54326190D01*
X96902380Y-54397619D01*
X96854761Y-54445238D01*
X96807142Y-54469047D01*
G04 #@! TO.C,R2*
X107616666Y-59026190D02*
X107450000Y-58788095D01*
X107330952Y-59026190D02*
X107330952Y-58526190D01*
X107521428Y-58526190D01*
X107569047Y-58550000D01*
X107592857Y-58573809D01*
X107616666Y-58621428D01*
X107616666Y-58692857D01*
X107592857Y-58740476D01*
X107569047Y-58764285D01*
X107521428Y-58788095D01*
X107330952Y-58788095D01*
X107807142Y-58573809D02*
X107830952Y-58550000D01*
X107878571Y-58526190D01*
X107997619Y-58526190D01*
X108045238Y-58550000D01*
X108069047Y-58573809D01*
X108092857Y-58621428D01*
X108092857Y-58669047D01*
X108069047Y-58740476D01*
X107783333Y-59026190D01*
X108092857Y-59026190D01*
G04 #@! TO.C,R5*
X101716666Y-51076190D02*
X101550000Y-50838095D01*
X101430952Y-51076190D02*
X101430952Y-50576190D01*
X101621428Y-50576190D01*
X101669047Y-50600000D01*
X101692857Y-50623809D01*
X101716666Y-50671428D01*
X101716666Y-50742857D01*
X101692857Y-50790476D01*
X101669047Y-50814285D01*
X101621428Y-50838095D01*
X101430952Y-50838095D01*
X102169047Y-50576190D02*
X101930952Y-50576190D01*
X101907142Y-50814285D01*
X101930952Y-50790476D01*
X101978571Y-50766666D01*
X102097619Y-50766666D01*
X102145238Y-50790476D01*
X102169047Y-50814285D01*
X102192857Y-50861904D01*
X102192857Y-50980952D01*
X102169047Y-51028571D01*
X102145238Y-51052380D01*
X102097619Y-51076190D01*
X101978571Y-51076190D01*
X101930952Y-51052380D01*
X101907142Y-51028571D01*
G04 #@! TO.C,C10*
X102178571Y-58578571D02*
X102154761Y-58602380D01*
X102083333Y-58626190D01*
X102035714Y-58626190D01*
X101964285Y-58602380D01*
X101916666Y-58554761D01*
X101892857Y-58507142D01*
X101869047Y-58411904D01*
X101869047Y-58340476D01*
X101892857Y-58245238D01*
X101916666Y-58197619D01*
X101964285Y-58150000D01*
X102035714Y-58126190D01*
X102083333Y-58126190D01*
X102154761Y-58150000D01*
X102178571Y-58173809D01*
X102654761Y-58626190D02*
X102369047Y-58626190D01*
X102511904Y-58626190D02*
X102511904Y-58126190D01*
X102464285Y-58197619D01*
X102416666Y-58245238D01*
X102369047Y-58269047D01*
X102964285Y-58126190D02*
X103011904Y-58126190D01*
X103059523Y-58150000D01*
X103083333Y-58173809D01*
X103107142Y-58221428D01*
X103130952Y-58316666D01*
X103130952Y-58435714D01*
X103107142Y-58530952D01*
X103083333Y-58578571D01*
X103059523Y-58602380D01*
X103011904Y-58626190D01*
X102964285Y-58626190D01*
X102916666Y-58602380D01*
X102892857Y-58578571D01*
X102869047Y-58530952D01*
X102845238Y-58435714D01*
X102845238Y-58316666D01*
X102869047Y-58221428D01*
X102892857Y-58173809D01*
X102916666Y-58150000D01*
X102964285Y-58126190D01*
G04 #@! TO.C,R4*
X101166666Y-54326190D02*
X101000000Y-54088095D01*
X100880952Y-54326190D02*
X100880952Y-53826190D01*
X101071428Y-53826190D01*
X101119047Y-53850000D01*
X101142857Y-53873809D01*
X101166666Y-53921428D01*
X101166666Y-53992857D01*
X101142857Y-54040476D01*
X101119047Y-54064285D01*
X101071428Y-54088095D01*
X100880952Y-54088095D01*
X101595238Y-53992857D02*
X101595238Y-54326190D01*
X101476190Y-53802380D02*
X101357142Y-54159523D01*
X101666666Y-54159523D01*
G04 #@! TD*
M02*
