G04 #@! TF.GenerationSoftware,KiCad,Pcbnew,(5.0.1)-4*
G04 #@! TF.CreationDate,2019-01-02T07:29:33-05:00*
G04 #@! TF.ProjectId,XHP70_LED_driver,58485037305F4C45445F647269766572,rev?*
G04 #@! TF.SameCoordinates,Original*
G04 #@! TF.FileFunction,Legend,Top*
G04 #@! TF.FilePolarity,Positive*
%FSLAX46Y46*%
G04 Gerber Fmt 4.6, Leading zero omitted, Abs format (unit mm)*
G04 Created by KiCad (PCBNEW (5.0.1)-4) date 1/2/2019 7:29:33 AM*
%MOMM*%
%LPD*%
G01*
G04 APERTURE LIST*
%ADD10C,0.120000*%
%ADD11C,0.150000*%
%ADD12C,0.100000*%
G04 APERTURE END LIST*
D10*
G04 #@! TO.C,C1*
X96850000Y-57730000D02*
X96350000Y-57730000D01*
X96350000Y-58670000D02*
X96850000Y-58670000D01*
G04 #@! TO.C,C5*
X108200000Y-57150000D02*
X109200000Y-57150000D01*
X109200000Y-55450000D02*
X108200000Y-55450000D01*
G04 #@! TO.C,C11*
X106080000Y-60900000D02*
X106080000Y-58900000D01*
X103120000Y-58900000D02*
X103120000Y-60900000D01*
G04 #@! TO.C,R6*
X100520000Y-61850000D02*
X100520000Y-60650000D01*
X102280000Y-60650000D02*
X102280000Y-61850000D01*
G04 #@! TO.C,D1*
X109100000Y-59300000D02*
X109100000Y-57450000D01*
X110300000Y-59300000D02*
X110300000Y-57450000D01*
X110300000Y-57450000D02*
X109100000Y-57450000D01*
G04 #@! TO.C,C6*
X96230000Y-60350000D02*
X96230000Y-60850000D01*
X97170000Y-60850000D02*
X97170000Y-60350000D01*
G04 #@! TO.C,C7*
X102530000Y-53050000D02*
X102530000Y-53550000D01*
X103470000Y-53550000D02*
X103470000Y-53050000D01*
D11*
G04 #@! TO.C,U2*
X103975000Y-54725000D02*
X104475000Y-54725000D01*
X103975000Y-51475000D02*
X104475000Y-51475000D01*
X107225000Y-51475000D02*
X106725000Y-51475000D01*
X107225000Y-54725000D02*
X106725000Y-54725000D01*
X103975000Y-51475000D02*
X103975000Y-51975000D01*
X107225000Y-51475000D02*
X107225000Y-51975000D01*
X103975000Y-54725000D02*
X103975000Y-54225000D01*
D10*
G04 #@! TO.C,U3*
X97390000Y-60800000D02*
X97390000Y-63250000D01*
X100610000Y-62600000D02*
X100610000Y-60800000D01*
G04 #@! TO.C,C4*
X99350000Y-53430000D02*
X98850000Y-53430000D01*
X98850000Y-54370000D02*
X99350000Y-54370000D01*
G04 #@! TO.C,C3*
X96850000Y-58630000D02*
X96350000Y-58630000D01*
X96350000Y-59570000D02*
X96850000Y-59570000D01*
G04 #@! TO.C,C8*
X101630000Y-53050000D02*
X101630000Y-53550000D01*
X102570000Y-53550000D02*
X102570000Y-53050000D01*
G04 #@! TO.C,C10*
X103170000Y-59950000D02*
X103170000Y-59450000D01*
X102230000Y-59450000D02*
X102230000Y-59950000D01*
G04 #@! TO.C,C1*
D12*
X95378571Y-58283333D02*
X95402380Y-58307142D01*
X95426190Y-58378571D01*
X95426190Y-58426190D01*
X95402380Y-58497619D01*
X95354761Y-58545238D01*
X95307142Y-58569047D01*
X95211904Y-58592857D01*
X95140476Y-58592857D01*
X95045238Y-58569047D01*
X94997619Y-58545238D01*
X94950000Y-58497619D01*
X94926190Y-58426190D01*
X94926190Y-58378571D01*
X94950000Y-58307142D01*
X94973809Y-58283333D01*
X95426190Y-57807142D02*
X95426190Y-58092857D01*
X95426190Y-57950000D02*
X94926190Y-57950000D01*
X94997619Y-57997619D01*
X95045238Y-58045238D01*
X95069047Y-58092857D01*
G04 #@! TO.C,C5*
X108878571Y-56383333D02*
X108902380Y-56407142D01*
X108926190Y-56478571D01*
X108926190Y-56526190D01*
X108902380Y-56597619D01*
X108854761Y-56645238D01*
X108807142Y-56669047D01*
X108711904Y-56692857D01*
X108640476Y-56692857D01*
X108545238Y-56669047D01*
X108497619Y-56645238D01*
X108450000Y-56597619D01*
X108426190Y-56526190D01*
X108426190Y-56478571D01*
X108450000Y-56407142D01*
X108473809Y-56383333D01*
X108426190Y-55930952D02*
X108426190Y-56169047D01*
X108664285Y-56192857D01*
X108640476Y-56169047D01*
X108616666Y-56121428D01*
X108616666Y-56002380D01*
X108640476Y-55954761D01*
X108664285Y-55930952D01*
X108711904Y-55907142D01*
X108830952Y-55907142D01*
X108878571Y-55930952D01*
X108902380Y-55954761D01*
X108926190Y-56002380D01*
X108926190Y-56121428D01*
X108902380Y-56169047D01*
X108878571Y-56192857D01*
G04 #@! TO.C,C11*
X104178571Y-59978571D02*
X104154761Y-60002380D01*
X104083333Y-60026190D01*
X104035714Y-60026190D01*
X103964285Y-60002380D01*
X103916666Y-59954761D01*
X103892857Y-59907142D01*
X103869047Y-59811904D01*
X103869047Y-59740476D01*
X103892857Y-59645238D01*
X103916666Y-59597619D01*
X103964285Y-59550000D01*
X104035714Y-59526190D01*
X104083333Y-59526190D01*
X104154761Y-59550000D01*
X104178571Y-59573809D01*
X104654761Y-60026190D02*
X104369047Y-60026190D01*
X104511904Y-60026190D02*
X104511904Y-59526190D01*
X104464285Y-59597619D01*
X104416666Y-59645238D01*
X104369047Y-59669047D01*
X105130952Y-60026190D02*
X104845238Y-60026190D01*
X104988095Y-60026190D02*
X104988095Y-59526190D01*
X104940476Y-59597619D01*
X104892857Y-59645238D01*
X104845238Y-59669047D01*
G04 #@! TO.C,R6*
X101216666Y-61476190D02*
X101050000Y-61238095D01*
X100930952Y-61476190D02*
X100930952Y-60976190D01*
X101121428Y-60976190D01*
X101169047Y-61000000D01*
X101192857Y-61023809D01*
X101216666Y-61071428D01*
X101216666Y-61142857D01*
X101192857Y-61190476D01*
X101169047Y-61214285D01*
X101121428Y-61238095D01*
X100930952Y-61238095D01*
X101645238Y-60976190D02*
X101550000Y-60976190D01*
X101502380Y-61000000D01*
X101478571Y-61023809D01*
X101430952Y-61095238D01*
X101407142Y-61190476D01*
X101407142Y-61380952D01*
X101430952Y-61428571D01*
X101454761Y-61452380D01*
X101502380Y-61476190D01*
X101597619Y-61476190D01*
X101645238Y-61452380D01*
X101669047Y-61428571D01*
X101692857Y-61380952D01*
X101692857Y-61261904D01*
X101669047Y-61214285D01*
X101645238Y-61190476D01*
X101597619Y-61166666D01*
X101502380Y-61166666D01*
X101454761Y-61190476D01*
X101430952Y-61214285D01*
X101407142Y-61261904D01*
G04 #@! TO.C,D1*
X111226190Y-58869047D02*
X110726190Y-58869047D01*
X110726190Y-58750000D01*
X110750000Y-58678571D01*
X110797619Y-58630952D01*
X110845238Y-58607142D01*
X110940476Y-58583333D01*
X111011904Y-58583333D01*
X111107142Y-58607142D01*
X111154761Y-58630952D01*
X111202380Y-58678571D01*
X111226190Y-58750000D01*
X111226190Y-58869047D01*
X111226190Y-58107142D02*
X111226190Y-58392857D01*
X111226190Y-58250000D02*
X110726190Y-58250000D01*
X110797619Y-58297619D01*
X110845238Y-58345238D01*
X110869047Y-58392857D01*
G04 #@! TO.C,C6*
X96878571Y-62283333D02*
X96902380Y-62307142D01*
X96926190Y-62378571D01*
X96926190Y-62426190D01*
X96902380Y-62497619D01*
X96854761Y-62545238D01*
X96807142Y-62569047D01*
X96711904Y-62592857D01*
X96640476Y-62592857D01*
X96545238Y-62569047D01*
X96497619Y-62545238D01*
X96450000Y-62497619D01*
X96426190Y-62426190D01*
X96426190Y-62378571D01*
X96450000Y-62307142D01*
X96473809Y-62283333D01*
X96426190Y-61854761D02*
X96426190Y-61950000D01*
X96450000Y-61997619D01*
X96473809Y-62021428D01*
X96545238Y-62069047D01*
X96640476Y-62092857D01*
X96830952Y-62092857D01*
X96878571Y-62069047D01*
X96902380Y-62045238D01*
X96926190Y-61997619D01*
X96926190Y-61902380D01*
X96902380Y-61854761D01*
X96878571Y-61830952D01*
X96830952Y-61807142D01*
X96711904Y-61807142D01*
X96664285Y-61830952D01*
X96640476Y-61854761D01*
X96616666Y-61902380D01*
X96616666Y-61997619D01*
X96640476Y-62045238D01*
X96664285Y-62069047D01*
X96711904Y-62092857D01*
G04 #@! TO.C,C7*
X103016666Y-52078571D02*
X102992857Y-52102380D01*
X102921428Y-52126190D01*
X102873809Y-52126190D01*
X102802380Y-52102380D01*
X102754761Y-52054761D01*
X102730952Y-52007142D01*
X102707142Y-51911904D01*
X102707142Y-51840476D01*
X102730952Y-51745238D01*
X102754761Y-51697619D01*
X102802380Y-51650000D01*
X102873809Y-51626190D01*
X102921428Y-51626190D01*
X102992857Y-51650000D01*
X103016666Y-51673809D01*
X103183333Y-51626190D02*
X103516666Y-51626190D01*
X103302380Y-52126190D01*
G04 #@! TO.C,R3*
X107926190Y-60583333D02*
X107688095Y-60750000D01*
X107926190Y-60869047D02*
X107426190Y-60869047D01*
X107426190Y-60678571D01*
X107450000Y-60630952D01*
X107473809Y-60607142D01*
X107521428Y-60583333D01*
X107592857Y-60583333D01*
X107640476Y-60607142D01*
X107664285Y-60630952D01*
X107688095Y-60678571D01*
X107688095Y-60869047D01*
X107426190Y-60416666D02*
X107426190Y-60107142D01*
X107616666Y-60273809D01*
X107616666Y-60202380D01*
X107640476Y-60154761D01*
X107664285Y-60130952D01*
X107711904Y-60107142D01*
X107830952Y-60107142D01*
X107878571Y-60130952D01*
X107902380Y-60154761D01*
X107926190Y-60202380D01*
X107926190Y-60345238D01*
X107902380Y-60392857D01*
X107878571Y-60416666D01*
G04 #@! TO.C,U2*
X107826190Y-54880952D02*
X108230952Y-54880952D01*
X108278571Y-54857142D01*
X108302380Y-54833333D01*
X108326190Y-54785714D01*
X108326190Y-54690476D01*
X108302380Y-54642857D01*
X108278571Y-54619047D01*
X108230952Y-54595238D01*
X107826190Y-54595238D01*
X107873809Y-54380952D02*
X107850000Y-54357142D01*
X107826190Y-54309523D01*
X107826190Y-54190476D01*
X107850000Y-54142857D01*
X107873809Y-54119047D01*
X107921428Y-54095238D01*
X107969047Y-54095238D01*
X108040476Y-54119047D01*
X108326190Y-54404761D01*
X108326190Y-54095238D01*
G04 #@! TO.C,U3*
X98619047Y-61426190D02*
X98619047Y-61830952D01*
X98642857Y-61878571D01*
X98666666Y-61902380D01*
X98714285Y-61926190D01*
X98809523Y-61926190D01*
X98857142Y-61902380D01*
X98880952Y-61878571D01*
X98904761Y-61830952D01*
X98904761Y-61426190D01*
X99095238Y-61426190D02*
X99404761Y-61426190D01*
X99238095Y-61616666D01*
X99309523Y-61616666D01*
X99357142Y-61640476D01*
X99380952Y-61664285D01*
X99404761Y-61711904D01*
X99404761Y-61830952D01*
X99380952Y-61878571D01*
X99357142Y-61902380D01*
X99309523Y-61926190D01*
X99166666Y-61926190D01*
X99119047Y-61902380D01*
X99095238Y-61878571D01*
G04 #@! TO.C,U1*
X99369047Y-60226190D02*
X99369047Y-60630952D01*
X99392857Y-60678571D01*
X99416666Y-60702380D01*
X99464285Y-60726190D01*
X99559523Y-60726190D01*
X99607142Y-60702380D01*
X99630952Y-60678571D01*
X99654761Y-60630952D01*
X99654761Y-60226190D01*
X100154761Y-60726190D02*
X99869047Y-60726190D01*
X100011904Y-60726190D02*
X100011904Y-60226190D01*
X99964285Y-60297619D01*
X99916666Y-60345238D01*
X99869047Y-60369047D01*
G04 #@! TO.C,TP1*
X106069047Y-56926190D02*
X106354761Y-56926190D01*
X106211904Y-57426190D02*
X106211904Y-56926190D01*
X106521428Y-57426190D02*
X106521428Y-56926190D01*
X106711904Y-56926190D01*
X106759523Y-56950000D01*
X106783333Y-56973809D01*
X106807142Y-57021428D01*
X106807142Y-57092857D01*
X106783333Y-57140476D01*
X106759523Y-57164285D01*
X106711904Y-57188095D01*
X106521428Y-57188095D01*
X107283333Y-57426190D02*
X106997619Y-57426190D01*
X107140476Y-57426190D02*
X107140476Y-56926190D01*
X107092857Y-56997619D01*
X107045238Y-57045238D01*
X106997619Y-57069047D01*
G04 #@! TO.C,TP2*
X106269047Y-62526190D02*
X106554761Y-62526190D01*
X106411904Y-63026190D02*
X106411904Y-62526190D01*
X106721428Y-63026190D02*
X106721428Y-62526190D01*
X106911904Y-62526190D01*
X106959523Y-62550000D01*
X106983333Y-62573809D01*
X107007142Y-62621428D01*
X107007142Y-62692857D01*
X106983333Y-62740476D01*
X106959523Y-62764285D01*
X106911904Y-62788095D01*
X106721428Y-62788095D01*
X107197619Y-62573809D02*
X107221428Y-62550000D01*
X107269047Y-62526190D01*
X107388095Y-62526190D01*
X107435714Y-62550000D01*
X107459523Y-62573809D01*
X107483333Y-62621428D01*
X107483333Y-62669047D01*
X107459523Y-62740476D01*
X107173809Y-63026190D01*
X107483333Y-63026190D01*
G04 #@! TO.C,C4*
X99016666Y-53178571D02*
X98992857Y-53202380D01*
X98921428Y-53226190D01*
X98873809Y-53226190D01*
X98802380Y-53202380D01*
X98754761Y-53154761D01*
X98730952Y-53107142D01*
X98707142Y-53011904D01*
X98707142Y-52940476D01*
X98730952Y-52845238D01*
X98754761Y-52797619D01*
X98802380Y-52750000D01*
X98873809Y-52726190D01*
X98921428Y-52726190D01*
X98992857Y-52750000D01*
X99016666Y-52773809D01*
X99445238Y-52892857D02*
X99445238Y-53226190D01*
X99326190Y-52702380D02*
X99207142Y-53059523D01*
X99516666Y-53059523D01*
G04 #@! TO.C,C3*
X95978571Y-60183333D02*
X96002380Y-60207142D01*
X96026190Y-60278571D01*
X96026190Y-60326190D01*
X96002380Y-60397619D01*
X95954761Y-60445238D01*
X95907142Y-60469047D01*
X95811904Y-60492857D01*
X95740476Y-60492857D01*
X95645238Y-60469047D01*
X95597619Y-60445238D01*
X95550000Y-60397619D01*
X95526190Y-60326190D01*
X95526190Y-60278571D01*
X95550000Y-60207142D01*
X95573809Y-60183333D01*
X95526190Y-60016666D02*
X95526190Y-59707142D01*
X95716666Y-59873809D01*
X95716666Y-59802380D01*
X95740476Y-59754761D01*
X95764285Y-59730952D01*
X95811904Y-59707142D01*
X95930952Y-59707142D01*
X95978571Y-59730952D01*
X96002380Y-59754761D01*
X96026190Y-59802380D01*
X96026190Y-59945238D01*
X96002380Y-59992857D01*
X95978571Y-60016666D01*
G04 #@! TO.C,C8*
X101816666Y-52078571D02*
X101792857Y-52102380D01*
X101721428Y-52126190D01*
X101673809Y-52126190D01*
X101602380Y-52102380D01*
X101554761Y-52054761D01*
X101530952Y-52007142D01*
X101507142Y-51911904D01*
X101507142Y-51840476D01*
X101530952Y-51745238D01*
X101554761Y-51697619D01*
X101602380Y-51650000D01*
X101673809Y-51626190D01*
X101721428Y-51626190D01*
X101792857Y-51650000D01*
X101816666Y-51673809D01*
X102102380Y-51840476D02*
X102054761Y-51816666D01*
X102030952Y-51792857D01*
X102007142Y-51745238D01*
X102007142Y-51721428D01*
X102030952Y-51673809D01*
X102054761Y-51650000D01*
X102102380Y-51626190D01*
X102197619Y-51626190D01*
X102245238Y-51650000D01*
X102269047Y-51673809D01*
X102292857Y-51721428D01*
X102292857Y-51745238D01*
X102269047Y-51792857D01*
X102245238Y-51816666D01*
X102197619Y-51840476D01*
X102102380Y-51840476D01*
X102054761Y-51864285D01*
X102030952Y-51888095D01*
X102007142Y-51935714D01*
X102007142Y-52030952D01*
X102030952Y-52078571D01*
X102054761Y-52102380D01*
X102102380Y-52126190D01*
X102197619Y-52126190D01*
X102245238Y-52102380D01*
X102269047Y-52078571D01*
X102292857Y-52030952D01*
X102292857Y-51935714D01*
X102269047Y-51888095D01*
X102245238Y-51864285D01*
X102197619Y-51840476D01*
G04 #@! TO.C,R1*
X96266666Y-54826190D02*
X96100000Y-54588095D01*
X95980952Y-54826190D02*
X95980952Y-54326190D01*
X96171428Y-54326190D01*
X96219047Y-54350000D01*
X96242857Y-54373809D01*
X96266666Y-54421428D01*
X96266666Y-54492857D01*
X96242857Y-54540476D01*
X96219047Y-54564285D01*
X96171428Y-54588095D01*
X95980952Y-54588095D01*
X96742857Y-54826190D02*
X96457142Y-54826190D01*
X96600000Y-54826190D02*
X96600000Y-54326190D01*
X96552380Y-54397619D01*
X96504761Y-54445238D01*
X96457142Y-54469047D01*
G04 #@! TO.C,R2*
X107926190Y-58883333D02*
X107688095Y-59050000D01*
X107926190Y-59169047D02*
X107426190Y-59169047D01*
X107426190Y-58978571D01*
X107450000Y-58930952D01*
X107473809Y-58907142D01*
X107521428Y-58883333D01*
X107592857Y-58883333D01*
X107640476Y-58907142D01*
X107664285Y-58930952D01*
X107688095Y-58978571D01*
X107688095Y-59169047D01*
X107473809Y-58692857D02*
X107450000Y-58669047D01*
X107426190Y-58621428D01*
X107426190Y-58502380D01*
X107450000Y-58454761D01*
X107473809Y-58430952D01*
X107521428Y-58407142D01*
X107569047Y-58407142D01*
X107640476Y-58430952D01*
X107926190Y-58716666D01*
X107926190Y-58407142D01*
G04 #@! TO.C,R5*
X101916666Y-55026190D02*
X101750000Y-54788095D01*
X101630952Y-55026190D02*
X101630952Y-54526190D01*
X101821428Y-54526190D01*
X101869047Y-54550000D01*
X101892857Y-54573809D01*
X101916666Y-54621428D01*
X101916666Y-54692857D01*
X101892857Y-54740476D01*
X101869047Y-54764285D01*
X101821428Y-54788095D01*
X101630952Y-54788095D01*
X102369047Y-54526190D02*
X102130952Y-54526190D01*
X102107142Y-54764285D01*
X102130952Y-54740476D01*
X102178571Y-54716666D01*
X102297619Y-54716666D01*
X102345238Y-54740476D01*
X102369047Y-54764285D01*
X102392857Y-54811904D01*
X102392857Y-54930952D01*
X102369047Y-54978571D01*
X102345238Y-55002380D01*
X102297619Y-55026190D01*
X102178571Y-55026190D01*
X102130952Y-55002380D01*
X102107142Y-54978571D01*
G04 #@! TO.C,C10*
X102178571Y-58578571D02*
X102154761Y-58602380D01*
X102083333Y-58626190D01*
X102035714Y-58626190D01*
X101964285Y-58602380D01*
X101916666Y-58554761D01*
X101892857Y-58507142D01*
X101869047Y-58411904D01*
X101869047Y-58340476D01*
X101892857Y-58245238D01*
X101916666Y-58197619D01*
X101964285Y-58150000D01*
X102035714Y-58126190D01*
X102083333Y-58126190D01*
X102154761Y-58150000D01*
X102178571Y-58173809D01*
X102654761Y-58626190D02*
X102369047Y-58626190D01*
X102511904Y-58626190D02*
X102511904Y-58126190D01*
X102464285Y-58197619D01*
X102416666Y-58245238D01*
X102369047Y-58269047D01*
X102964285Y-58126190D02*
X103011904Y-58126190D01*
X103059523Y-58150000D01*
X103083333Y-58173809D01*
X103107142Y-58221428D01*
X103130952Y-58316666D01*
X103130952Y-58435714D01*
X103107142Y-58530952D01*
X103083333Y-58578571D01*
X103059523Y-58602380D01*
X103011904Y-58626190D01*
X102964285Y-58626190D01*
X102916666Y-58602380D01*
X102892857Y-58578571D01*
X102869047Y-58530952D01*
X102845238Y-58435714D01*
X102845238Y-58316666D01*
X102869047Y-58221428D01*
X102892857Y-58173809D01*
X102916666Y-58150000D01*
X102964285Y-58126190D01*
G04 #@! TO.C,R4*
X100716666Y-52826190D02*
X100550000Y-52588095D01*
X100430952Y-52826190D02*
X100430952Y-52326190D01*
X100621428Y-52326190D01*
X100669047Y-52350000D01*
X100692857Y-52373809D01*
X100716666Y-52421428D01*
X100716666Y-52492857D01*
X100692857Y-52540476D01*
X100669047Y-52564285D01*
X100621428Y-52588095D01*
X100430952Y-52588095D01*
X101145238Y-52492857D02*
X101145238Y-52826190D01*
X101026190Y-52302380D02*
X100907142Y-52659523D01*
X101216666Y-52659523D01*
G04 #@! TD*
M02*
