G04 #@! TF.GenerationSoftware,KiCad,Pcbnew,(5.0.1)-4*
G04 #@! TF.CreationDate,2019-01-02T12:26:21-05:00*
G04 #@! TF.ProjectId,XHP70_LED_driver,58485037305F4C45445F647269766572,rev?*
G04 #@! TF.SameCoordinates,Original*
G04 #@! TF.FileFunction,Copper,L2,Bot,Signal*
G04 #@! TF.FilePolarity,Positive*
%FSLAX46Y46*%
G04 Gerber Fmt 4.6, Leading zero omitted, Abs format (unit mm)*
G04 Created by KiCad (PCBNEW (5.0.1)-4) date 1/2/2019 12:26:21 PM*
%MOMM*%
%LPD*%
G01*
G04 APERTURE LIST*
G04 #@! TA.AperFunction,ComponentPad*
%ADD10R,0.500000X0.500000*%
G04 #@! TD*
G04 #@! TA.AperFunction,SMDPad,CuDef*
%ADD11R,2.500000X1.000000*%
G04 #@! TD*
G04 #@! TA.AperFunction,SMDPad,CuDef*
%ADD12R,1.500000X2.400000*%
G04 #@! TD*
G04 #@! TA.AperFunction,SMDPad,CuDef*
%ADD13R,0.600000X0.500000*%
G04 #@! TD*
G04 #@! TA.AperFunction,SMDPad,CuDef*
%ADD14R,0.400000X0.600000*%
G04 #@! TD*
G04 #@! TA.AperFunction,ViaPad*
%ADD15C,0.450000*%
G04 #@! TD*
G04 #@! TA.AperFunction,Conductor*
%ADD16C,0.250000*%
G04 #@! TD*
G04 #@! TA.AperFunction,Conductor*
%ADD17C,0.254000*%
G04 #@! TD*
%ADD18C,0.254000*%
G04 APERTURE END LIST*
D10*
G04 #@! TO.P,U1,21*
G04 #@! TO.N,GND*
X99500000Y-57250000D03*
X100500000Y-57750000D03*
X99500000Y-57750000D03*
X100000000Y-57750000D03*
X100500000Y-57250000D03*
X100500000Y-56250000D03*
X100500000Y-56750000D03*
X100000000Y-57250000D03*
X100000000Y-56750000D03*
X99500000Y-56750000D03*
X100000000Y-56250000D03*
X99500000Y-56250000D03*
X100000000Y-55750000D03*
X99500000Y-55750000D03*
X99000000Y-56250000D03*
X99000000Y-56750000D03*
X99000000Y-57250000D03*
X99000000Y-57750000D03*
X99500000Y-58250000D03*
X100000000Y-58250000D03*
X100500000Y-58250000D03*
X99000000Y-58250000D03*
X100500000Y-55750000D03*
X99000000Y-55750000D03*
G04 #@! TD*
D11*
G04 #@! TO.P,C2,1*
G04 #@! TO.N,GND*
X104600000Y-62400000D03*
G04 #@! TO.P,C2,2*
G04 #@! TO.N,+BATT*
X104600000Y-59400000D03*
G04 #@! TD*
D12*
G04 #@! TO.P,L1,2*
G04 #@! TO.N,+BATT*
X102000000Y-57250000D03*
G04 #@! TO.P,L1,1*
G04 #@! TO.N,Net-(C1-Pad2)*
X96500000Y-57250000D03*
G04 #@! TD*
D13*
G04 #@! TO.P,C9,2*
G04 #@! TO.N,+BATT*
X97750000Y-61100000D03*
G04 #@! TO.P,C9,1*
G04 #@! TO.N,GND*
X96650000Y-61100000D03*
G04 #@! TD*
D14*
G04 #@! TO.P,R7,2*
G04 #@! TO.N,Net-(R7-Pad2)*
X105500000Y-51550000D03*
G04 #@! TO.P,R7,1*
G04 #@! TO.N,/DAC_OUT*
X104600000Y-51550000D03*
G04 #@! TD*
D15*
G04 #@! TO.N,Net-(R7-Pad2)*
X102499984Y-61400000D03*
G04 #@! TO.N,/ENABLE*
X102750000Y-51550000D03*
G04 #@! TO.N,/LED_K*
X100500000Y-54050000D03*
G04 #@! TO.N,Net-(C1-Pad2)*
X96400000Y-57700000D03*
X95900000Y-57700000D03*
X96900000Y-56700000D03*
X96900000Y-57200000D03*
X96400000Y-57200000D03*
X95900000Y-57200000D03*
X96900000Y-56200000D03*
X96400000Y-56200000D03*
X95900000Y-56200000D03*
G04 #@! TO.N,+BATT*
X98199992Y-61200000D03*
X103550000Y-55550012D03*
X98000024Y-59340987D03*
X108206036Y-58200000D03*
G04 #@! TO.N,Net-(C1-Pad2)*
X95900000Y-56700000D03*
X96400000Y-56699998D03*
G04 #@! TO.N,GND*
X95600000Y-59100000D03*
X100599984Y-60600000D03*
X99000000Y-62377010D03*
G04 #@! TO.N,/LED_K*
X108200000Y-54900012D03*
G04 #@! TO.N,/DAC_OUT*
X103362298Y-51562298D03*
G04 #@! TO.N,/ADC_IOUT*
X97994979Y-62377010D03*
X104950000Y-56150000D03*
G04 #@! TO.N,/ENABLE*
X98399999Y-52850001D03*
G04 #@! TO.N,/MODE*
X102000000Y-59300000D03*
X106450000Y-56200004D03*
G04 #@! TD*
D16*
G04 #@! TO.N,+BATT*
X97974993Y-60975001D02*
X98199992Y-61200000D01*
X97899992Y-60900000D02*
X97974993Y-60975001D01*
X97899992Y-59440993D02*
X97899992Y-60900000D01*
X97940985Y-59400000D02*
X97899992Y-59440993D01*
X101100000Y-59400000D02*
X97940985Y-59400000D01*
X102000000Y-57300000D02*
X102000000Y-58500000D01*
X102000000Y-58500000D02*
X101100000Y-59400000D01*
X102000000Y-57250000D02*
X102250000Y-57500000D01*
X104600000Y-59400000D02*
X104600000Y-57750000D01*
X102000000Y-57250000D02*
X103000000Y-57250000D01*
X104150000Y-56850000D02*
X104150000Y-56150012D01*
X104150000Y-56150012D02*
X103774999Y-55775011D01*
X103774999Y-55775011D02*
X103550000Y-55550012D01*
X98000024Y-59340961D02*
X98000024Y-59340987D01*
X97899992Y-59440993D02*
X98000024Y-59340961D01*
X106000000Y-58200000D02*
X108206036Y-58200000D01*
G04 #@! TO.N,GND*
X100475001Y-55724999D02*
X100200000Y-56000000D01*
X99000000Y-62199984D02*
X99000000Y-62377010D01*
X100599984Y-60600000D02*
X99000000Y-62199984D01*
G04 #@! TO.N,/LED_K*
X107349988Y-54050000D02*
X108200000Y-54900012D01*
X100500000Y-54050000D02*
X107349988Y-54050000D01*
G04 #@! TO.N,/DAC_OUT*
X104600000Y-51550000D02*
X103300000Y-51550000D01*
G04 #@! TO.N,/ADC_IOUT*
X105174999Y-55925001D02*
X104950000Y-56150000D01*
X99228962Y-62854012D02*
X101209985Y-60872989D01*
X105400000Y-55700000D02*
X105174999Y-55925001D01*
X106960185Y-60872989D02*
X109177009Y-58656165D01*
X108650000Y-55700000D02*
X105400000Y-55700000D01*
X101209985Y-60872989D02*
X106960185Y-60872989D01*
X109177009Y-56227009D02*
X108650000Y-55700000D01*
X98471981Y-62854012D02*
X99228962Y-62854012D01*
X97994979Y-62377010D02*
X98471981Y-62854012D01*
X109177009Y-58656165D02*
X109177009Y-56227009D01*
G04 #@! TO.N,/ENABLE*
X102750000Y-51550000D02*
X99700000Y-51550000D01*
X98624998Y-52625002D02*
X98399999Y-52850001D01*
X99700000Y-51550000D02*
X98624998Y-52625002D01*
G04 #@! TO.N,/MODE*
X102000000Y-59300000D02*
X103195978Y-60495978D01*
X103195978Y-60495978D02*
X106804022Y-60495978D01*
X108799998Y-56549998D02*
X108450004Y-56200004D01*
X106768198Y-56200004D02*
X106450000Y-56200004D01*
X106804022Y-60495978D02*
X108799998Y-58500002D01*
X108450004Y-56200004D02*
X106768198Y-56200004D01*
X108799998Y-58500002D02*
X108799998Y-56549998D01*
G04 #@! TO.N,Net-(R7-Pad2)*
X109554020Y-55404020D02*
X105750000Y-51600000D01*
X102650000Y-61250000D02*
X107116348Y-61250000D01*
X102500000Y-61400000D02*
X102650000Y-61250000D01*
X105750000Y-51600000D02*
X105500000Y-51600000D01*
X107116348Y-61250000D02*
X109554020Y-58812328D01*
X109554020Y-58812328D02*
X109554020Y-55404020D01*
G04 #@! TD*
D17*
G04 #@! TO.N,GND*
X102478964Y-49518374D02*
X102478964Y-49518374D01*
X101016364Y-49759674D02*
X104993255Y-49759674D01*
X100183360Y-50000974D02*
X105829989Y-50000974D01*
X99617640Y-50242274D02*
X106379685Y-50242274D01*
X99103885Y-50483574D02*
X106905283Y-50483574D01*
X98700702Y-50724874D02*
X107299049Y-50724874D01*
X98297519Y-50966174D02*
X107692815Y-50966174D01*
X97987903Y-51207474D02*
X99530445Y-51207474D01*
X105950518Y-51207474D02*
X108016290Y-51207474D01*
X97686711Y-51448774D02*
X99265240Y-51448774D01*
X106134761Y-51448774D02*
X108311101Y-51448774D01*
X97385519Y-51690074D02*
X99023940Y-51690074D01*
X106376061Y-51690074D02*
X108605912Y-51690074D01*
X97155998Y-51931374D02*
X98782640Y-51931374D01*
X99854612Y-51931374D02*
X102453966Y-51931374D01*
X103046034Y-51931374D02*
X103053966Y-51931374D01*
X103670630Y-51931374D02*
X104157210Y-51931374D01*
X105042790Y-51931374D02*
X105057209Y-51931374D01*
X106617361Y-51931374D02*
X108847969Y-51931374D01*
X96927013Y-52172674D02*
X98541340Y-52172674D01*
X99613312Y-52172674D02*
X105786688Y-52172674D01*
X106858661Y-52172674D02*
X109072198Y-52172674D01*
X96698028Y-52413974D02*
X98200975Y-52413974D01*
X99372012Y-52413974D02*
X106027988Y-52413974D01*
X107099961Y-52413974D02*
X109296428Y-52413974D01*
X96502362Y-52655274D02*
X97962192Y-52655274D01*
X99130712Y-52655274D02*
X106269288Y-52655274D01*
X107341261Y-52655274D02*
X109503137Y-52655274D01*
X96328970Y-52896574D02*
X97920999Y-52896574D01*
X98889412Y-52896574D02*
X106510588Y-52896574D01*
X107582561Y-52896574D02*
X109672725Y-52896574D01*
X96155578Y-53137874D02*
X98010464Y-53137874D01*
X98789534Y-53137874D02*
X106751888Y-53137874D01*
X107823861Y-53137874D02*
X109842314Y-53137874D01*
X95982187Y-53379174D02*
X106993188Y-53379174D01*
X108065161Y-53379174D02*
X110011902Y-53379174D01*
X95845320Y-53620474D02*
X100285281Y-53620474D01*
X100714720Y-53620474D02*
X107234488Y-53620474D01*
X108306461Y-53620474D02*
X110159265Y-53620474D01*
X95717559Y-53861774D02*
X100059501Y-53861774D01*
X108547761Y-53861774D02*
X110283809Y-53861774D01*
X95589797Y-54103074D02*
X100021000Y-54103074D01*
X108789061Y-54103074D02*
X110408353Y-54103074D01*
X95462035Y-54344374D02*
X100116966Y-54344374D01*
X109030361Y-54344374D02*
X110532897Y-54344374D01*
X95360564Y-54585674D02*
X107349676Y-54585674D01*
X109271661Y-54585674D02*
X110644284Y-54585674D01*
X95272261Y-54826974D02*
X107590976Y-54826974D01*
X109512961Y-54826974D02*
X110729733Y-54826974D01*
X95183958Y-55068274D02*
X100722307Y-55068274D01*
X109754261Y-55068274D02*
X110815182Y-55068274D01*
X95095654Y-55309574D02*
X100536515Y-55309574D01*
X109921659Y-55309574D02*
X110900631Y-55309574D01*
X95017105Y-55550874D02*
X100522123Y-55550874D01*
X109933020Y-55550874D02*
X110986080Y-55550874D01*
X94964493Y-55792174D02*
X95632893Y-55792174D01*
X97255782Y-55792174D02*
X100527257Y-55792174D01*
X109933020Y-55792174D02*
X111038643Y-55792174D01*
X94911881Y-56033474D02*
X95450512Y-56033474D01*
X97505689Y-56033474D02*
X100532391Y-56033474D01*
X109933020Y-56033474D02*
X111088614Y-56033474D01*
X94859269Y-56274774D02*
X95421000Y-56274774D01*
X97508976Y-56274774D02*
X100537525Y-56274774D01*
X109933020Y-56274774D02*
X111138584Y-56274774D01*
X94806657Y-56516074D02*
X95457720Y-56516074D01*
X97508976Y-56516074D02*
X100542659Y-56516074D01*
X109933020Y-56516074D02*
X111188555Y-56516074D01*
X94777672Y-56757374D02*
X95421000Y-56757374D01*
X97508976Y-56757374D02*
X100547793Y-56757374D01*
X109933020Y-56757374D02*
X111226921Y-56757374D01*
X94758681Y-56998674D02*
X95464927Y-56998674D01*
X97508976Y-56998674D02*
X100552927Y-56998674D01*
X109933020Y-56998674D02*
X111243371Y-56998674D01*
X94739691Y-57239974D02*
X95421000Y-57239974D01*
X97508976Y-57239974D02*
X100558061Y-57239974D01*
X109933020Y-57239974D02*
X111259821Y-57239974D01*
X94720700Y-57481274D02*
X95472134Y-57481274D01*
X97508976Y-57481274D02*
X100563195Y-57481274D01*
X109933020Y-57481274D02*
X111276271Y-57481274D01*
X94703001Y-57722574D02*
X95421000Y-57722574D01*
X97508976Y-57722574D02*
X100568329Y-57722574D01*
X109933020Y-57722574D02*
X111292721Y-57722574D01*
X94716915Y-57963874D02*
X95490834Y-57963874D01*
X97508976Y-57963874D02*
X100573463Y-57963874D01*
X109933020Y-57963874D02*
X111296284Y-57963874D01*
X94730828Y-58205174D02*
X95491024Y-58205174D01*
X97508976Y-58205174D02*
X100578598Y-58205174D01*
X109933020Y-58205174D02*
X111275529Y-58205174D01*
X94744741Y-58446474D02*
X95491024Y-58446474D01*
X97508976Y-58446474D02*
X100583732Y-58446474D01*
X109933020Y-58446474D02*
X111253994Y-58446474D01*
X94758654Y-58687774D02*
X95648665Y-58687774D01*
X97351334Y-58687774D02*
X100588866Y-58687774D01*
X109933020Y-58687774D02*
X111232458Y-58687774D01*
X94784905Y-58929074D02*
X97742784Y-58929074D01*
X98257265Y-58929074D02*
X100594000Y-58929074D01*
X109917222Y-58929074D02*
X111210923Y-58929074D01*
X94832246Y-59170374D02*
X97552229Y-59170374D01*
X109731960Y-59170374D02*
X111179284Y-59170374D01*
X94879587Y-59411674D02*
X97519400Y-59411674D01*
X109490660Y-59411674D02*
X111124019Y-59411674D01*
X94926929Y-59652974D02*
X97520992Y-59652974D01*
X109249360Y-59652974D02*
X111068754Y-59652974D01*
X94974270Y-59894274D02*
X97520992Y-59894274D01*
X98278992Y-59894274D02*
X100614536Y-59894274D01*
X109008060Y-59894274D02*
X111013489Y-59894274D01*
X95049078Y-60135574D02*
X97520992Y-60135574D01*
X98278992Y-60135574D02*
X100624854Y-60135574D01*
X108766760Y-60135574D02*
X110958223Y-60135574D01*
X95131694Y-60376874D02*
X97520992Y-60376874D01*
X98278992Y-60376874D02*
X100741765Y-60376874D01*
X108525460Y-60376874D02*
X110876392Y-60376874D01*
X95214310Y-60618174D02*
X97339764Y-60618174D01*
X98278992Y-60618174D02*
X100924428Y-60618174D01*
X108284160Y-60618174D02*
X110785213Y-60618174D01*
X95296925Y-60859474D02*
X97191024Y-60859474D01*
X98536874Y-60859474D02*
X100687514Y-60859474D01*
X108042860Y-60859474D02*
X110694033Y-60859474D01*
X95393217Y-61100774D02*
X97191024Y-61100774D01*
X98677358Y-61100774D02*
X100446214Y-61100774D01*
X107801560Y-61100774D02*
X110602853Y-61100774D01*
X95514578Y-61342074D02*
X97191024Y-61342074D01*
X98659608Y-61342074D02*
X100204914Y-61342074D01*
X101276886Y-61342074D02*
X102020984Y-61342074D01*
X107560260Y-61342074D02*
X110497183Y-61342074D01*
X95635939Y-61583374D02*
X97342080Y-61583374D01*
X98494026Y-61583374D02*
X99963614Y-61583374D01*
X101035586Y-61583374D02*
X102057474Y-61583374D01*
X107299600Y-61583374D02*
X110366168Y-61583374D01*
X95757300Y-61824674D02*
X99722314Y-61824674D01*
X100794286Y-61824674D02*
X102273551Y-61824674D01*
X102726416Y-61824674D02*
X110235153Y-61824674D01*
X95886394Y-62065974D02*
X97628607Y-62065974D01*
X98361351Y-62065974D02*
X99481014Y-62065974D01*
X100552986Y-62065974D02*
X110104138Y-62065974D01*
X96052235Y-62307274D02*
X97515979Y-62307274D01*
X98473979Y-62307274D02*
X99239714Y-62307274D01*
X100311686Y-62307274D02*
X109961437Y-62307274D01*
X96218076Y-62548574D02*
X97547577Y-62548574D01*
X100070386Y-62548574D02*
X109784184Y-62548574D01*
X96383917Y-62789874D02*
X97740034Y-62789874D01*
X99829086Y-62789874D02*
X109606932Y-62789874D01*
X96566877Y-63031174D02*
X98113156Y-63031174D01*
X99587786Y-63031174D02*
X109429679Y-63031174D01*
X96786443Y-63272474D02*
X109225116Y-63272474D01*
X97006009Y-63513774D02*
X108991280Y-63513774D01*
X97225575Y-63755074D02*
X108757445Y-63755074D01*
X97504414Y-63996374D02*
X108514495Y-63996374D01*
X97793006Y-64237674D02*
X108206753Y-64237674D01*
X98081597Y-64478974D02*
X107899012Y-64478974D01*
X98452626Y-64720274D02*
X107566353Y-64720274D01*
X98837291Y-64961574D02*
X107153417Y-64961574D01*
X99277699Y-65202874D02*
X106740481Y-65202874D01*
X99812119Y-65444174D02*
X106178837Y-65444174D01*
X100471841Y-65685474D02*
X105567089Y-65685474D01*
X101376860Y-65926774D02*
X104647311Y-65926774D01*
X111298000Y-57800000D02*
X111298000Y-57800000D01*
X111056700Y-55879367D02*
X111056700Y-59705600D01*
X110815400Y-55068887D02*
X110815400Y-60538284D01*
X110574100Y-54424201D02*
X110574100Y-61176866D01*
X110332800Y-53956691D02*
X110332800Y-61644829D01*
X110091500Y-53492429D02*
X110091500Y-62089248D01*
X109850200Y-53149094D02*
X109850200Y-55165103D01*
X109850200Y-59051246D02*
X109850200Y-62458704D01*
X109608900Y-52805759D02*
X109608900Y-54922914D01*
X109608900Y-59293435D02*
X109608900Y-62787193D01*
X109367600Y-52490563D02*
X109367600Y-54681614D01*
X109367600Y-59534735D02*
X109367600Y-63115683D01*
X109126300Y-52230893D02*
X109126300Y-54440314D01*
X109126300Y-59776035D02*
X109126300Y-63374444D01*
X108885000Y-51971224D02*
X108885000Y-54199014D01*
X108885000Y-60017335D02*
X108885000Y-63623446D01*
X108643700Y-51721002D02*
X108643700Y-53957714D01*
X108643700Y-60258635D02*
X108643700Y-63872449D01*
X108402400Y-51523500D02*
X108402400Y-53716414D01*
X108402400Y-60499935D02*
X108402400Y-64084267D01*
X108161100Y-51325999D02*
X108161100Y-53475114D01*
X108161100Y-60741235D02*
X108161100Y-64273470D01*
X107919800Y-51128497D02*
X107919800Y-53233814D01*
X107919800Y-60982535D02*
X107919800Y-64462673D01*
X107678500Y-50957401D02*
X107678500Y-52992514D01*
X107678500Y-54914498D02*
X107678500Y-55019000D01*
X107678500Y-61223835D02*
X107678500Y-64651877D01*
X107437200Y-50809532D02*
X107437200Y-52751214D01*
X107437200Y-54673198D02*
X107437200Y-55019000D01*
X107437200Y-61465135D02*
X107437200Y-64795744D01*
X107195900Y-50661664D02*
X107195900Y-52509914D01*
X107195900Y-53581886D02*
X107195900Y-53671000D01*
X107195900Y-54431898D02*
X107195900Y-55019000D01*
X107195900Y-61620602D02*
X107195900Y-64936748D01*
X106954600Y-50513795D02*
X106954600Y-52268614D01*
X106954600Y-53340586D02*
X106954600Y-53671000D01*
X106954600Y-54429000D02*
X106954600Y-55019000D01*
X106954600Y-61629000D02*
X106954600Y-65077752D01*
X106713300Y-50388720D02*
X106713300Y-52027314D01*
X106713300Y-53099286D02*
X106713300Y-53671000D01*
X106713300Y-54429000D02*
X106713300Y-55019000D01*
X106713300Y-61629000D02*
X106713300Y-65218756D01*
X106472000Y-50282797D02*
X106472000Y-51786014D01*
X106472000Y-52857986D02*
X106472000Y-53671000D01*
X106472000Y-54429000D02*
X106472000Y-55019000D01*
X106472000Y-61629000D02*
X106472000Y-65322741D01*
X106230700Y-50176873D02*
X106230700Y-51544714D01*
X106230700Y-52616686D02*
X106230700Y-53671000D01*
X106230700Y-54429000D02*
X106230700Y-55019000D01*
X106230700Y-61629000D02*
X106230700Y-65422691D01*
X105989400Y-50070950D02*
X105989400Y-51304143D01*
X105989400Y-52375386D02*
X105989400Y-53671000D01*
X105989400Y-54429000D02*
X105989400Y-55019000D01*
X105989400Y-61629000D02*
X105989400Y-65522641D01*
X105748100Y-49974697D02*
X105748100Y-51000592D01*
X105748100Y-52134086D02*
X105748100Y-53671000D01*
X105748100Y-54429000D02*
X105748100Y-55019000D01*
X105748100Y-61629000D02*
X105748100Y-65622590D01*
X105506800Y-49905960D02*
X105506800Y-50991024D01*
X105506800Y-52108976D02*
X105506800Y-53671000D01*
X105506800Y-54429000D02*
X105506800Y-55019000D01*
X105506800Y-61629000D02*
X105506800Y-65701290D01*
X105265500Y-49837224D02*
X105265500Y-50997886D01*
X105265500Y-52102113D02*
X105265500Y-53671000D01*
X105265500Y-54429000D02*
X105265500Y-55019000D01*
X105265500Y-61629000D02*
X105265500Y-65764594D01*
X105024200Y-49768488D02*
X105024200Y-51128351D01*
X105024200Y-51971650D02*
X105024200Y-53671000D01*
X105024200Y-54429000D02*
X105024200Y-55019000D01*
X105024200Y-61629000D02*
X105024200Y-65827898D01*
X104782900Y-49699752D02*
X104782900Y-50991024D01*
X104782900Y-52108976D02*
X104782900Y-53671000D01*
X104782900Y-54429000D02*
X104782900Y-55019000D01*
X104782900Y-61629000D02*
X104782900Y-65891202D01*
X104541600Y-49657193D02*
X104541600Y-50991024D01*
X104541600Y-52108976D02*
X104541600Y-53671000D01*
X104541600Y-54429000D02*
X104541600Y-55019000D01*
X104541600Y-61629000D02*
X104541600Y-65952628D01*
X104300300Y-49622851D02*
X104300300Y-51011133D01*
X104300300Y-52088866D02*
X104300300Y-53671000D01*
X104300300Y-54429000D02*
X104300300Y-55019000D01*
X104300300Y-61629000D02*
X104300300Y-65981828D01*
X104059000Y-49588509D02*
X104059000Y-51171000D01*
X104059000Y-51929000D02*
X104059000Y-53671000D01*
X104059000Y-54429000D02*
X104059000Y-55019000D01*
X104059000Y-61629000D02*
X104059000Y-66011029D01*
X103817700Y-49554167D02*
X103817700Y-51171000D01*
X103817700Y-51929000D02*
X103817700Y-53671000D01*
X103817700Y-54429000D02*
X103817700Y-55019000D01*
X103817700Y-61629000D02*
X103817700Y-66040229D01*
X103576400Y-49524119D02*
X103576400Y-51132517D01*
X103576400Y-51992080D02*
X103576400Y-53671000D01*
X103576400Y-54429000D02*
X103576400Y-55019000D01*
X103576400Y-61629000D02*
X103576400Y-66069430D01*
X103335100Y-49522856D02*
X103335100Y-51083298D01*
X103335100Y-52041298D02*
X103335100Y-53671000D01*
X103335100Y-54429000D02*
X103335100Y-55019000D01*
X103335100Y-61629000D02*
X103335100Y-66085070D01*
X103093800Y-49521593D02*
X103093800Y-51155048D01*
X103093800Y-51969547D02*
X103093800Y-53671000D01*
X103093800Y-54429000D02*
X103093800Y-55019000D01*
X103093800Y-61629000D02*
X103093800Y-66081280D01*
X102852500Y-49520329D02*
X102852500Y-51073992D01*
X102852500Y-52026009D02*
X102852500Y-53671000D01*
X102852500Y-54429000D02*
X102852500Y-55019000D01*
X102852500Y-61724892D02*
X102852500Y-66077489D01*
X102611200Y-49519066D02*
X102611200Y-51089027D01*
X102611200Y-52010972D02*
X102611200Y-53671000D01*
X102611200Y-54429000D02*
X102611200Y-55019000D01*
X102611200Y-60481000D02*
X102611200Y-60493989D01*
X102611200Y-61872399D02*
X102611200Y-66073699D01*
X102369900Y-49532733D02*
X102369900Y-51171000D01*
X102369900Y-51929000D02*
X102369900Y-53671000D01*
X102369900Y-54429000D02*
X102369900Y-55019000D01*
X102369900Y-60481000D02*
X102369900Y-60493989D01*
X102369900Y-61864583D02*
X102369900Y-66069908D01*
X102128600Y-49564501D02*
X102128600Y-51171000D01*
X102128600Y-51929000D02*
X102128600Y-53671000D01*
X102128600Y-54429000D02*
X102128600Y-55019000D01*
X102128600Y-60481000D02*
X102128600Y-60493989D01*
X102128600Y-61706024D02*
X102128600Y-66041807D01*
X101887300Y-49596269D02*
X101887300Y-51171000D01*
X101887300Y-51929000D02*
X101887300Y-53671000D01*
X101887300Y-54429000D02*
X101887300Y-55019000D01*
X101887300Y-60481000D02*
X101887300Y-60493989D01*
X101887300Y-61251989D02*
X101887300Y-66004883D01*
X101646000Y-49628037D02*
X101646000Y-51171000D01*
X101646000Y-51929000D02*
X101646000Y-53671000D01*
X101646000Y-54429000D02*
X101646000Y-55019000D01*
X101646000Y-60481000D02*
X101646000Y-60493989D01*
X101646000Y-61251989D02*
X101646000Y-65967959D01*
X101404700Y-49659804D02*
X101404700Y-51171000D01*
X101404700Y-51929000D02*
X101404700Y-53671000D01*
X101404700Y-54429000D02*
X101404700Y-55019000D01*
X101404700Y-60481000D02*
X101404700Y-60493989D01*
X101404700Y-61251989D02*
X101404700Y-65931035D01*
X101163400Y-49719450D02*
X101163400Y-51171000D01*
X101163400Y-51929000D02*
X101163400Y-53671000D01*
X101163400Y-54429000D02*
X101163400Y-55019000D01*
X101163400Y-60481000D02*
X101163400Y-60495830D01*
X101163400Y-61455561D02*
X101163400Y-65890324D01*
X100922100Y-49785462D02*
X100922100Y-51171000D01*
X100922100Y-51929000D02*
X100922100Y-53671000D01*
X100922100Y-54429000D02*
X100922100Y-55019000D01*
X100922100Y-60465504D02*
X100922100Y-60621656D01*
X100922100Y-61696861D02*
X100922100Y-65818847D01*
X100680800Y-49851475D02*
X100680800Y-51171000D01*
X100680800Y-51929000D02*
X100680800Y-53606425D01*
X100680800Y-54493576D02*
X100680800Y-55097303D01*
X100680800Y-60294888D02*
X100680800Y-60866187D01*
X100680800Y-61938161D02*
X100680800Y-65747371D01*
X100439500Y-49917487D02*
X100439500Y-51171000D01*
X100439500Y-51929000D02*
X100439500Y-53571000D01*
X100439500Y-54529000D02*
X100439500Y-59021000D01*
X100439500Y-59779000D02*
X100439500Y-61107487D01*
X100439500Y-62179461D02*
X100439500Y-65675895D01*
X100198200Y-49994645D02*
X100198200Y-51171000D01*
X100198200Y-51929000D02*
X100198200Y-53674392D01*
X100198200Y-54425608D02*
X100198200Y-59021000D01*
X100198200Y-59779000D02*
X100198200Y-61348787D01*
X100198200Y-62420761D02*
X100198200Y-65604419D01*
X99956900Y-50097568D02*
X99956900Y-51171000D01*
X99956900Y-51929000D02*
X99956900Y-59021000D01*
X99956900Y-59779000D02*
X99956900Y-61590087D01*
X99956900Y-62662061D02*
X99956900Y-65509546D01*
X99715600Y-50200491D02*
X99715600Y-51166679D01*
X99715600Y-52070387D02*
X99715600Y-59021000D01*
X99715600Y-59779000D02*
X99715600Y-61831387D01*
X99715600Y-62903361D02*
X99715600Y-65400595D01*
X99474300Y-50303414D02*
X99474300Y-51244988D01*
X99474300Y-52311687D02*
X99474300Y-59021000D01*
X99474300Y-59779000D02*
X99474300Y-62072687D01*
X99474300Y-63145902D02*
X99474300Y-65291643D01*
X99233000Y-50406338D02*
X99233000Y-51481013D01*
X99233000Y-52552987D02*
X99233000Y-59021000D01*
X99233000Y-59779000D02*
X99233000Y-62313987D01*
X99233000Y-63239634D02*
X99233000Y-65182692D01*
X98991700Y-50550716D02*
X98991700Y-51722313D01*
X98991700Y-52794287D02*
X98991700Y-59021000D01*
X98991700Y-59779000D02*
X98991700Y-62475012D01*
X98991700Y-63233012D02*
X98991700Y-65058435D01*
X98750400Y-50695131D02*
X98750400Y-51963613D01*
X98750400Y-53177008D02*
X98750400Y-59021000D01*
X98750400Y-59779000D02*
X98750400Y-62475012D01*
X98750400Y-63233012D02*
X98750400Y-64907068D01*
X98509100Y-50839546D02*
X98509100Y-52204913D01*
X98509100Y-53323276D02*
X98509100Y-59021000D01*
X98509100Y-59779000D02*
X98509100Y-60831700D01*
X98509100Y-61568300D02*
X98509100Y-62355145D01*
X98509100Y-63233054D02*
X98509100Y-64755701D01*
X98267800Y-50983961D02*
X98267800Y-52386293D01*
X98267800Y-53313708D02*
X98267800Y-58933439D01*
X98267800Y-61679000D02*
X98267800Y-61972423D01*
X98267800Y-63173401D02*
X98267800Y-64604334D01*
X98026500Y-51176553D02*
X98026500Y-52546092D01*
X98026500Y-53153910D02*
X98026500Y-58861987D01*
X98026500Y-61646602D02*
X98026500Y-61898010D01*
X98026500Y-62944517D02*
X98026500Y-64432907D01*
X97785200Y-51369871D02*
X97785200Y-58911504D01*
X97785200Y-61608976D02*
X97785200Y-61945437D01*
X97785200Y-62808582D02*
X97785200Y-64231148D01*
X97543900Y-51563188D02*
X97543900Y-59190480D01*
X97543900Y-61608976D02*
X97543900Y-62214324D01*
X97543900Y-62539695D02*
X97543900Y-64029390D01*
X97302600Y-51776889D02*
X97302600Y-55801487D01*
X97302600Y-58698514D02*
X97302600Y-60643006D01*
X97302600Y-61556993D02*
X97302600Y-63827632D01*
X97061300Y-52031166D02*
X97061300Y-55748347D01*
X97061300Y-58708976D02*
X97061300Y-60850000D01*
X97061300Y-60850000D02*
X97061300Y-63574539D01*
X96820000Y-52285443D02*
X96820000Y-55721000D01*
X96820000Y-58708976D02*
X96820000Y-60850000D01*
X96820000Y-60850000D02*
X96820000Y-63309354D01*
X96578700Y-52549040D02*
X96578700Y-55755555D01*
X96578700Y-58708976D02*
X96578700Y-60850000D01*
X96578700Y-60850000D02*
X96578700Y-63044168D01*
X96337400Y-52884844D02*
X96337400Y-55721000D01*
X96337400Y-58708976D02*
X96337400Y-60850000D01*
X96337400Y-60850000D02*
X96337400Y-62722193D01*
X96096100Y-53220648D02*
X96096100Y-55762762D01*
X96096100Y-58708976D02*
X96096100Y-60850000D01*
X96096100Y-60850000D02*
X96096100Y-62371100D01*
X95854800Y-53602571D02*
X95854800Y-55721000D01*
X95854800Y-58708976D02*
X95854800Y-60850000D01*
X95854800Y-60850000D02*
X95854800Y-62018533D01*
X95613500Y-54058308D02*
X95613500Y-55809092D01*
X95613500Y-58664277D02*
X95613500Y-60850000D01*
X95613500Y-60850000D02*
X95613500Y-61538761D01*
X95372200Y-54553880D02*
X95372200Y-56104721D01*
X95372200Y-56104721D02*
X95372200Y-60850000D01*
X95372200Y-60850000D02*
X95372200Y-61058989D01*
X95130900Y-55213263D02*
X95130900Y-56104721D01*
X95130900Y-56104721D02*
X95130900Y-60374557D01*
X94889600Y-56135666D02*
X94889600Y-59462712D01*
D18*
X103607731Y-49524284D02*
X104725251Y-49683331D01*
X105810847Y-49992571D01*
X106844430Y-50446283D01*
X107806875Y-51036070D01*
X108680372Y-51751018D01*
X109448757Y-52577899D01*
X110097813Y-53501412D01*
X110615528Y-54504467D01*
X110992323Y-55568503D01*
X111221226Y-56673832D01*
X111298000Y-57800000D01*
X111296180Y-57973780D01*
X111195838Y-59098093D01*
X110943837Y-60198386D01*
X110544841Y-61254298D01*
X110006233Y-62246291D01*
X109337979Y-63156008D01*
X108552446Y-63966616D01*
X107664168Y-64663115D01*
X106689583Y-65232616D01*
X105646724Y-65664582D01*
X104554890Y-65951020D01*
X103434284Y-66086628D01*
X102305641Y-66068898D01*
X101189847Y-65898157D01*
X100107549Y-65577566D01*
X99078774Y-65113056D01*
X98122558Y-64513223D01*
X97256596Y-63789166D01*
X96496912Y-62954284D01*
X95857563Y-62024026D01*
X95350380Y-61015604D01*
X95293681Y-60850000D01*
X97191024Y-60850000D01*
X97191024Y-61350000D01*
X97210737Y-61449106D01*
X97266876Y-61533124D01*
X97350894Y-61589263D01*
X97450000Y-61608976D01*
X97935661Y-61608976D01*
X98104713Y-61679000D01*
X98295271Y-61679000D01*
X98471324Y-61606076D01*
X98606068Y-61471332D01*
X98678992Y-61295279D01*
X98678992Y-61104721D01*
X98606068Y-60928668D01*
X98471324Y-60793924D01*
X98295271Y-60721000D01*
X98278992Y-60721000D01*
X98278992Y-59779000D01*
X100612084Y-59779000D01*
X100619086Y-60108105D01*
X100648002Y-60245802D01*
X100730592Y-60369408D01*
X100854198Y-60451998D01*
X101000000Y-60481000D01*
X102645013Y-60481000D01*
X102658002Y-60493989D01*
X101247313Y-60493989D01*
X101209985Y-60486564D01*
X101062106Y-60515979D01*
X101021680Y-60542991D01*
X100936741Y-60599745D01*
X100915596Y-60631391D01*
X99071976Y-62475012D01*
X98628968Y-62475012D01*
X98473979Y-62320024D01*
X98473979Y-62281731D01*
X98401055Y-62105678D01*
X98266311Y-61970934D01*
X98090258Y-61898010D01*
X97899700Y-61898010D01*
X97723647Y-61970934D01*
X97588903Y-62105678D01*
X97515979Y-62281731D01*
X97515979Y-62472289D01*
X97588903Y-62648342D01*
X97723647Y-62783086D01*
X97899700Y-62856010D01*
X97937993Y-62856010D01*
X98177592Y-63095610D01*
X98198737Y-63127256D01*
X98324103Y-63211022D01*
X98434653Y-63233012D01*
X98434654Y-63233012D01*
X98471981Y-63240437D01*
X98509307Y-63233012D01*
X99191636Y-63233012D01*
X99228962Y-63240437D01*
X99266288Y-63233012D01*
X99266290Y-63233012D01*
X99376840Y-63211022D01*
X99502206Y-63127256D01*
X99523353Y-63095607D01*
X101366972Y-61251989D01*
X102042826Y-61251989D01*
X102020984Y-61304721D01*
X102020984Y-61495279D01*
X102093908Y-61671332D01*
X102228652Y-61806076D01*
X102404705Y-61879000D01*
X102595263Y-61879000D01*
X102771316Y-61806076D01*
X102906060Y-61671332D01*
X102923595Y-61629000D01*
X107079022Y-61629000D01*
X107116348Y-61636425D01*
X107153674Y-61629000D01*
X107153676Y-61629000D01*
X107264226Y-61607010D01*
X107389592Y-61523244D01*
X107410739Y-61491595D01*
X109795619Y-59106716D01*
X109827264Y-59085572D01*
X109911030Y-58960206D01*
X109933020Y-58849656D01*
X109933020Y-58849655D01*
X109940445Y-58812328D01*
X109933020Y-58775002D01*
X109933020Y-55441346D01*
X109940445Y-55404020D01*
X109933020Y-55366692D01*
X109911030Y-55256142D01*
X109827264Y-55130776D01*
X109795618Y-55109631D01*
X106044391Y-51358405D01*
X106023244Y-51326756D01*
X105958976Y-51283814D01*
X105958976Y-51250000D01*
X105939263Y-51150894D01*
X105883124Y-51066876D01*
X105799106Y-51010737D01*
X105700000Y-50991024D01*
X105300000Y-50991024D01*
X105200894Y-51010737D01*
X105116876Y-51066876D01*
X105060737Y-51150894D01*
X105050000Y-51204874D01*
X105039263Y-51150894D01*
X104983124Y-51066876D01*
X104899106Y-51010737D01*
X104800000Y-50991024D01*
X104400000Y-50991024D01*
X104300894Y-51010737D01*
X104216876Y-51066876D01*
X104160737Y-51150894D01*
X104156738Y-51171000D01*
X103648408Y-51171000D01*
X103633630Y-51156222D01*
X103457577Y-51083298D01*
X103267019Y-51083298D01*
X103090966Y-51156222D01*
X103062298Y-51184890D01*
X103021332Y-51143924D01*
X102845279Y-51071000D01*
X102654721Y-51071000D01*
X102478668Y-51143924D01*
X102451592Y-51171000D01*
X99737326Y-51171000D01*
X99699999Y-51163575D01*
X99662673Y-51171000D01*
X99662672Y-51171000D01*
X99552122Y-51192990D01*
X99426756Y-51276756D01*
X99405611Y-51308402D01*
X98383400Y-52330614D01*
X98343013Y-52371001D01*
X98304720Y-52371001D01*
X98128667Y-52443925D01*
X97993923Y-52578669D01*
X97920999Y-52754722D01*
X97920999Y-52945280D01*
X97993923Y-53121333D01*
X98128667Y-53256077D01*
X98304720Y-53329001D01*
X98495278Y-53329001D01*
X98671331Y-53256077D01*
X98806075Y-53121333D01*
X98878999Y-52945280D01*
X98878999Y-52906987D01*
X98919386Y-52866600D01*
X99856987Y-51929000D01*
X102451592Y-51929000D01*
X102478668Y-51956076D01*
X102654721Y-52029000D01*
X102845279Y-52029000D01*
X103021332Y-51956076D01*
X103050000Y-51927408D01*
X103090966Y-51968374D01*
X103267019Y-52041298D01*
X103457577Y-52041298D01*
X103633630Y-51968374D01*
X103673004Y-51929000D01*
X104156738Y-51929000D01*
X104160737Y-51949106D01*
X104216876Y-52033124D01*
X104300894Y-52089263D01*
X104400000Y-52108976D01*
X104800000Y-52108976D01*
X104899106Y-52089263D01*
X104983124Y-52033124D01*
X105039263Y-51949106D01*
X105050000Y-51895126D01*
X105060737Y-51949106D01*
X105116876Y-52033124D01*
X105200894Y-52089263D01*
X105300000Y-52108976D01*
X105700000Y-52108976D01*
X105719176Y-52105162D01*
X107285014Y-53671000D01*
X100798408Y-53671000D01*
X100771332Y-53643924D01*
X100595279Y-53571000D01*
X100404721Y-53571000D01*
X100228668Y-53643924D01*
X100093924Y-53778668D01*
X100021000Y-53954721D01*
X100021000Y-54145279D01*
X100093924Y-54321332D01*
X100228668Y-54456076D01*
X100404721Y-54529000D01*
X100595279Y-54529000D01*
X100771332Y-54456076D01*
X100798408Y-54429000D01*
X107193002Y-54429000D01*
X107721000Y-54956998D01*
X107721000Y-54995291D01*
X107730821Y-55019000D01*
X100900000Y-55019000D01*
X100746743Y-55051183D01*
X100624922Y-55136384D01*
X100544980Y-55261718D01*
X100519086Y-55408105D01*
X100595956Y-59021000D01*
X98357445Y-59021000D01*
X98271356Y-58934911D01*
X98095303Y-58861987D01*
X97904745Y-58861987D01*
X97728692Y-58934911D01*
X97593948Y-59069655D01*
X97521024Y-59245708D01*
X97521024Y-59403506D01*
X97513567Y-59440993D01*
X97520992Y-59478320D01*
X97520993Y-60591024D01*
X97450000Y-60591024D01*
X97350894Y-60610737D01*
X97266876Y-60666876D01*
X97210737Y-60750894D01*
X97191024Y-60850000D01*
X95293681Y-60850000D01*
X94984747Y-59947680D01*
X94767432Y-58840015D01*
X94702455Y-57713105D01*
X94791018Y-56587803D01*
X94896347Y-56104721D01*
X95421000Y-56104721D01*
X95421000Y-56295279D01*
X95485088Y-56450000D01*
X95421000Y-56604721D01*
X95421000Y-56795279D01*
X95485088Y-56950000D01*
X95421000Y-57104721D01*
X95421000Y-57295279D01*
X95485088Y-57450000D01*
X95421000Y-57604721D01*
X95421000Y-57795279D01*
X95491024Y-57964331D01*
X95491024Y-58450000D01*
X95510737Y-58549106D01*
X95566876Y-58633124D01*
X95650894Y-58689263D01*
X95750000Y-58708976D01*
X97250000Y-58708976D01*
X97349106Y-58689263D01*
X97433124Y-58633124D01*
X97489263Y-58549106D01*
X97508976Y-58450000D01*
X97508976Y-56050000D01*
X97489263Y-55950894D01*
X97433124Y-55866876D01*
X97349106Y-55810737D01*
X97250000Y-55791024D01*
X97164331Y-55791024D01*
X96995279Y-55721000D01*
X96804721Y-55721000D01*
X96650000Y-55785088D01*
X96495279Y-55721000D01*
X96304721Y-55721000D01*
X96150000Y-55785088D01*
X95995279Y-55721000D01*
X95804721Y-55721000D01*
X95628668Y-55793924D01*
X95493924Y-55928668D01*
X95421000Y-56104721D01*
X94896347Y-56104721D01*
X95031483Y-55484932D01*
X95419400Y-54424899D01*
X95947590Y-53427321D01*
X96606281Y-52510656D01*
X97383283Y-51691866D01*
X98264219Y-50986104D01*
X99232787Y-50406428D01*
X100271065Y-49963565D01*
X101359839Y-49665710D01*
X102478964Y-49518374D01*
X103607731Y-49524284D01*
D17*
G04 #@! TO.N,+BATT*
X101138464Y-55527000D02*
X104857409Y-55527000D01*
X101138464Y-55768300D02*
X104474687Y-55768300D01*
X101138464Y-56009600D02*
X104352226Y-56009600D01*
X101138464Y-56250900D02*
X104344000Y-56250900D01*
X105564691Y-56250900D02*
X105844000Y-56250900D01*
X101138464Y-56492200D02*
X104435814Y-56492200D01*
X105464185Y-56492200D02*
X105915101Y-56492200D01*
X101138464Y-56733500D02*
X104775139Y-56733500D01*
X105124860Y-56733500D02*
X106154419Y-56733500D01*
X106745580Y-56733500D02*
X107873000Y-56733500D01*
X101138464Y-56974800D02*
X107873000Y-56974800D01*
X101138464Y-57216100D02*
X107873000Y-57216100D01*
X101138464Y-57457400D02*
X107873000Y-57457400D01*
X101138464Y-57698700D02*
X107873000Y-57698700D01*
X101138464Y-57940000D02*
X107873000Y-57940000D01*
X101138464Y-58181300D02*
X107873000Y-58181300D01*
X101138464Y-58422600D02*
X107873000Y-58422600D01*
X101098710Y-58663900D02*
X107873000Y-58663900D01*
X101101607Y-58905200D02*
X101537787Y-58905200D01*
X102462213Y-58905200D02*
X107679209Y-58905200D01*
X101106741Y-59146500D02*
X101407653Y-59146500D01*
X102592348Y-59146500D02*
X107437909Y-59146500D01*
X101111876Y-59387800D02*
X101394000Y-59387800D01*
X102803392Y-59387800D02*
X107196609Y-59387800D01*
X101117010Y-59629100D02*
X101480388Y-59629100D01*
X103044692Y-59629100D02*
X106955309Y-59629100D01*
X101122144Y-59870400D02*
X101793513Y-59870400D01*
X103285992Y-59870400D02*
X106714009Y-59870400D01*
X107873000Y-56706004D02*
X107873000Y-58711408D01*
X107631700Y-56706004D02*
X107631700Y-58952708D01*
X107390400Y-56706004D02*
X107390400Y-59194008D01*
X107149100Y-56706004D02*
X107149100Y-59435308D01*
X106907800Y-56706004D02*
X106907800Y-59676608D01*
X106666500Y-56766257D02*
X106666500Y-59917908D01*
X106425200Y-56806004D02*
X106425200Y-59973000D01*
X106183900Y-56745711D02*
X106183900Y-59973000D01*
X105942600Y-56549617D02*
X105942600Y-59973000D01*
X105701300Y-56206000D02*
X105701300Y-59973000D01*
X105460000Y-56497013D02*
X105460000Y-59973000D01*
X105218700Y-56694631D02*
X105218700Y-59973000D01*
X104977400Y-56756000D02*
X104977400Y-59973000D01*
X104736100Y-55527000D02*
X104736100Y-55582670D01*
X104736100Y-56717329D02*
X104736100Y-59973000D01*
X104494800Y-55527000D02*
X104494800Y-55748187D01*
X104494800Y-56551813D02*
X104494800Y-59973000D01*
X104253500Y-55527000D02*
X104253500Y-59973000D01*
X104012200Y-55527000D02*
X104012200Y-59973000D01*
X103770900Y-55527000D02*
X103770900Y-59973000D01*
X103529600Y-55527000D02*
X103529600Y-59973000D01*
X103288300Y-55527000D02*
X103288300Y-59872709D01*
X103047000Y-55527000D02*
X103047000Y-59631409D01*
X102805700Y-55527000D02*
X102805700Y-59390109D01*
X102564400Y-55527000D02*
X102564400Y-59079028D01*
X102323100Y-55527000D02*
X102323100Y-58777903D01*
X102081800Y-55527000D02*
X102081800Y-58694000D01*
X101840500Y-55527000D02*
X101840500Y-58710137D01*
X101840500Y-59889862D02*
X101840500Y-59973000D01*
X101599200Y-55527000D02*
X101599200Y-58843787D01*
X101599200Y-59756213D02*
X101599200Y-59973000D01*
X101357900Y-55527000D02*
X101357900Y-59973000D01*
X101116600Y-58609919D02*
X101116600Y-59609877D01*
D18*
X104840409Y-55544000D02*
X104829459Y-55544000D01*
X104606729Y-55636258D01*
X104436258Y-55806729D01*
X104344000Y-56029459D01*
X104344000Y-56270541D01*
X104436258Y-56493271D01*
X104606729Y-56663742D01*
X104829459Y-56756000D01*
X105070541Y-56756000D01*
X105293271Y-56663742D01*
X105463742Y-56493271D01*
X105556000Y-56270541D01*
X105556000Y-56259591D01*
X105609591Y-56206000D01*
X105844000Y-56206000D01*
X105844000Y-56320545D01*
X105936258Y-56543275D01*
X106106729Y-56713746D01*
X106329459Y-56806004D01*
X106570541Y-56806004D01*
X106793271Y-56713746D01*
X106801013Y-56706004D01*
X107873000Y-56706004D01*
X107873000Y-58711408D01*
X106611409Y-59973000D01*
X103388592Y-59973000D01*
X102606000Y-59190409D01*
X102606000Y-59179459D01*
X102513742Y-58956729D01*
X102343271Y-58786258D01*
X102120541Y-58694000D01*
X101879459Y-58694000D01*
X101656729Y-58786258D01*
X101486258Y-58956729D01*
X101394000Y-59179459D01*
X101394000Y-59420541D01*
X101486258Y-59643271D01*
X101656729Y-59813742D01*
X101879459Y-59906000D01*
X101890409Y-59906000D01*
X101957409Y-59973000D01*
X101124326Y-59973000D01*
X101096542Y-58667145D01*
X101108894Y-58648659D01*
X101138464Y-58500000D01*
X101138464Y-55527000D01*
X104857409Y-55527000D01*
X104840409Y-55544000D01*
G04 #@! TD*
M02*
