G04 #@! TF.GenerationSoftware,KiCad,Pcbnew,(5.0.1)-4*
G04 #@! TF.CreationDate,2019-01-02T12:26:21-05:00*
G04 #@! TF.ProjectId,XHP70_LED_driver,58485037305F4C45445F647269766572,rev?*
G04 #@! TF.SameCoordinates,Original*
G04 #@! TF.FileFunction,Other,User*
%FSLAX46Y46*%
G04 Gerber Fmt 4.6, Leading zero omitted, Abs format (unit mm)*
G04 Created by KiCad (PCBNEW (5.0.1)-4) date 1/2/2019 12:26:21 PM*
%MOMM*%
%LPD*%
G01*
G04 APERTURE LIST*
%ADD10C,0.150000*%
%ADD11C,0.050000*%
G04 APERTURE END LIST*
D10*
G04 #@! TO.C,U1*
X101500000Y-59250000D02*
X101500000Y-54750000D01*
X98000000Y-59250000D02*
X101500000Y-59250000D01*
X98000000Y-54750000D02*
X98000000Y-59250000D01*
X101500000Y-54750000D02*
X98000000Y-54750000D01*
D11*
G04 #@! TO.C,U2*
X107162500Y-51187500D02*
X102862500Y-51187500D01*
X107162500Y-55487500D02*
X102862500Y-55487500D01*
X102862500Y-55487500D02*
X102862500Y-51187500D01*
X107162500Y-55487500D02*
X107162500Y-51187500D01*
G04 #@! TO.C,C1*
X95550000Y-57800000D02*
X97550000Y-57800000D01*
X95550000Y-57800000D02*
X95550000Y-58600000D01*
X97550000Y-58600000D02*
X97550000Y-57800000D01*
X97550000Y-58600000D02*
X95550000Y-58600000D01*
G04 #@! TO.C,C5*
X110450000Y-57270000D02*
X106950000Y-57270000D01*
X110450000Y-57270000D02*
X110450000Y-55520000D01*
X106950000Y-55520000D02*
X106950000Y-57270000D01*
X106950000Y-55520000D02*
X110450000Y-55520000D01*
G04 #@! TO.C,C11*
X106100000Y-57650000D02*
X106100000Y-62150000D01*
X106100000Y-57650000D02*
X103100000Y-57650000D01*
X103100000Y-62150000D02*
X106100000Y-62150000D01*
X103100000Y-62150000D02*
X103100000Y-57650000D01*
G04 #@! TO.C,R6*
X102300000Y-59700000D02*
X102300000Y-62800000D01*
X102300000Y-59700000D02*
X100500000Y-59700000D01*
X100500000Y-62800000D02*
X102300000Y-62800000D01*
X100500000Y-62800000D02*
X100500000Y-59700000D01*
G04 #@! TO.C,D1*
X109000000Y-59850000D02*
X109000000Y-57350000D01*
X109000000Y-57350000D02*
X110400000Y-57350000D01*
X110400000Y-57350000D02*
X110400000Y-59850000D01*
X110400000Y-59850000D02*
X109000000Y-59850000D01*
G04 #@! TO.C,C6*
X96350000Y-61550000D02*
X96350000Y-59550000D01*
X96350000Y-61550000D02*
X97150000Y-61550000D01*
X97150000Y-59550000D02*
X96350000Y-59550000D01*
X97150000Y-59550000D02*
X97150000Y-61550000D01*
G04 #@! TO.C,C7*
X101300000Y-51850000D02*
X99300000Y-51850000D01*
X101300000Y-51850000D02*
X101300000Y-51050000D01*
X99300000Y-51050000D02*
X99300000Y-51850000D01*
X99300000Y-51050000D02*
X101300000Y-51050000D01*
G04 #@! TO.C,R3*
X107250000Y-59700000D02*
X107250000Y-61300000D01*
X107250000Y-59700000D02*
X106350000Y-59700000D01*
X106350000Y-61300000D02*
X107250000Y-61300000D01*
X106350000Y-61300000D02*
X106350000Y-59700000D01*
G04 #@! TO.C,U3*
X97200000Y-63600000D02*
X100800000Y-63600000D01*
X100800000Y-63600000D02*
X100800000Y-59800000D01*
X100800000Y-59800000D02*
X97200000Y-59800000D01*
X97200000Y-59800000D02*
X97200000Y-63600000D01*
G04 #@! TO.C,C4*
X98050000Y-53450000D02*
X100050000Y-53450000D01*
X98050000Y-53450000D02*
X98050000Y-54250000D01*
X100050000Y-54250000D02*
X100050000Y-53450000D01*
X100050000Y-54250000D02*
X98050000Y-54250000D01*
G04 #@! TO.C,C3*
X95550000Y-58600000D02*
X97550000Y-58600000D01*
X95550000Y-58600000D02*
X95550000Y-59400000D01*
X97550000Y-59400000D02*
X97550000Y-58600000D01*
X97550000Y-59400000D02*
X95550000Y-59400000D01*
G04 #@! TO.C,C8*
X101300000Y-52750000D02*
X99300000Y-52750000D01*
X101300000Y-52750000D02*
X101300000Y-51950000D01*
X99300000Y-51950000D02*
X99300000Y-52750000D01*
X99300000Y-51950000D02*
X101300000Y-51950000D01*
G04 #@! TO.C,R1*
X97500000Y-55850000D02*
X95900000Y-55850000D01*
X97500000Y-55850000D02*
X97500000Y-54950000D01*
X95900000Y-54950000D02*
X95900000Y-55850000D01*
X95900000Y-54950000D02*
X97500000Y-54950000D01*
G04 #@! TO.C,R2*
X106350000Y-59600000D02*
X106350000Y-58000000D01*
X106350000Y-59600000D02*
X107250000Y-59600000D01*
X107250000Y-58000000D02*
X106350000Y-58000000D01*
X107250000Y-58000000D02*
X107250000Y-59600000D01*
G04 #@! TO.C,R5*
X102250000Y-51200000D02*
X102250000Y-52800000D01*
X102250000Y-51200000D02*
X101350000Y-51200000D01*
X101350000Y-52800000D02*
X102250000Y-52800000D01*
X101350000Y-52800000D02*
X101350000Y-51200000D01*
G04 #@! TO.C,C10*
X103100000Y-58700000D02*
X103100000Y-60700000D01*
X103100000Y-58700000D02*
X102300000Y-58700000D01*
X102300000Y-60700000D02*
X103100000Y-60700000D01*
X102300000Y-60700000D02*
X102300000Y-58700000D01*
G04 #@! TO.C,R4*
X101800000Y-53750000D02*
X100200000Y-53750000D01*
X101800000Y-53750000D02*
X101800000Y-52850000D01*
X100200000Y-52850000D02*
X100200000Y-53750000D01*
X100200000Y-52850000D02*
X101800000Y-52850000D01*
G04 #@! TD*
M02*
