G04 #@! TF.GenerationSoftware,KiCad,Pcbnew,(5.0.1)-4*
G04 #@! TF.CreationDate,2019-01-02T07:29:33-05:00*
G04 #@! TF.ProjectId,XHP70_LED_driver,58485037305F4C45445F647269766572,rev?*
G04 #@! TF.SameCoordinates,Original*
G04 #@! TF.FileFunction,Legend,Bot*
G04 #@! TF.FilePolarity,Positive*
%FSLAX46Y46*%
G04 Gerber Fmt 4.6, Leading zero omitted, Abs format (unit mm)*
G04 Created by KiCad (PCBNEW (5.0.1)-4) date 1/2/2019 7:29:33 AM*
%MOMM*%
%LPD*%
G01*
G04 APERTURE LIST*
%ADD10C,0.120000*%
%ADD11C,0.100000*%
%ADD12C,0.150000*%
G04 APERTURE END LIST*
D10*
G04 #@! TO.C,C2*
X106080000Y-59900000D02*
X106080000Y-61900000D01*
X103120000Y-61900000D02*
X103120000Y-59900000D01*
G04 #@! TO.C,L1*
X102550000Y-60450000D02*
X102550000Y-58750000D01*
X95950000Y-60450000D02*
X102550000Y-60450000D01*
X95950000Y-58750000D02*
X95950000Y-60450000D01*
X95950000Y-54050000D02*
X95950000Y-55750000D01*
X102550000Y-54050000D02*
X95950000Y-54050000D01*
X102550000Y-55750000D02*
X102550000Y-54050000D01*
G04 #@! TO.C,C9*
X97000000Y-60730000D02*
X97500000Y-60730000D01*
X97500000Y-61670000D02*
X97000000Y-61670000D01*
G04 #@! TO.C,C2*
D11*
X104778571Y-60816666D02*
X104802380Y-60792857D01*
X104826190Y-60721428D01*
X104826190Y-60673809D01*
X104802380Y-60602380D01*
X104754761Y-60554761D01*
X104707142Y-60530952D01*
X104611904Y-60507142D01*
X104540476Y-60507142D01*
X104445238Y-60530952D01*
X104397619Y-60554761D01*
X104350000Y-60602380D01*
X104326190Y-60673809D01*
X104326190Y-60721428D01*
X104350000Y-60792857D01*
X104373809Y-60816666D01*
X104373809Y-61007142D02*
X104350000Y-61030952D01*
X104326190Y-61078571D01*
X104326190Y-61197619D01*
X104350000Y-61245238D01*
X104373809Y-61269047D01*
X104421428Y-61292857D01*
X104469047Y-61292857D01*
X104540476Y-61269047D01*
X104826190Y-60983333D01*
X104826190Y-61292857D01*
G04 #@! TO.C,L1*
X97283333Y-53826190D02*
X97521428Y-53826190D01*
X97521428Y-53326190D01*
X96854761Y-53826190D02*
X97140476Y-53826190D01*
X96997619Y-53826190D02*
X96997619Y-53326190D01*
X97045238Y-53397619D01*
X97092857Y-53445238D01*
X97140476Y-53469047D01*
G04 #@! TO.C,C9*
D12*
X99666666Y-61757142D02*
X99714285Y-61804761D01*
X99857142Y-61852380D01*
X99952380Y-61852380D01*
X100095238Y-61804761D01*
X100190476Y-61709523D01*
X100238095Y-61614285D01*
X100285714Y-61423809D01*
X100285714Y-61280952D01*
X100238095Y-61090476D01*
X100190476Y-60995238D01*
X100095238Y-60900000D01*
X99952380Y-60852380D01*
X99857142Y-60852380D01*
X99714285Y-60900000D01*
X99666666Y-60947619D01*
X99190476Y-61852380D02*
X99000000Y-61852380D01*
X98904761Y-61804761D01*
X98857142Y-61757142D01*
X98761904Y-61614285D01*
X98714285Y-61423809D01*
X98714285Y-61042857D01*
X98761904Y-60947619D01*
X98809523Y-60900000D01*
X98904761Y-60852380D01*
X99095238Y-60852380D01*
X99190476Y-60900000D01*
X99238095Y-60947619D01*
X99285714Y-61042857D01*
X99285714Y-61280952D01*
X99238095Y-61376190D01*
X99190476Y-61423809D01*
X99095238Y-61471428D01*
X98904761Y-61471428D01*
X98809523Y-61423809D01*
X98761904Y-61376190D01*
X98714285Y-61280952D01*
G04 #@! TD*
M02*
