G04 #@! TF.GenerationSoftware,KiCad,Pcbnew,(5.0.1)-4*
G04 #@! TF.CreationDate,2018-12-27T15:39:12-05:00*
G04 #@! TF.ProjectId,XHP70_LED_driver,58485037305F4C45445F647269766572,rev?*
G04 #@! TF.SameCoordinates,Original*
G04 #@! TF.FileFunction,Paste,Top*
G04 #@! TF.FilePolarity,Positive*
%FSLAX46Y46*%
G04 Gerber Fmt 4.6, Leading zero omitted, Abs format (unit mm)*
G04 Created by KiCad (PCBNEW (5.0.1)-4) date 12/27/2018 3:39:12 PM*
%MOMM*%
%LPD*%
G01*
G04 APERTURE LIST*
%ADD10R,0.650000X1.060000*%
%ADD11R,1.300000X0.700000*%
%ADD12R,0.500000X0.600000*%
%ADD13R,0.600000X0.500000*%
%ADD14R,1.200000X0.900000*%
%ADD15R,0.400000X0.600000*%
%ADD16R,2.500000X1.000000*%
%ADD17R,0.240000X0.600000*%
%ADD18R,2.050000X3.050000*%
%ADD19R,0.600000X0.240000*%
G04 APERTURE END LIST*
D10*
G04 #@! TO.C,U2*
X98050000Y-63000000D03*
X99000000Y-63000000D03*
X99950000Y-63000000D03*
X99950000Y-60800000D03*
X98050000Y-60800000D03*
X99000000Y-60800000D03*
G04 #@! TD*
D11*
G04 #@! TO.C,R8*
X101400000Y-60250000D03*
X101400000Y-62150000D03*
G04 #@! TD*
D12*
G04 #@! TO.C,C3*
X98700000Y-52650000D03*
X98700000Y-53750000D03*
G04 #@! TD*
G04 #@! TO.C,C8*
X108800000Y-59150000D03*
X108800000Y-60250000D03*
G04 #@! TD*
D13*
G04 #@! TO.C,C2*
X95950000Y-59000000D03*
X97050000Y-59000000D03*
G04 #@! TD*
D12*
G04 #@! TO.C,C5*
X96600000Y-60250000D03*
X96600000Y-61350000D03*
G04 #@! TD*
D14*
G04 #@! TO.C,D2*
X103000000Y-56850000D03*
X103000000Y-53550000D03*
G04 #@! TD*
D15*
G04 #@! TO.C,R1*
X97000000Y-55500000D03*
X96100000Y-55500000D03*
G04 #@! TD*
G04 #@! TO.C,R2*
X96950000Y-54200000D03*
X97850000Y-54200000D03*
G04 #@! TD*
D16*
G04 #@! TO.C,C9*
X103800000Y-58250000D03*
X103800000Y-61250000D03*
G04 #@! TD*
G04 #@! TO.C,C10*
X106800000Y-61250000D03*
X106800000Y-58250000D03*
G04 #@! TD*
D17*
G04 #@! TO.C,U1*
X99500000Y-54850000D03*
X99500000Y-59150000D03*
X100000000Y-54850000D03*
X100000000Y-59150000D03*
D18*
X99750000Y-57000000D03*
D19*
X101400000Y-55750000D03*
X101400000Y-56750000D03*
X101400000Y-56250000D03*
X101400000Y-58250000D03*
X101400000Y-57250000D03*
X101400000Y-58750000D03*
X101400000Y-55250000D03*
X101400000Y-57750000D03*
D17*
X100500000Y-59150000D03*
X100500000Y-54850000D03*
D19*
X98100000Y-58750000D03*
X98100000Y-55250000D03*
X98100000Y-55750000D03*
X98100000Y-56250000D03*
X98100000Y-58250000D03*
X98100000Y-57750000D03*
X98100000Y-57250000D03*
X98100000Y-56750000D03*
D17*
X99000000Y-59150000D03*
X99000000Y-54850000D03*
G04 #@! TD*
M02*
