M48
;DRILL file {KiCad (5.0.1)-4} date 1/2/2019 12:25:06 PM
;FORMAT={-:-/ absolute / inch / decimal}
FMAT,2
INCH,TZ
T1C0.0118
%
G90
G05
M72
T1
X3.7638Y-2.3268
X3.7756Y-2.2126
X3.7756Y-2.2323
X3.7756Y-2.252
X3.7756Y-2.2717
X3.7953Y-2.2126
X3.7953Y-2.2323
X3.7953Y-2.252
X3.7953Y-2.2717
X3.815Y-2.2126
X3.815Y-2.2323
X3.815Y-2.252
X3.8581Y-2.4558
X3.8583Y-2.3363
X3.8661Y-2.4094
X3.874Y-2.0807
X3.8976Y-2.4558
X3.9567Y-2.128
X3.9606Y-2.3858
X4.0157Y-2.3346
X4.0354Y-2.4173
X4.0453Y-2.0295
X4.0694Y-2.03
X4.0768Y-2.187
X4.1319Y-2.2106
X4.1909Y-2.2126
X4.2598Y-2.1614
X4.2601Y-2.2913
X3.8976Y-2.1949
X3.8976Y-2.2146
X3.8976Y-2.2343
X3.8976Y-2.2539
X3.8976Y-2.2736
X3.8976Y-2.2933
X3.9173Y-2.1949
X3.9173Y-2.2146
X3.9173Y-2.2343
X3.9173Y-2.2539
X3.9173Y-2.2736
X3.9173Y-2.2933
X3.937Y-2.1949
X3.937Y-2.2146
X3.937Y-2.2343
X3.937Y-2.2539
X3.937Y-2.2736
X3.937Y-2.2933
X3.9567Y-2.1949
X3.9567Y-2.2146
X3.9567Y-2.2343
X3.9567Y-2.2539
X3.9567Y-2.2736
X3.9567Y-2.2933
T0
M30
