G04 #@! TF.GenerationSoftware,KiCad,Pcbnew,(5.0.1)-4*
G04 #@! TF.CreationDate,2019-01-02T12:26:21-05:00*
G04 #@! TF.ProjectId,XHP70_LED_driver,58485037305F4C45445F647269766572,rev?*
G04 #@! TF.SameCoordinates,Original*
G04 #@! TF.FileFunction,Legend,Bot*
G04 #@! TF.FilePolarity,Positive*
%FSLAX46Y46*%
G04 Gerber Fmt 4.6, Leading zero omitted, Abs format (unit mm)*
G04 Created by KiCad (PCBNEW (5.0.1)-4) date 1/2/2019 12:26:21 PM*
%MOMM*%
%LPD*%
G01*
G04 APERTURE LIST*
%ADD10C,0.120000*%
%ADD11C,0.100000*%
G04 APERTURE END LIST*
D10*
G04 #@! TO.C,C2*
X106080000Y-59900000D02*
X106080000Y-61900000D01*
X103120000Y-61900000D02*
X103120000Y-59900000D01*
G04 #@! TO.C,L1*
X102550000Y-60450000D02*
X102550000Y-58750000D01*
X95950000Y-60450000D02*
X102550000Y-60450000D01*
X95950000Y-58750000D02*
X95950000Y-60450000D01*
X95950000Y-54050000D02*
X95950000Y-55750000D01*
X102550000Y-54050000D02*
X95950000Y-54050000D01*
X102550000Y-55750000D02*
X102550000Y-54050000D01*
G04 #@! TO.C,C9*
X96950000Y-60630000D02*
X97450000Y-60630000D01*
X97450000Y-61570000D02*
X96950000Y-61570000D01*
G04 #@! TO.C,C2*
D11*
X106778571Y-60816666D02*
X106802380Y-60792857D01*
X106826190Y-60721428D01*
X106826190Y-60673809D01*
X106802380Y-60602380D01*
X106754761Y-60554761D01*
X106707142Y-60530952D01*
X106611904Y-60507142D01*
X106540476Y-60507142D01*
X106445238Y-60530952D01*
X106397619Y-60554761D01*
X106350000Y-60602380D01*
X106326190Y-60673809D01*
X106326190Y-60721428D01*
X106350000Y-60792857D01*
X106373809Y-60816666D01*
X106373809Y-61007142D02*
X106350000Y-61030952D01*
X106326190Y-61078571D01*
X106326190Y-61197619D01*
X106350000Y-61245238D01*
X106373809Y-61269047D01*
X106421428Y-61292857D01*
X106469047Y-61292857D01*
X106540476Y-61269047D01*
X106826190Y-60983333D01*
X106826190Y-61292857D01*
G04 #@! TO.C,L1*
X97283333Y-53826190D02*
X97521428Y-53826190D01*
X97521428Y-53326190D01*
X96854761Y-53826190D02*
X97140476Y-53826190D01*
X96997619Y-53826190D02*
X96997619Y-53326190D01*
X97045238Y-53397619D01*
X97092857Y-53445238D01*
X97140476Y-53469047D01*
G04 #@! TO.C,C9*
X97233333Y-62178571D02*
X97257142Y-62202380D01*
X97328571Y-62226190D01*
X97376190Y-62226190D01*
X97447619Y-62202380D01*
X97495238Y-62154761D01*
X97519047Y-62107142D01*
X97542857Y-62011904D01*
X97542857Y-61940476D01*
X97519047Y-61845238D01*
X97495238Y-61797619D01*
X97447619Y-61750000D01*
X97376190Y-61726190D01*
X97328571Y-61726190D01*
X97257142Y-61750000D01*
X97233333Y-61773809D01*
X96995238Y-62226190D02*
X96900000Y-62226190D01*
X96852380Y-62202380D01*
X96828571Y-62178571D01*
X96780952Y-62107142D01*
X96757142Y-62011904D01*
X96757142Y-61821428D01*
X96780952Y-61773809D01*
X96804761Y-61750000D01*
X96852380Y-61726190D01*
X96947619Y-61726190D01*
X96995238Y-61750000D01*
X97019047Y-61773809D01*
X97042857Y-61821428D01*
X97042857Y-61940476D01*
X97019047Y-61988095D01*
X96995238Y-62011904D01*
X96947619Y-62035714D01*
X96852380Y-62035714D01*
X96804761Y-62011904D01*
X96780952Y-61988095D01*
X96757142Y-61940476D01*
G04 #@! TO.C,R7*
X105133333Y-52976190D02*
X105300000Y-52738095D01*
X105419047Y-52976190D02*
X105419047Y-52476190D01*
X105228571Y-52476190D01*
X105180952Y-52500000D01*
X105157142Y-52523809D01*
X105133333Y-52571428D01*
X105133333Y-52642857D01*
X105157142Y-52690476D01*
X105180952Y-52714285D01*
X105228571Y-52738095D01*
X105419047Y-52738095D01*
X104966666Y-52476190D02*
X104633333Y-52476190D01*
X104847619Y-52976190D01*
G04 #@! TD*
M02*
