G04 #@! TF.GenerationSoftware,KiCad,Pcbnew,(5.0.1)-4*
G04 #@! TF.CreationDate,2019-01-02T07:29:33-05:00*
G04 #@! TF.ProjectId,XHP70_LED_driver,58485037305F4C45445F647269766572,rev?*
G04 #@! TF.SameCoordinates,Original*
G04 #@! TF.FileFunction,Copper,L1,Top,Signal*
G04 #@! TF.FilePolarity,Positive*
%FSLAX46Y46*%
G04 Gerber Fmt 4.6, Leading zero omitted, Abs format (unit mm)*
G04 Created by KiCad (PCBNEW (5.0.1)-4) date 1/2/2019 7:29:33 AM*
%MOMM*%
%LPD*%
G01*
G04 APERTURE LIST*
G04 #@! TA.AperFunction,SMDPad,CuDef*
%ADD10R,0.600000X0.500000*%
G04 #@! TD*
G04 #@! TA.AperFunction,SMDPad,CuDef*
%ADD11R,1.000000X1.250000*%
G04 #@! TD*
G04 #@! TA.AperFunction,SMDPad,CuDef*
%ADD12R,2.500000X1.000000*%
G04 #@! TD*
G04 #@! TA.AperFunction,SMDPad,CuDef*
%ADD13R,1.300000X0.700000*%
G04 #@! TD*
G04 #@! TA.AperFunction,SMDPad,CuDef*
%ADD14R,0.700000X0.600000*%
G04 #@! TD*
G04 #@! TA.AperFunction,SMDPad,CuDef*
%ADD15R,0.500000X0.600000*%
G04 #@! TD*
G04 #@! TA.AperFunction,SMDPad,CuDef*
%ADD16R,0.600000X0.400000*%
G04 #@! TD*
G04 #@! TA.AperFunction,SMDPad,CuDef*
%ADD17R,0.925000X0.925000*%
G04 #@! TD*
G04 #@! TA.AperFunction,SMDPad,CuDef*
%ADD18O,0.200000X0.750000*%
G04 #@! TD*
G04 #@! TA.AperFunction,SMDPad,CuDef*
%ADD19O,0.750000X0.200000*%
G04 #@! TD*
G04 #@! TA.AperFunction,SMDPad,CuDef*
%ADD20R,0.650000X1.060000*%
G04 #@! TD*
G04 #@! TA.AperFunction,SMDPad,CuDef*
%ADD21R,0.240000X0.600000*%
G04 #@! TD*
G04 #@! TA.AperFunction,SMDPad,CuDef*
%ADD22R,0.600000X0.240000*%
G04 #@! TD*
G04 #@! TA.AperFunction,ComponentPad*
%ADD23R,0.500000X0.500000*%
G04 #@! TD*
G04 #@! TA.AperFunction,SMDPad,CuDef*
%ADD24R,3.000000X1.000000*%
G04 #@! TD*
G04 #@! TA.AperFunction,SMDPad,CuDef*
%ADD25R,0.400000X0.600000*%
G04 #@! TD*
G04 #@! TA.AperFunction,ViaPad*
%ADD26C,0.450000*%
G04 #@! TD*
G04 #@! TA.AperFunction,ViaPad*
%ADD27C,0.800000*%
G04 #@! TD*
G04 #@! TA.AperFunction,Conductor*
%ADD28C,0.250000*%
G04 #@! TD*
G04 #@! TA.AperFunction,Conductor*
%ADD29C,0.254000*%
G04 #@! TD*
%ADD30C,0.254000*%
G04 APERTURE END LIST*
D10*
G04 #@! TO.P,C1,2*
G04 #@! TO.N,Net-(C1-Pad2)*
X96050000Y-58200000D03*
G04 #@! TO.P,C1,1*
G04 #@! TO.N,Net-(C1-Pad1)*
X97150000Y-58200000D03*
G04 #@! TD*
D11*
G04 #@! TO.P,C5,2*
G04 #@! TO.N,Net-(C5-Pad2)*
X109700000Y-56300000D03*
G04 #@! TO.P,C5,1*
G04 #@! TO.N,/LED_K*
X107700000Y-56300000D03*
G04 #@! TD*
D12*
G04 #@! TO.P,C11,2*
G04 #@! TO.N,/LED_A*
X104600000Y-58400000D03*
G04 #@! TO.P,C11,1*
G04 #@! TO.N,/LED_K*
X104600000Y-61400000D03*
G04 #@! TD*
D13*
G04 #@! TO.P,R6,2*
G04 #@! TO.N,GND*
X101400000Y-60300000D03*
G04 #@! TO.P,R6,1*
G04 #@! TO.N,/LED_K*
X101400000Y-62200000D03*
G04 #@! TD*
D14*
G04 #@! TO.P,D1,1*
G04 #@! TO.N,Net-(C5-Pad2)*
X109700000Y-57900000D03*
G04 #@! TO.P,D1,2*
G04 #@! TO.N,+BATT*
X109700000Y-59300000D03*
G04 #@! TD*
D15*
G04 #@! TO.P,C6,1*
G04 #@! TO.N,/LED_K*
X96700000Y-61150000D03*
G04 #@! TO.P,C6,2*
G04 #@! TO.N,Net-(C6-Pad2)*
X96700000Y-60050000D03*
G04 #@! TD*
G04 #@! TO.P,C7,2*
G04 #@! TO.N,Net-(C7-Pad2)*
X103000000Y-53850000D03*
G04 #@! TO.P,C7,1*
G04 #@! TO.N,/LED_K*
X103000000Y-52750000D03*
G04 #@! TD*
D16*
G04 #@! TO.P,R3,2*
G04 #@! TO.N,/ADC_VOUT*
X106800000Y-60050000D03*
G04 #@! TO.P,R3,1*
G04 #@! TO.N,/LED_K*
X106800000Y-60950000D03*
G04 #@! TD*
D17*
G04 #@! TO.P,U2,21*
G04 #@! TO.N,N/C*
X106062500Y-53562500D03*
X106062500Y-52637500D03*
X105137500Y-53562500D03*
X105137500Y-52637500D03*
D18*
G04 #@! TO.P,U2,20*
G04 #@! TO.N,/MODE*
X106400000Y-54600000D03*
G04 #@! TO.P,U2,19*
G04 #@! TO.N,/ADC_VOUT*
X106000000Y-54600000D03*
G04 #@! TO.P,U2,18*
G04 #@! TO.N,/ADC_IOUT*
X105600000Y-54600000D03*
G04 #@! TO.P,U2,17*
G04 #@! TO.N,+BATT*
X105200000Y-54600000D03*
G04 #@! TO.P,U2,16*
G04 #@! TO.N,Net-(U2-Pad16)*
X104800000Y-54600000D03*
D19*
G04 #@! TO.P,U2,15*
G04 #@! TO.N,Net-(U2-Pad15)*
X104100000Y-53900000D03*
G04 #@! TO.P,U2,14*
G04 #@! TO.N,Net-(U2-Pad14)*
X104100000Y-53500000D03*
G04 #@! TO.P,U2,13*
G04 #@! TO.N,Net-(U2-Pad13)*
X104100000Y-53100000D03*
G04 #@! TO.P,U2,12*
G04 #@! TO.N,Net-(U2-Pad12)*
X104100000Y-52700000D03*
G04 #@! TO.P,U2,11*
G04 #@! TO.N,Net-(U2-Pad11)*
X104100000Y-52300000D03*
D18*
G04 #@! TO.P,U2,10*
G04 #@! TO.N,Net-(U2-Pad10)*
X104800000Y-51600000D03*
G04 #@! TO.P,U2,9*
G04 #@! TO.N,Net-(U2-Pad9)*
X105200000Y-51600000D03*
G04 #@! TO.P,U2,8*
G04 #@! TO.N,Net-(U2-Pad8)*
X105600000Y-51600000D03*
G04 #@! TO.P,U2,7*
G04 #@! TO.N,/DAC_OUT*
X106000000Y-51600000D03*
G04 #@! TO.P,U2,6*
G04 #@! TO.N,/ENABLE*
X106400000Y-51600000D03*
D19*
G04 #@! TO.P,U2,5*
G04 #@! TO.N,Net-(C5-Pad2)*
X107100000Y-52300000D03*
G04 #@! TO.P,U2,4*
X107100000Y-52700000D03*
G04 #@! TO.P,U2,3*
G04 #@! TO.N,/LED_K*
X107100000Y-53100000D03*
G04 #@! TO.P,U2,2*
G04 #@! TO.N,Net-(U2-Pad2)*
X107100000Y-53500000D03*
G04 #@! TO.P,U2,1*
G04 #@! TO.N,Net-(U2-Pad1)*
X107100000Y-53900000D03*
G04 #@! TD*
D20*
G04 #@! TO.P,U3,5*
G04 #@! TO.N,/DAC_OUT*
X99000000Y-60600000D03*
G04 #@! TO.P,U3,6*
G04 #@! TO.N,+BATT*
X98050000Y-60600000D03*
G04 #@! TO.P,U3,4*
G04 #@! TO.N,GND*
X99950000Y-60600000D03*
G04 #@! TO.P,U3,3*
G04 #@! TO.N,/LED_K*
X99950000Y-62800000D03*
G04 #@! TO.P,U3,2*
G04 #@! TO.N,GND*
X99000000Y-62800000D03*
G04 #@! TO.P,U3,1*
G04 #@! TO.N,/ADC_IOUT*
X98050000Y-62800000D03*
G04 #@! TD*
D21*
G04 #@! TO.P,U1,1*
G04 #@! TO.N,Net-(C4-Pad2)*
X99000000Y-54850000D03*
G04 #@! TO.P,U1,10*
G04 #@! TO.N,Net-(C6-Pad2)*
X99000000Y-59150000D03*
D22*
G04 #@! TO.P,U1,5*
G04 #@! TO.N,Net-(C1-Pad2)*
X98100000Y-56750000D03*
G04 #@! TO.P,U1,6*
X98100000Y-57250000D03*
G04 #@! TO.P,U1,7*
X98100000Y-57750000D03*
G04 #@! TO.P,U1,8*
G04 #@! TO.N,Net-(C1-Pad1)*
X98100000Y-58250000D03*
G04 #@! TO.P,U1,4*
G04 #@! TO.N,Net-(C1-Pad2)*
X98100000Y-56250000D03*
G04 #@! TO.P,U1,3*
G04 #@! TO.N,Net-(R1-Pad1)*
X98100000Y-55750000D03*
G04 #@! TO.P,U1,2*
G04 #@! TO.N,/ENABLE*
X98100000Y-55250000D03*
G04 #@! TO.P,U1,9*
G04 #@! TO.N,+BATT*
X98100000Y-58750000D03*
D21*
G04 #@! TO.P,U1,20*
G04 #@! TO.N,/LED_K*
X100500000Y-54850000D03*
G04 #@! TO.P,U1,11*
G04 #@! TO.N,GND*
X100500000Y-59150000D03*
D22*
G04 #@! TO.P,U1,14*
G04 #@! TO.N,/LED_A*
X101400000Y-57750000D03*
G04 #@! TO.P,U1,19*
G04 #@! TO.N,Net-(R4-Pad2)*
X101400000Y-55250000D03*
G04 #@! TO.P,U1,12*
G04 #@! TO.N,GND*
X101400000Y-58750000D03*
G04 #@! TO.P,U1,15*
G04 #@! TO.N,/LED_A*
X101400000Y-57250000D03*
G04 #@! TO.P,U1,13*
G04 #@! TO.N,/MODE*
X101400000Y-58250000D03*
G04 #@! TO.P,U1,17*
G04 #@! TO.N,/ADC_IOUT*
X101400000Y-56250000D03*
G04 #@! TO.P,U1,16*
G04 #@! TO.N,/LED_A*
X101400000Y-56750000D03*
G04 #@! TO.P,U1,18*
G04 #@! TO.N,Net-(C8-Pad2)*
X101400000Y-55750000D03*
D21*
G04 #@! TO.P,U1,21*
G04 #@! TO.N,GND*
X100000000Y-59150000D03*
X100000000Y-54850000D03*
X99500000Y-59150000D03*
X99500000Y-54850000D03*
D23*
X99000000Y-55750000D03*
X99500000Y-55750000D03*
X100000000Y-55750000D03*
X100500000Y-55750000D03*
X99000000Y-56250000D03*
X99500000Y-56250000D03*
X100000000Y-56250000D03*
X100500000Y-56250000D03*
X99000000Y-56750000D03*
X99500000Y-56750000D03*
X100000000Y-56750000D03*
X100500000Y-56750000D03*
X99000000Y-57250000D03*
X99500000Y-57250000D03*
X100000000Y-57250000D03*
X100500000Y-57250000D03*
X99000000Y-57750000D03*
X99500000Y-57750000D03*
X100000000Y-57750000D03*
X100500000Y-57750000D03*
X99000000Y-58250000D03*
X99500000Y-58250000D03*
X100000000Y-58250000D03*
X100500000Y-58250000D03*
G04 #@! TD*
D24*
G04 #@! TO.P,TP1,1*
G04 #@! TO.N,/LED_A*
X104400000Y-57100000D03*
G04 #@! TD*
G04 #@! TO.P,TP2,1*
G04 #@! TO.N,/LED_K*
X104600000Y-62700000D03*
G04 #@! TD*
D10*
G04 #@! TO.P,C4,2*
G04 #@! TO.N,Net-(C4-Pad2)*
X98550000Y-53900000D03*
G04 #@! TO.P,C4,1*
G04 #@! TO.N,GND*
X99650000Y-53900000D03*
G04 #@! TD*
G04 #@! TO.P,C3,1*
G04 #@! TO.N,GND*
X96050000Y-59100000D03*
G04 #@! TO.P,C3,2*
G04 #@! TO.N,+BATT*
X97150000Y-59100000D03*
G04 #@! TD*
D15*
G04 #@! TO.P,C8,2*
G04 #@! TO.N,Net-(C8-Pad2)*
X102100000Y-53850000D03*
G04 #@! TO.P,C8,1*
G04 #@! TO.N,/LED_K*
X102100000Y-52750000D03*
G04 #@! TD*
D25*
G04 #@! TO.P,R1,1*
G04 #@! TO.N,Net-(R1-Pad1)*
X97150000Y-55400000D03*
G04 #@! TO.P,R1,2*
G04 #@! TO.N,Net-(C1-Pad2)*
X96250000Y-55400000D03*
G04 #@! TD*
D16*
G04 #@! TO.P,R2,1*
G04 #@! TO.N,/ADC_VOUT*
X106800000Y-59250000D03*
G04 #@! TO.P,R2,2*
G04 #@! TO.N,/LED_A*
X106800000Y-58350000D03*
G04 #@! TD*
G04 #@! TO.P,R5,2*
G04 #@! TO.N,Net-(C7-Pad2)*
X102900000Y-54750000D03*
G04 #@! TO.P,R5,1*
G04 #@! TO.N,Net-(C8-Pad2)*
X102900000Y-55650000D03*
G04 #@! TD*
D15*
G04 #@! TO.P,C10,2*
G04 #@! TO.N,/LED_A*
X102700000Y-59150000D03*
G04 #@! TO.P,C10,1*
G04 #@! TO.N,/LED_K*
X102700000Y-60250000D03*
G04 #@! TD*
D16*
G04 #@! TO.P,R4,2*
G04 #@! TO.N,Net-(R4-Pad2)*
X101100000Y-54250000D03*
G04 #@! TO.P,R4,1*
G04 #@! TO.N,/LED_K*
X101100000Y-53350000D03*
G04 #@! TD*
D26*
G04 #@! TO.N,/MODE*
X102000000Y-59300000D03*
G04 #@! TO.N,Net-(C1-Pad2)*
X96400000Y-57700000D03*
X95900000Y-57700000D03*
X96900000Y-56700000D03*
X96900000Y-57200000D03*
X96400000Y-57200000D03*
X95900000Y-57200000D03*
X96900000Y-56200000D03*
X96400000Y-56200000D03*
X95900000Y-56200000D03*
G04 #@! TO.N,+BATT*
X98000024Y-59340961D03*
X98199992Y-61200000D03*
X104800000Y-55600000D03*
X108206036Y-58200000D03*
G04 #@! TO.N,Net-(C1-Pad2)*
X95900000Y-56700000D03*
X96400000Y-56699998D03*
G04 #@! TO.N,GND*
X95600000Y-59100000D03*
D27*
X99000000Y-63851972D03*
D26*
X100599984Y-60600000D03*
X99000000Y-62377010D03*
G04 #@! TO.N,/LED_K*
X102500000Y-52800000D03*
X108200000Y-54900012D03*
D27*
G04 #@! TO.N,/DAC_OUT*
X102500000Y-61400000D03*
D26*
X105200006Y-50752009D03*
G04 #@! TO.N,/ADC_IOUT*
X97994979Y-62377010D03*
X105500000Y-55600000D03*
G04 #@! TO.N,/ENABLE*
X103500006Y-50200000D03*
X98600000Y-53100000D03*
G04 #@! TO.N,/MODE*
X106700000Y-55600000D03*
G04 #@! TD*
D28*
G04 #@! TO.N,+BATT*
X97550000Y-58750000D02*
X97100000Y-59200000D01*
X98100000Y-58750000D02*
X97550000Y-58750000D01*
X98100000Y-58750000D02*
X98100000Y-59240985D01*
X98100000Y-59240985D02*
X98000024Y-59340961D01*
X98050000Y-60600000D02*
X98199992Y-60749992D01*
X98199992Y-60881802D02*
X98199992Y-61200000D01*
X98199992Y-60749992D02*
X98199992Y-60881802D01*
X104900000Y-55400000D02*
X104900000Y-55600000D01*
X105200000Y-54600000D02*
X105200000Y-55100000D01*
X105200000Y-55100000D02*
X104900000Y-55400000D01*
X108550000Y-58200000D02*
X108206036Y-58200000D01*
X109700000Y-59300000D02*
X109650000Y-59300000D01*
X109650000Y-59300000D02*
X108550000Y-58200000D01*
G04 #@! TO.N,GND*
X100000000Y-59150000D02*
X100000000Y-58250000D01*
X99500000Y-59150000D02*
X99500000Y-58500000D01*
X99500000Y-54850000D02*
X99500000Y-55500000D01*
X100000000Y-54850000D02*
X100000000Y-55500000D01*
X99800000Y-60000000D02*
X99800010Y-60000010D01*
X100000000Y-59150000D02*
X100000000Y-59800020D01*
X100000000Y-59800020D02*
X99800010Y-60000010D01*
X100850000Y-58750000D02*
X100500000Y-59100000D01*
X101400000Y-58750000D02*
X100850000Y-58750000D01*
G04 #@! TO.N,Net-(C1-Pad1)*
X98100000Y-58250000D02*
X98099996Y-58249996D01*
X98100000Y-58250000D02*
X97250000Y-58250000D01*
G04 #@! TO.N,/LED_K*
X101000000Y-61950000D02*
X101000000Y-62000000D01*
X100525000Y-63000000D02*
X101325000Y-62200000D01*
X99950000Y-63000000D02*
X100525000Y-63000000D01*
X101325000Y-62200000D02*
X101400000Y-62200000D01*
G04 #@! TO.N,/LED_A*
X104400000Y-57800000D02*
X104800000Y-58200000D01*
G04 #@! TO.N,GND*
X95600000Y-59100000D02*
X96000000Y-59100000D01*
X101400000Y-60200000D02*
X101400000Y-59900000D01*
X101000000Y-60600000D02*
X101400000Y-60200000D01*
X100400000Y-60600000D02*
X101000000Y-60600000D01*
X99500000Y-59150000D02*
X99500000Y-59700000D01*
X99500000Y-59700000D02*
X100400000Y-60600000D01*
X100000000Y-54300000D02*
X100000000Y-54900000D01*
X99650000Y-53900000D02*
X99650000Y-53950000D01*
X99650000Y-53950000D02*
X100000000Y-54300000D01*
X99500000Y-54850000D02*
X99500000Y-54100000D01*
X99500000Y-54100000D02*
X99700000Y-53900000D01*
X99000000Y-62800000D02*
X99000000Y-63851972D01*
X99950000Y-60600000D02*
X100599984Y-60600000D01*
X100000000Y-56750000D02*
X100000000Y-57300000D01*
G04 #@! TO.N,Net-(C4-Pad2)*
X98550000Y-54400000D02*
X98950000Y-54800000D01*
X98550000Y-53900000D02*
X98550000Y-54400000D01*
X98950000Y-54800000D02*
X99000000Y-54800000D01*
G04 #@! TO.N,Net-(C5-Pad2)*
X109700000Y-56300000D02*
X109700000Y-57800000D01*
X107100000Y-52700000D02*
X108100000Y-52700000D01*
X108100000Y-52700000D02*
X108900000Y-52700000D01*
X108500000Y-52300000D02*
X108900000Y-52700000D01*
X107100000Y-52300000D02*
X108500000Y-52300000D01*
X109700000Y-55200000D02*
X109700000Y-56300000D01*
X108900000Y-52700000D02*
X108900000Y-54400000D01*
X108900000Y-54400000D02*
X109700000Y-55200000D01*
G04 #@! TO.N,Net-(R1-Pad1)*
X97351018Y-55750000D02*
X97101018Y-55500000D01*
X98100000Y-55750000D02*
X97351018Y-55750000D01*
G04 #@! TO.N,/LED_K*
X106000000Y-62700000D02*
X104500000Y-62700000D01*
X106800000Y-60950000D02*
X106800000Y-61900000D01*
X106800000Y-61900000D02*
X106000000Y-62700000D01*
X101600000Y-52800000D02*
X103000000Y-52800000D01*
X100500000Y-54800000D02*
X100500000Y-53900000D01*
X100500000Y-53900000D02*
X101600000Y-52800000D01*
X107700000Y-55800000D02*
X107700000Y-56300000D01*
X108200000Y-55300000D02*
X107700000Y-55800000D01*
X107100000Y-53100000D02*
X108200000Y-53100000D01*
X108200000Y-53100000D02*
X108200000Y-55300000D01*
X104200000Y-60250000D02*
X104600000Y-60650000D01*
X102700000Y-60250000D02*
X104200000Y-60250000D01*
X104600000Y-60650000D02*
X104600000Y-61400000D01*
X107700000Y-57175000D02*
X107729012Y-57204012D01*
X107700000Y-56300000D02*
X107700000Y-57175000D01*
X107729012Y-57204012D02*
X107729012Y-61670988D01*
X107729012Y-61670988D02*
X106700000Y-62700000D01*
X106700000Y-62700000D02*
X104400000Y-62700000D01*
X99900000Y-62400000D02*
X99900000Y-63000000D01*
X99300000Y-61800000D02*
X99900000Y-62400000D01*
X96700000Y-61100000D02*
X97400000Y-61800000D01*
X97400000Y-61800000D02*
X99300000Y-61800000D01*
G04 #@! TO.N,Net-(C6-Pad2)*
X98282001Y-59817999D02*
X99000000Y-59100000D01*
X96882001Y-59817999D02*
X98282001Y-59817999D01*
X96700000Y-60050000D02*
X96700000Y-60000000D01*
X96700000Y-60000000D02*
X96882001Y-59817999D01*
G04 #@! TO.N,/LED_A*
X102750000Y-59000000D02*
X102700000Y-59000000D01*
X104000000Y-57400000D02*
X104000000Y-57750000D01*
X104000000Y-57750000D02*
X102750000Y-59000000D01*
X106800000Y-58350000D02*
X106800000Y-57800000D01*
X106100000Y-57100000D02*
X104400000Y-57100000D01*
X106800000Y-57800000D02*
X106100000Y-57100000D01*
G04 #@! TO.N,Net-(R4-Pad2)*
X101400000Y-54880000D02*
X101100000Y-54580000D01*
X101400000Y-55250000D02*
X101400000Y-54880000D01*
X101100000Y-54580000D02*
X101100000Y-54200000D01*
G04 #@! TO.N,Net-(C7-Pad2)*
X103000000Y-53900000D02*
X103000000Y-54600000D01*
G04 #@! TO.N,/DAC_OUT*
X105618206Y-50752009D02*
X105518204Y-50752009D01*
X105518204Y-50752009D02*
X105200006Y-50752009D01*
X106000000Y-51133803D02*
X105618206Y-50752009D01*
X106000000Y-51700000D02*
X106000000Y-51133803D01*
X99400000Y-61400000D02*
X102500000Y-61400000D01*
X99000000Y-60600000D02*
X99000000Y-61000000D01*
X99000000Y-61000000D02*
X99400000Y-61400000D01*
G04 #@! TO.N,/ADC_IOUT*
X104694038Y-56200000D02*
X101400000Y-56200000D01*
X105305962Y-56200000D02*
X104694038Y-56200000D01*
X105600000Y-54600000D02*
X105600000Y-55905962D01*
X105600000Y-55905962D02*
X105305962Y-56200000D01*
X97994979Y-62744979D02*
X97994979Y-62695208D01*
X98050000Y-62800000D02*
X97994979Y-62744979D01*
X97994979Y-62695208D02*
X97994979Y-62377010D01*
G04 #@! TO.N,/ADC_VOUT*
X106800000Y-59250000D02*
X106800000Y-59700000D01*
X106800000Y-59700000D02*
X106800000Y-60000000D01*
X106000000Y-54600000D02*
X106000000Y-56246398D01*
X106000000Y-56246398D02*
X107352001Y-57598399D01*
X107352001Y-57598399D02*
X107352001Y-59147999D01*
X107352001Y-59147999D02*
X106800000Y-59700000D01*
G04 #@! TO.N,/ENABLE*
X103818204Y-50200000D02*
X103500006Y-50200000D01*
X105678783Y-50200000D02*
X103818204Y-50200000D01*
X106400000Y-50921217D02*
X105678783Y-50200000D01*
X106400000Y-51600000D02*
X106400000Y-50921217D01*
X98000000Y-53100000D02*
X98600000Y-53100000D01*
X97700000Y-53400000D02*
X98000000Y-53100000D01*
X97700000Y-54800000D02*
X97700000Y-53400000D01*
X98100000Y-55250000D02*
X98100000Y-55200000D01*
X98100000Y-55200000D02*
X97700000Y-54800000D01*
G04 #@! TO.N,/MODE*
X101823602Y-58300000D02*
X101400000Y-58300000D01*
X102000000Y-59300000D02*
X102000000Y-58476398D01*
X102000000Y-58476398D02*
X101823602Y-58300000D01*
X106400000Y-55300000D02*
X106700000Y-55600000D01*
X106400000Y-54600000D02*
X106400000Y-55300000D01*
G04 #@! TO.N,Net-(C1-Pad2)*
X95900000Y-58018198D02*
X95981802Y-58100000D01*
X95900000Y-57700000D02*
X95900000Y-58018198D01*
X96200000Y-55400000D02*
X96200000Y-56050016D01*
G04 #@! TO.N,Net-(C8-Pad2)*
X102100000Y-55500000D02*
X102100000Y-54100000D01*
X101250000Y-55750000D02*
X101850000Y-55750000D01*
X101850000Y-55750000D02*
X102100000Y-55500000D01*
X101950000Y-55750000D02*
X101450000Y-55750000D01*
X103000000Y-55500000D02*
X102200000Y-55500000D01*
X102200000Y-55500000D02*
X101950000Y-55750000D01*
G04 #@! TD*
D29*
G04 #@! TO.N,Net-(C1-Pad2)*
X95827000Y-56027000D02*
X96753608Y-56027000D01*
X95827000Y-56268300D02*
X98273000Y-56268300D01*
X95827000Y-56509600D02*
X98273000Y-56509600D01*
X95827000Y-56750900D02*
X98273000Y-56750900D01*
X95827000Y-56992200D02*
X98273000Y-56992200D01*
X95827000Y-57233500D02*
X98273000Y-57233500D01*
X95827000Y-57474800D02*
X98273000Y-57474800D01*
X95827000Y-57716100D02*
X96548062Y-57716100D01*
X97751939Y-57716100D02*
X98273000Y-57716100D01*
X95827000Y-57957400D02*
X96461536Y-57957400D01*
X95827000Y-58198700D02*
X96461536Y-58198700D01*
X98273000Y-56258464D02*
X98273000Y-57741536D01*
X98031700Y-56258464D02*
X98031700Y-57741536D01*
X97790400Y-56256554D02*
X97790400Y-57743445D01*
X97549100Y-56256000D02*
X97549100Y-57581249D01*
X97307800Y-56257316D02*
X97307800Y-57561536D01*
X97066500Y-56168452D02*
X97066500Y-57561536D01*
X96825200Y-56063639D02*
X96825200Y-57566469D01*
X96583900Y-56027000D02*
X96583900Y-57669577D01*
X96342600Y-56027000D02*
X96342600Y-58373000D01*
X96101300Y-56027000D02*
X96101300Y-58373000D01*
X95860000Y-56027000D02*
X95860000Y-58373000D01*
D30*
X96801341Y-56058894D02*
X96950000Y-56088464D01*
X96968611Y-56088464D01*
X96986212Y-56114806D01*
X97153587Y-56226641D01*
X97301183Y-56256000D01*
X97351017Y-56265913D01*
X97400851Y-56256000D01*
X97787613Y-56256000D01*
X97800000Y-56258464D01*
X98273000Y-56258464D01*
X98273000Y-57741536D01*
X98137463Y-57741536D01*
X98099996Y-57734083D01*
X98062529Y-57741536D01*
X97800000Y-57741536D01*
X97787613Y-57744000D01*
X97770580Y-57744000D01*
X97724686Y-57675314D01*
X97598659Y-57591106D01*
X97450000Y-57561536D01*
X96850000Y-57561536D01*
X96701341Y-57591106D01*
X96575314Y-57675314D01*
X96491106Y-57801341D01*
X96461536Y-57950000D01*
X96461536Y-58373000D01*
X95827000Y-58373000D01*
X95827000Y-56027000D01*
X96753608Y-56027000D01*
X96801341Y-56058894D01*
D29*
G04 #@! TO.N,/LED_A*
X101851494Y-56727000D02*
X105765011Y-56727000D01*
X101327000Y-56968300D02*
X105973000Y-56968300D01*
X101327000Y-57209600D02*
X105973000Y-57209600D01*
X101327000Y-57450900D02*
X105973000Y-57450900D01*
X101327000Y-57692200D02*
X105973000Y-57692200D01*
X102185873Y-57933500D02*
X105973000Y-57933500D01*
X102407040Y-58174800D02*
X105973000Y-58174800D01*
X102503919Y-58416100D02*
X105973000Y-58416100D01*
X102506000Y-58657400D02*
X105973000Y-58657400D01*
X102506000Y-58898700D02*
X105973000Y-58898700D01*
X105973000Y-56934989D02*
X105973000Y-58973000D01*
X105731700Y-56727000D02*
X105731700Y-58973000D01*
X105490400Y-56727000D02*
X105490400Y-58973000D01*
X105249100Y-56727000D02*
X105249100Y-58973000D01*
X105007800Y-56727000D02*
X105007800Y-58973000D01*
X104766500Y-56727000D02*
X104766500Y-58973000D01*
X104525200Y-56727000D02*
X104525200Y-58973000D01*
X104283900Y-56727000D02*
X104283900Y-58973000D01*
X104042600Y-56727000D02*
X104042600Y-58973000D01*
X103801300Y-56727000D02*
X103801300Y-58973000D01*
X103560000Y-56727000D02*
X103560000Y-58973000D01*
X103318700Y-56727000D02*
X103318700Y-58973000D01*
X103077400Y-56727000D02*
X103077400Y-58973000D01*
X102836100Y-56727000D02*
X102836100Y-58973000D01*
X102594800Y-56727000D02*
X102594800Y-58973000D01*
X102353500Y-56727000D02*
X102353500Y-58104038D01*
X102112200Y-56727000D02*
X102112200Y-57884275D01*
X101870900Y-56727000D02*
X101870900Y-57785968D01*
X101629600Y-56758464D02*
X101629600Y-57741536D01*
X101388300Y-56758464D02*
X101388300Y-57741536D01*
D30*
X105973000Y-56934989D02*
X105973000Y-58973000D01*
X102520482Y-58973000D01*
X102513742Y-58956729D01*
X102506000Y-58948987D01*
X102506000Y-58526231D01*
X102515913Y-58476397D01*
X102506000Y-58426563D01*
X102476641Y-58278967D01*
X102364806Y-58111592D01*
X102322552Y-58083359D01*
X102216641Y-57977448D01*
X102188408Y-57935194D01*
X102021033Y-57823359D01*
X101886943Y-57796687D01*
X101848659Y-57771106D01*
X101700000Y-57741536D01*
X101327000Y-57741536D01*
X101327000Y-56758464D01*
X101700000Y-56758464D01*
X101848659Y-56728894D01*
X101851494Y-56727000D01*
X105765011Y-56727000D01*
X105973000Y-56934989D01*
D29*
G04 #@! TO.N,/LED_K*
X102448651Y-60327000D02*
X106076088Y-60327000D01*
X102438464Y-60568300D02*
X106076088Y-60568300D01*
X103014101Y-60809600D02*
X106076088Y-60809600D01*
X103200747Y-61050900D02*
X106076088Y-61050900D01*
X103281000Y-61292200D02*
X106076088Y-61292200D01*
X103281000Y-61533500D02*
X106076088Y-61533500D01*
X103190101Y-61774800D02*
X106076088Y-61774800D01*
X100830088Y-62016100D02*
X102011599Y-62016100D01*
X102988401Y-62016100D02*
X106076088Y-62016100D01*
X100830088Y-62257400D02*
X106076088Y-62257400D01*
X100830088Y-62498700D02*
X106076088Y-62498700D01*
X100830088Y-62740000D02*
X106076088Y-62740000D01*
X100830088Y-62981300D02*
X106076088Y-62981300D01*
X106076088Y-60327000D02*
X106076088Y-63173000D01*
X105834788Y-60327000D02*
X105834788Y-63173000D01*
X105593488Y-60327000D02*
X105593488Y-63173000D01*
X105352188Y-60327000D02*
X105352188Y-63173000D01*
X105110888Y-60327000D02*
X105110888Y-63173000D01*
X104869588Y-60327000D02*
X104869588Y-63173000D01*
X104628288Y-60327000D02*
X104628288Y-63173000D01*
X104386988Y-60327000D02*
X104386988Y-63173000D01*
X104145688Y-60327000D02*
X104145688Y-63173000D01*
X103904388Y-60327000D02*
X103904388Y-63173000D01*
X103663088Y-60327000D02*
X103663088Y-63173000D01*
X103421788Y-60327000D02*
X103421788Y-63173000D01*
X103180488Y-60327000D02*
X103180488Y-61001992D01*
X103180488Y-61798009D02*
X103180488Y-63173000D01*
X102939188Y-60327000D02*
X102939188Y-60736570D01*
X102939188Y-62063431D02*
X102939188Y-63173000D01*
X102697888Y-60327000D02*
X102697888Y-60636620D01*
X102697888Y-62163381D02*
X102697888Y-63173000D01*
X102456588Y-60327000D02*
X102456588Y-60619000D01*
X102456588Y-62181000D02*
X102456588Y-63173000D01*
X102215288Y-62127416D02*
X102215288Y-63173000D01*
X101973988Y-61978489D02*
X101973988Y-63173000D01*
X101732688Y-61906000D02*
X101732688Y-63173000D01*
X101491388Y-61906000D02*
X101491388Y-63173000D01*
X101250088Y-61906000D02*
X101250088Y-63173000D01*
X101008788Y-61906000D02*
X101008788Y-63173000D01*
D30*
X106076088Y-63173000D02*
X100830088Y-63173000D01*
X100830088Y-61906000D01*
X101901499Y-61906000D01*
X102057599Y-62062100D01*
X102344649Y-62181000D01*
X102655351Y-62181000D01*
X102942401Y-62062100D01*
X103162100Y-61842401D01*
X103281000Y-61555351D01*
X103281000Y-61244649D01*
X103162100Y-60957599D01*
X102942401Y-60737900D01*
X102655351Y-60619000D01*
X102438464Y-60619000D01*
X102438464Y-60335389D01*
X102448651Y-60327000D01*
X106076088Y-60327000D01*
X106076088Y-63173000D01*
D29*
G04 #@! TO.N,GND*
X106461537Y-50267163D02*
X106461537Y-50267163D01*
X106702838Y-50508463D02*
X106987270Y-50508463D01*
X106876759Y-50749763D02*
X107381035Y-50749763D01*
X106906000Y-50991063D02*
X107774801Y-50991063D01*
X106906000Y-51232363D02*
X108090957Y-51232363D01*
X106906000Y-51473663D02*
X108385768Y-51473663D01*
X106893894Y-51714963D02*
X108680579Y-51714963D01*
X108872486Y-51956263D02*
X108911014Y-51956263D01*
X109113155Y-52197563D02*
X109135243Y-52197563D01*
X109334167Y-52438863D02*
X109359473Y-52438863D01*
X109406495Y-52680163D02*
X109551453Y-52680163D01*
X109406000Y-52921463D02*
X109721042Y-52921463D01*
X109406000Y-53162763D02*
X109890630Y-53162763D01*
X109406000Y-53404063D02*
X110060219Y-53404063D01*
X109406000Y-53645363D02*
X110190163Y-53645363D01*
X109406000Y-53886663D02*
X110314707Y-53886663D01*
X109406000Y-54127963D02*
X110439251Y-54127963D01*
X109584855Y-54369263D02*
X110563796Y-54369263D01*
X109826155Y-54610563D02*
X110655090Y-54610563D01*
X110068875Y-54851863D02*
X110740539Y-54851863D01*
X110196360Y-55093163D02*
X110825988Y-55093163D01*
X110371136Y-55334463D02*
X110911437Y-55334463D01*
X110568041Y-55575763D02*
X110976455Y-55575763D01*
X110582843Y-55817063D02*
X111026426Y-55817063D01*
X110582843Y-56058363D02*
X111076397Y-56058363D01*
X110582843Y-56299663D02*
X111126368Y-56299663D01*
X110582843Y-56540963D02*
X111171802Y-56540963D01*
X110582843Y-56782263D02*
X111188252Y-56782263D01*
X110568244Y-57023563D02*
X111204702Y-57023563D01*
X110372396Y-57264863D02*
X111221152Y-57264863D01*
X110419679Y-57506163D02*
X111237602Y-57506163D01*
X110432843Y-57747463D02*
X111242456Y-57747463D01*
X110432843Y-57988763D02*
X111222575Y-57988763D01*
X110429882Y-58230063D02*
X111201040Y-58230063D01*
X110319916Y-58471363D02*
X111179504Y-58471363D01*
X110300452Y-58712663D02*
X111157969Y-58712663D01*
X108235012Y-58953963D02*
X108588371Y-58953963D01*
X110428309Y-58953963D02*
X111123069Y-58953963D01*
X108235012Y-59195263D02*
X108829671Y-59195263D01*
X110432843Y-59195263D02*
X111067804Y-59195263D01*
X108235012Y-59436563D02*
X108967157Y-59436563D01*
X110432843Y-59436563D02*
X111012539Y-59436563D01*
X108235012Y-59677863D02*
X108975475Y-59677863D01*
X110424524Y-59677863D02*
X110957274Y-59677863D01*
X108235012Y-59919163D02*
X109138877Y-59919163D01*
X110261122Y-59919163D02*
X110902009Y-59919163D01*
X108235012Y-60160463D02*
X110811694Y-60160463D01*
X108235012Y-60401763D02*
X110720514Y-60401763D01*
X108235012Y-60643063D02*
X110629334Y-60643063D01*
X108235012Y-60884363D02*
X110538155Y-60884363D01*
X108235012Y-61125663D02*
X110417738Y-61125663D01*
X108235012Y-61366963D02*
X110286723Y-61366963D01*
X108235012Y-61608263D02*
X110155708Y-61608263D01*
X108203610Y-61849563D02*
X110024693Y-61849563D01*
X108024728Y-62090863D02*
X109859058Y-62090863D01*
X98757843Y-62332163D02*
X99116572Y-62332163D01*
X107783428Y-62332163D02*
X109681805Y-62332163D01*
X98757843Y-62573463D02*
X99242157Y-62573463D01*
X107542128Y-62573463D02*
X109504553Y-62573463D01*
X98757843Y-62814763D02*
X99242157Y-62814763D01*
X107300828Y-62814763D02*
X109321977Y-62814763D01*
X98757843Y-63056063D02*
X99242157Y-63056063D01*
X107062369Y-63056063D02*
X109088141Y-63056063D01*
X98757843Y-63297363D02*
X99242157Y-63297363D01*
X106584088Y-63297363D02*
X108854305Y-63297363D01*
X98695477Y-63538663D02*
X99304522Y-63538663D01*
X106493038Y-63538663D02*
X108620469Y-63538663D01*
X98079847Y-63779963D02*
X108324732Y-63779963D01*
X98368439Y-64021263D02*
X108016991Y-64021263D01*
X98718676Y-64262563D02*
X107705096Y-64262563D01*
X99103342Y-64503863D02*
X107292160Y-64503863D01*
X99522736Y-64745163D02*
X106879224Y-64745163D01*
X100057156Y-64986463D02*
X106338809Y-64986463D01*
X100694071Y-65227763D02*
X105750790Y-65227763D01*
X101568042Y-65469063D02*
X104831010Y-65469063D01*
X111244000Y-57600000D02*
X111244000Y-57600000D01*
X111002700Y-55702490D02*
X111002700Y-59479520D01*
X110761400Y-54910771D02*
X110761400Y-60293560D01*
X110520100Y-54284603D02*
X110520100Y-55465631D01*
X110520100Y-57134370D02*
X110520100Y-60932141D01*
X110278800Y-53817093D02*
X110278800Y-55300761D01*
X110278800Y-58505106D02*
X110278800Y-58694895D01*
X110278800Y-59905106D02*
X110278800Y-61381554D01*
X110037500Y-53371737D02*
X110037500Y-54821909D01*
X110037500Y-58582843D02*
X110037500Y-58617157D01*
X110037500Y-59982843D02*
X110037500Y-61825974D01*
X109796200Y-53028401D02*
X109796200Y-54580609D01*
X109796200Y-58582843D02*
X109796200Y-58617157D01*
X109796200Y-59982843D02*
X109796200Y-62176432D01*
X109554900Y-52685066D02*
X109554900Y-54339309D01*
X109554900Y-59982843D02*
X109554900Y-62504922D01*
X109313600Y-52389497D02*
X109313600Y-52406361D01*
X109313600Y-59979258D02*
X109313600Y-62823406D01*
X109072300Y-52129827D02*
X109072300Y-52156709D01*
X109072300Y-59862194D02*
X109072300Y-63072408D01*
X108831000Y-51870157D02*
X108831000Y-51917062D01*
X108831000Y-59196592D02*
X108831000Y-63321411D01*
X108589700Y-51640578D02*
X108589700Y-51800387D01*
X108589700Y-58955292D02*
X108589700Y-63570413D01*
X108348400Y-51443077D02*
X108348400Y-51794000D01*
X108348400Y-58789555D02*
X108348400Y-63761404D01*
X108107100Y-51245575D02*
X108107100Y-51794000D01*
X108107100Y-62007899D02*
X108107100Y-63950607D01*
X107865800Y-51048073D02*
X107865800Y-51794000D01*
X107865800Y-62249792D02*
X107865800Y-64139811D01*
X107624500Y-50898957D02*
X107624500Y-51794000D01*
X107624500Y-62491092D02*
X107624500Y-64309659D01*
X107383200Y-50751089D02*
X107383200Y-51794000D01*
X107383200Y-62732392D02*
X107383200Y-64450663D01*
X107141900Y-50603220D02*
X107141900Y-51794000D01*
X107141900Y-62973692D02*
X107141900Y-64591667D01*
X106900600Y-50459897D02*
X106900600Y-50841538D01*
X106900600Y-51679680D02*
X106900600Y-51819000D01*
X106900600Y-63166525D02*
X106900600Y-64732671D01*
X106659300Y-50353974D02*
X106659300Y-50464926D01*
X106659300Y-63206000D02*
X106659300Y-64853710D01*
X106418000Y-63605821D02*
X106418000Y-64953660D01*
X106176700Y-63681000D02*
X106176700Y-65053610D01*
X105935400Y-63681000D02*
X105935400Y-65153560D01*
X105694100Y-63681000D02*
X105694100Y-65242635D01*
X105452800Y-63681000D02*
X105452800Y-65305939D01*
X105211500Y-63681000D02*
X105211500Y-65369243D01*
X104970200Y-63681000D02*
X104970200Y-65432547D01*
X104728900Y-63681000D02*
X104728900Y-65495851D01*
X104487600Y-63681000D02*
X104487600Y-65528104D01*
X104246300Y-63681000D02*
X104246300Y-65557305D01*
X104005000Y-63681000D02*
X104005000Y-65586505D01*
X103763700Y-63681000D02*
X103763700Y-65615706D01*
X103522400Y-63681000D02*
X103522400Y-65631428D01*
X103281100Y-63681000D02*
X103281100Y-65627637D01*
X103039800Y-63681000D02*
X103039800Y-65623847D01*
X102798500Y-63681000D02*
X102798500Y-65620056D01*
X102557200Y-63681000D02*
X102557200Y-65616266D01*
X102315900Y-63681000D02*
X102315900Y-65583503D01*
X102074600Y-63681000D02*
X102074600Y-65546578D01*
X101833300Y-63681000D02*
X101833300Y-65509654D01*
X101592000Y-63681000D02*
X101592000Y-65472730D01*
X101350700Y-63681000D02*
X101350700Y-65422266D01*
X101109400Y-63681000D02*
X101109400Y-65350790D01*
X100868100Y-63681000D02*
X100868100Y-65279313D01*
X100626800Y-63665825D02*
X100626800Y-65207837D01*
X100385500Y-63694624D02*
X100385500Y-65134717D01*
X100144200Y-63712843D02*
X100144200Y-65025766D01*
X99902900Y-63712843D02*
X99902900Y-64916814D01*
X99661600Y-63712843D02*
X99661600Y-64807863D01*
X99420300Y-63652596D02*
X99420300Y-64698912D01*
X99179000Y-62394591D02*
X99179000Y-64551324D01*
X98937700Y-62306000D02*
X98937700Y-64399957D01*
X98696400Y-63536938D02*
X98696400Y-64248590D01*
X98455100Y-63703846D02*
X98455100Y-64093724D01*
X98213800Y-63712843D02*
X98213800Y-63891966D01*
X95294000Y-56187759D02*
X95294000Y-56187759D01*
X95241966Y-56429059D02*
X95338949Y-56429059D01*
X95222975Y-56670359D02*
X95294000Y-56670359D01*
X95203985Y-56911659D02*
X95331742Y-56911659D01*
X95184994Y-57152959D02*
X95294000Y-57152959D01*
X95166003Y-57394259D02*
X95324534Y-57394259D01*
X95163349Y-57635559D02*
X95294946Y-57635559D01*
X95177262Y-57876859D02*
X95317327Y-57876859D01*
X95191175Y-58118159D02*
X95367157Y-58118159D01*
X95205088Y-58359459D02*
X95367157Y-58359459D01*
X95219002Y-58600759D02*
X95398571Y-58600759D01*
X95265315Y-58842059D02*
X96467940Y-58842059D01*
X95312656Y-59083359D02*
X96467157Y-59083359D01*
X95359997Y-59324659D02*
X96467157Y-59324659D01*
X95407339Y-59565959D02*
X96116362Y-59565959D01*
X95473000Y-59807259D02*
X96067157Y-59807259D01*
X95555615Y-60048559D02*
X96067157Y-60048559D01*
X95638231Y-60289859D02*
X96067157Y-60289859D01*
X95720846Y-60531159D02*
X96114820Y-60531159D01*
X95812338Y-60772459D02*
X96075379Y-60772459D01*
X95933700Y-61013759D02*
X96067157Y-61013759D01*
X96055061Y-61255059D02*
X96067157Y-61255059D01*
X96470953Y-58811453D02*
X96470953Y-58811453D01*
X96229653Y-58832843D02*
X96229653Y-59437956D01*
X95988353Y-58832843D02*
X95988353Y-61122427D01*
X95747053Y-58832552D02*
X95747053Y-60607705D01*
X95505753Y-58742429D02*
X95505753Y-59902925D01*
X95264453Y-56323274D02*
X95264453Y-58837670D01*
X102694913Y-49571873D02*
X102694913Y-49571873D01*
X101250082Y-49813173D02*
X103029820Y-49813173D01*
X100434942Y-50054473D02*
X102911081Y-50054473D01*
X99869223Y-50295773D02*
X102901184Y-50295773D01*
X99373778Y-50537073D02*
X102996401Y-50537073D01*
X98970595Y-50778373D02*
X103312766Y-50778373D01*
X103687245Y-50778373D02*
X104594006Y-50778373D01*
X98577978Y-51019673D02*
X104428335Y-51019673D01*
X98276787Y-51260973D02*
X104322981Y-51260973D01*
X97975595Y-51502273D02*
X104319001Y-51502273D01*
X97693775Y-51743573D02*
X104319001Y-51743573D01*
X97464790Y-51984873D02*
X103461376Y-51984873D01*
X97235804Y-52226173D02*
X101540813Y-52226173D01*
X97006819Y-52467473D02*
X101216935Y-52467473D01*
X96832255Y-52708773D02*
X97679100Y-52708773D01*
X99065786Y-52708773D02*
X100975635Y-52708773D01*
X96658864Y-52950073D02*
X97434336Y-52950073D01*
X99188051Y-52950073D02*
X100474853Y-52950073D01*
X96485472Y-53191373D02*
X97237767Y-53191373D01*
X99199697Y-53191373D02*
X100417157Y-53191373D01*
X96325603Y-53432673D02*
X97194001Y-53432673D01*
X99164522Y-53432673D02*
X100251736Y-53432673D01*
X96197841Y-53673973D02*
X97194001Y-53673973D01*
X99232843Y-53673973D02*
X100047068Y-53673973D01*
X96070079Y-53915273D02*
X97194001Y-53915273D01*
X99232843Y-53915273D02*
X99993057Y-53915273D01*
X95942317Y-54156573D02*
X97194001Y-54156573D01*
X99232195Y-54156573D02*
X99994001Y-54156573D01*
X95825947Y-54397873D02*
X97194001Y-54397873D01*
X99470698Y-54397873D02*
X99994001Y-54397873D01*
X95737644Y-54639173D02*
X97194001Y-54639173D01*
X99502843Y-54639173D02*
X99994001Y-54639173D01*
X95649341Y-54880473D02*
X95737284Y-54880473D01*
X99502843Y-54880473D02*
X99997157Y-54880473D01*
X95561038Y-55121773D02*
X95667157Y-55121773D01*
X99502843Y-55121773D02*
X99997157Y-55121773D01*
X95473811Y-55363073D02*
X95667157Y-55363073D01*
X99438012Y-55363073D02*
X100061987Y-55363073D01*
X95421199Y-55604373D02*
X95667157Y-55604373D01*
X98780320Y-55604373D02*
X100719681Y-55604373D01*
X95368587Y-55845673D02*
X95407924Y-55845673D01*
X98782843Y-55845673D02*
X100717157Y-55845673D01*
X98778606Y-56086973D02*
X100721395Y-56086973D01*
X98782843Y-56328273D02*
X100717157Y-56328273D01*
X98776892Y-56569573D02*
X100723109Y-56569573D01*
X98782843Y-56810873D02*
X100717157Y-56810873D01*
X98774536Y-57052173D02*
X99799801Y-57052173D01*
X100375000Y-57052173D02*
X100625000Y-57052173D01*
X98782843Y-57293473D02*
X99648228Y-57293473D01*
X100375000Y-57293473D02*
X100625000Y-57293473D01*
X98769258Y-57534773D02*
X99683523Y-57534773D01*
X100375000Y-57534773D02*
X100625000Y-57534773D01*
X98782843Y-57776073D02*
X100647000Y-57776073D01*
X98763980Y-58017373D02*
X99631377Y-58017373D01*
X100375000Y-58017373D02*
X100625000Y-58017373D01*
X98782843Y-58258673D02*
X99669826Y-58258673D01*
X100375000Y-58258673D02*
X100625000Y-58258673D01*
X99273382Y-58499973D02*
X99855292Y-58499973D01*
X100351277Y-58499973D02*
X100648723Y-58499973D01*
X99485162Y-58741273D02*
X100819000Y-58741273D01*
X99502843Y-58982573D02*
X100819000Y-58982573D01*
X99502843Y-59223873D02*
X100843640Y-59223873D01*
X99501348Y-59465173D02*
X101120432Y-59465173D01*
X99439117Y-59706473D02*
X101549460Y-59706473D01*
X99686067Y-59947773D02*
X102067377Y-59947773D01*
X99707843Y-60189073D02*
X101817026Y-60189073D01*
X99707843Y-60430373D02*
X101524018Y-60430373D01*
X99707843Y-60671673D02*
X101231011Y-60671673D01*
X104608032Y-50882210D02*
X104608032Y-50882210D01*
X104366732Y-49659807D02*
X104366732Y-49694000D01*
X104366732Y-50706000D02*
X104366732Y-51115218D01*
X104125432Y-49625465D02*
X104125432Y-49694000D01*
X104125432Y-50706000D02*
X104125432Y-51819000D01*
X103884132Y-49591123D02*
X103884132Y-49694000D01*
X103884132Y-50706000D02*
X103884132Y-51819000D01*
X103642832Y-49576836D02*
X103642832Y-49610538D01*
X103642832Y-50789463D02*
X103642832Y-51852616D01*
X103401532Y-49575572D02*
X103401532Y-49601715D01*
X103401532Y-50798284D02*
X103401532Y-52071882D01*
X103160232Y-49574309D02*
X103160232Y-49698199D01*
X103160232Y-50701800D02*
X103160232Y-52067157D01*
X102918932Y-49573045D02*
X102918932Y-50019281D01*
X102918932Y-50380718D02*
X102918932Y-52067157D01*
X102677632Y-49574149D02*
X102677632Y-52074284D01*
X102436332Y-49605916D02*
X102436332Y-52078045D01*
X102195032Y-49637684D02*
X102195032Y-52067157D01*
X101953732Y-49669452D02*
X101953732Y-52067157D01*
X101953732Y-59906000D02*
X101953732Y-60076490D01*
X101712432Y-49701220D02*
X101712432Y-52093587D01*
X101712432Y-59836683D02*
X101712432Y-60275208D01*
X101471132Y-49752701D02*
X101471132Y-52310323D01*
X101471132Y-59599264D02*
X101471132Y-60473925D01*
X101229832Y-49818714D02*
X101229832Y-52453438D01*
X101229832Y-59481000D02*
X101229832Y-60672643D01*
X100988532Y-49884726D02*
X100988532Y-52695876D01*
X100988532Y-59408121D02*
X100988532Y-60871361D01*
X100747232Y-49950738D02*
X100747232Y-52772354D01*
X100747232Y-58598482D02*
X100747232Y-60894000D01*
X100505932Y-50024194D02*
X100505932Y-52907749D01*
X100505932Y-55532843D02*
X100505932Y-60894000D01*
X100264632Y-50127117D02*
X100264632Y-53419777D01*
X100264632Y-55513147D02*
X100264632Y-56913382D01*
X100264632Y-57625000D02*
X100264632Y-57875000D01*
X100264632Y-58586618D02*
X100264632Y-60894000D01*
X100023332Y-50230041D02*
X100023332Y-53728248D01*
X100023332Y-55286727D02*
X100023332Y-56906569D01*
X100023332Y-57625000D02*
X100023332Y-57875000D01*
X100023332Y-58593430D02*
X100023332Y-60894000D01*
X99782032Y-50332964D02*
X99782032Y-57069942D01*
X99782032Y-57625000D02*
X99782032Y-57875000D01*
X99782032Y-58430058D02*
X99782032Y-60894000D01*
X99540732Y-50437154D02*
X99540732Y-57437458D01*
X99540732Y-57437458D02*
X99540732Y-58033750D01*
X99540732Y-58033750D02*
X99540732Y-59754170D01*
X99299432Y-50581569D02*
X99299432Y-54213898D01*
X99299432Y-55486103D02*
X99299432Y-57437458D01*
X99299432Y-57437458D02*
X99299432Y-58033750D01*
X99299432Y-58033750D02*
X99299432Y-58513898D01*
X99058132Y-50725984D02*
X99058132Y-52701119D01*
X99058132Y-55532843D02*
X99058132Y-57437458D01*
X99058132Y-57437458D02*
X99058132Y-58033750D01*
X99058132Y-58033750D02*
X99058132Y-58467157D01*
X98816832Y-50870399D02*
X98816832Y-52533885D01*
X98816832Y-55526621D02*
X98816832Y-57437458D01*
X98816832Y-57437458D02*
X98816832Y-58033750D01*
X98816832Y-58033750D02*
X98816832Y-58473378D01*
X98575532Y-51021634D02*
X98575532Y-52494000D01*
X98334232Y-51214951D02*
X98334232Y-52554155D01*
X98092932Y-51408269D02*
X98092932Y-52594000D01*
X97851632Y-51601587D02*
X97851632Y-52616238D01*
X97610332Y-51831505D02*
X97610332Y-52774077D01*
X97369032Y-52085782D02*
X97369032Y-53015377D01*
X97127732Y-52340058D02*
X97127732Y-54717157D01*
X96886432Y-52633379D02*
X96886432Y-54723417D01*
X96645132Y-52969184D02*
X96645132Y-54772290D01*
X96403832Y-53304989D02*
X96403832Y-54717157D01*
X96162532Y-53740661D02*
X96162532Y-54717157D01*
X95921232Y-54196397D02*
X95921232Y-54740917D01*
X95679932Y-54796879D02*
X95679932Y-55007446D01*
X95438632Y-55524420D02*
X95438632Y-55804355D01*
D30*
X106926753Y-50471378D02*
X107859738Y-51043112D01*
X108706497Y-51736176D01*
X109451362Y-52537747D01*
X110080550Y-53432991D01*
X110582418Y-54405342D01*
X110947680Y-55436809D01*
X111169576Y-56508304D01*
X111244000Y-57600000D01*
X111242236Y-57768461D01*
X111144965Y-58858359D01*
X110900678Y-59924972D01*
X110513895Y-60948563D01*
X109991774Y-61910191D01*
X109343975Y-62792062D01*
X108582487Y-63577857D01*
X107721399Y-64253036D01*
X106776645Y-64805105D01*
X105765709Y-65223849D01*
X104707295Y-65501519D01*
X103620990Y-65632976D01*
X102526895Y-65615789D01*
X101445256Y-65450274D01*
X100396086Y-65139496D01*
X99398802Y-64689205D01*
X98471855Y-64107733D01*
X97999572Y-63712843D01*
X98375000Y-63712843D01*
X98449689Y-63705487D01*
X98521508Y-63683701D01*
X98587696Y-63648322D01*
X98645711Y-63600711D01*
X98693322Y-63542696D01*
X98728701Y-63476508D01*
X98750487Y-63404689D01*
X98757843Y-63330000D01*
X98757843Y-62306000D01*
X99090409Y-62306000D01*
X99242157Y-62457748D01*
X99242157Y-63330000D01*
X99249513Y-63404689D01*
X99271299Y-63476508D01*
X99306678Y-63542696D01*
X99354289Y-63600711D01*
X99412304Y-63648322D01*
X99478492Y-63683701D01*
X99550311Y-63705487D01*
X99625000Y-63712843D01*
X100275000Y-63712843D01*
X100349689Y-63705487D01*
X100421508Y-63683701D01*
X100487696Y-63648322D01*
X100516458Y-63624718D01*
X100557286Y-63651998D01*
X100703088Y-63681000D01*
X106203088Y-63681000D01*
X106348890Y-63651998D01*
X106472496Y-63569408D01*
X106555086Y-63445802D01*
X106584088Y-63300000D01*
X106584088Y-63206000D01*
X106675154Y-63206000D01*
X106700000Y-63208447D01*
X106724846Y-63206000D01*
X106724854Y-63206000D01*
X106799193Y-63198678D01*
X106894575Y-63169745D01*
X106982479Y-63122759D01*
X107059527Y-63059527D01*
X107075376Y-63040215D01*
X108069232Y-62046360D01*
X108088539Y-62030515D01*
X108151771Y-61953467D01*
X108198757Y-61865563D01*
X108227690Y-61770181D01*
X108235012Y-61695842D01*
X108237460Y-61670988D01*
X108235012Y-61646134D01*
X108235012Y-58806000D01*
X108265722Y-58806000D01*
X108382800Y-58782712D01*
X108407068Y-58772660D01*
X108967157Y-59332749D01*
X108967157Y-59600000D01*
X108974513Y-59674689D01*
X108996299Y-59746508D01*
X109031678Y-59812696D01*
X109079289Y-59870711D01*
X109137304Y-59918322D01*
X109203492Y-59953701D01*
X109275311Y-59975487D01*
X109350000Y-59982843D01*
X110050000Y-59982843D01*
X110124689Y-59975487D01*
X110196508Y-59953701D01*
X110262696Y-59918322D01*
X110320711Y-59870711D01*
X110368322Y-59812696D01*
X110403701Y-59746508D01*
X110425487Y-59674689D01*
X110432843Y-59600000D01*
X110432843Y-59000000D01*
X110425487Y-58925311D01*
X110403701Y-58853492D01*
X110368322Y-58787304D01*
X110320711Y-58729289D01*
X110262696Y-58681678D01*
X110196508Y-58646299D01*
X110124689Y-58624513D01*
X110050000Y-58617157D01*
X109682749Y-58617157D01*
X109648435Y-58582843D01*
X110050000Y-58582843D01*
X110124689Y-58575487D01*
X110196508Y-58553701D01*
X110262696Y-58518322D01*
X110320711Y-58470711D01*
X110368322Y-58412696D01*
X110403701Y-58346508D01*
X110425487Y-58274689D01*
X110432843Y-58200000D01*
X110432843Y-57600000D01*
X110425487Y-57525311D01*
X110403701Y-57453492D01*
X110368322Y-57387304D01*
X110320711Y-57329289D01*
X110282666Y-57298067D01*
X110346508Y-57278701D01*
X110412696Y-57243322D01*
X110470711Y-57195711D01*
X110518322Y-57137696D01*
X110553701Y-57071508D01*
X110575487Y-56999689D01*
X110582843Y-56925000D01*
X110582843Y-55675000D01*
X110575487Y-55600311D01*
X110553701Y-55528492D01*
X110518322Y-55462304D01*
X110470711Y-55404289D01*
X110412696Y-55356678D01*
X110346508Y-55321299D01*
X110274689Y-55299513D01*
X110206000Y-55292748D01*
X110206000Y-55224854D01*
X110208448Y-55200000D01*
X110198678Y-55100807D01*
X110169745Y-55005425D01*
X110167277Y-55000808D01*
X110122759Y-54917521D01*
X110059527Y-54840473D01*
X110040220Y-54824628D01*
X109406000Y-54190409D01*
X109406000Y-52724854D01*
X109408448Y-52700000D01*
X109398678Y-52600807D01*
X109369745Y-52505425D01*
X109322759Y-52417521D01*
X109259527Y-52340473D01*
X109240220Y-52324628D01*
X108875376Y-51959785D01*
X108859527Y-51940473D01*
X108782479Y-51877241D01*
X108694575Y-51830255D01*
X108599193Y-51801322D01*
X108524854Y-51794000D01*
X108524846Y-51794000D01*
X108500000Y-51791553D01*
X108475154Y-51794000D01*
X107075146Y-51794000D01*
X107000807Y-51801322D01*
X106942529Y-51819000D01*
X106881000Y-51819000D01*
X106881000Y-51757471D01*
X106898678Y-51699193D01*
X106906000Y-51624854D01*
X106906000Y-50946071D01*
X106908448Y-50921217D01*
X106898678Y-50822024D01*
X106869745Y-50726642D01*
X106822759Y-50638738D01*
X106759527Y-50561690D01*
X106740220Y-50545845D01*
X106461537Y-50267163D01*
X106926753Y-50471378D01*
D29*
X106461537Y-50267163D02*
X106461537Y-50267163D01*
X106702838Y-50508463D02*
X106987270Y-50508463D01*
X106876759Y-50749763D02*
X107381035Y-50749763D01*
X106906000Y-50991063D02*
X107774801Y-50991063D01*
X106906000Y-51232363D02*
X108090957Y-51232363D01*
X106906000Y-51473663D02*
X108385768Y-51473663D01*
X106893894Y-51714963D02*
X108680579Y-51714963D01*
X108872486Y-51956263D02*
X108911014Y-51956263D01*
X109113155Y-52197563D02*
X109135243Y-52197563D01*
X109334167Y-52438863D02*
X109359473Y-52438863D01*
X109406495Y-52680163D02*
X109551453Y-52680163D01*
X109406000Y-52921463D02*
X109721042Y-52921463D01*
X109406000Y-53162763D02*
X109890630Y-53162763D01*
X109406000Y-53404063D02*
X110060219Y-53404063D01*
X109406000Y-53645363D02*
X110190163Y-53645363D01*
X109406000Y-53886663D02*
X110314707Y-53886663D01*
X109406000Y-54127963D02*
X110439251Y-54127963D01*
X109584855Y-54369263D02*
X110563796Y-54369263D01*
X109826155Y-54610563D02*
X110655090Y-54610563D01*
X110068875Y-54851863D02*
X110740539Y-54851863D01*
X110196360Y-55093163D02*
X110825988Y-55093163D01*
X110371136Y-55334463D02*
X110911437Y-55334463D01*
X110568041Y-55575763D02*
X110976455Y-55575763D01*
X110582843Y-55817063D02*
X111026426Y-55817063D01*
X110582843Y-56058363D02*
X111076397Y-56058363D01*
X110582843Y-56299663D02*
X111126368Y-56299663D01*
X110582843Y-56540963D02*
X111171802Y-56540963D01*
X110582843Y-56782263D02*
X111188252Y-56782263D01*
X110568244Y-57023563D02*
X111204702Y-57023563D01*
X110372396Y-57264863D02*
X111221152Y-57264863D01*
X110419679Y-57506163D02*
X111237602Y-57506163D01*
X110432843Y-57747463D02*
X111242456Y-57747463D01*
X110432843Y-57988763D02*
X111222575Y-57988763D01*
X110429882Y-58230063D02*
X111201040Y-58230063D01*
X110319916Y-58471363D02*
X111179504Y-58471363D01*
X110300452Y-58712663D02*
X111157969Y-58712663D01*
X108235012Y-58953963D02*
X108588371Y-58953963D01*
X110428309Y-58953963D02*
X111123069Y-58953963D01*
X108235012Y-59195263D02*
X108829671Y-59195263D01*
X110432843Y-59195263D02*
X111067804Y-59195263D01*
X108235012Y-59436563D02*
X108967157Y-59436563D01*
X110432843Y-59436563D02*
X111012539Y-59436563D01*
X108235012Y-59677863D02*
X108975475Y-59677863D01*
X110424524Y-59677863D02*
X110957274Y-59677863D01*
X108235012Y-59919163D02*
X109138877Y-59919163D01*
X110261122Y-59919163D02*
X110902009Y-59919163D01*
X108235012Y-60160463D02*
X110811694Y-60160463D01*
X108235012Y-60401763D02*
X110720514Y-60401763D01*
X108235012Y-60643063D02*
X110629334Y-60643063D01*
X108235012Y-60884363D02*
X110538155Y-60884363D01*
X108235012Y-61125663D02*
X110417738Y-61125663D01*
X108235012Y-61366963D02*
X110286723Y-61366963D01*
X108235012Y-61608263D02*
X110155708Y-61608263D01*
X108203610Y-61849563D02*
X110024693Y-61849563D01*
X108024728Y-62090863D02*
X109859058Y-62090863D01*
X98757843Y-62332163D02*
X99116572Y-62332163D01*
X107783428Y-62332163D02*
X109681805Y-62332163D01*
X98757843Y-62573463D02*
X99242157Y-62573463D01*
X107542128Y-62573463D02*
X109504553Y-62573463D01*
X98757843Y-62814763D02*
X99242157Y-62814763D01*
X107300828Y-62814763D02*
X109321977Y-62814763D01*
X98757843Y-63056063D02*
X99242157Y-63056063D01*
X107062369Y-63056063D02*
X109088141Y-63056063D01*
X98757843Y-63297363D02*
X99242157Y-63297363D01*
X106584088Y-63297363D02*
X108854305Y-63297363D01*
X98695477Y-63538663D02*
X99304522Y-63538663D01*
X106493038Y-63538663D02*
X108620469Y-63538663D01*
X98079847Y-63779963D02*
X108324732Y-63779963D01*
X98368439Y-64021263D02*
X108016991Y-64021263D01*
X98718676Y-64262563D02*
X107705096Y-64262563D01*
X99103342Y-64503863D02*
X107292160Y-64503863D01*
X99522736Y-64745163D02*
X106879224Y-64745163D01*
X100057156Y-64986463D02*
X106338809Y-64986463D01*
X100694071Y-65227763D02*
X105750790Y-65227763D01*
X101568042Y-65469063D02*
X104831010Y-65469063D01*
X111244000Y-57600000D02*
X111244000Y-57600000D01*
X111002700Y-55702490D02*
X111002700Y-59479520D01*
X110761400Y-54910771D02*
X110761400Y-60293560D01*
X110520100Y-54284603D02*
X110520100Y-55465631D01*
X110520100Y-57134370D02*
X110520100Y-60932141D01*
X110278800Y-53817093D02*
X110278800Y-55300761D01*
X110278800Y-58505106D02*
X110278800Y-58694895D01*
X110278800Y-59905106D02*
X110278800Y-61381554D01*
X110037500Y-53371737D02*
X110037500Y-54821909D01*
X110037500Y-58582843D02*
X110037500Y-58617157D01*
X110037500Y-59982843D02*
X110037500Y-61825974D01*
X109796200Y-53028401D02*
X109796200Y-54580609D01*
X109796200Y-58582843D02*
X109796200Y-58617157D01*
X109796200Y-59982843D02*
X109796200Y-62176432D01*
X109554900Y-52685066D02*
X109554900Y-54339309D01*
X109554900Y-59982843D02*
X109554900Y-62504922D01*
X109313600Y-52389497D02*
X109313600Y-52406361D01*
X109313600Y-59979258D02*
X109313600Y-62823406D01*
X109072300Y-52129827D02*
X109072300Y-52156709D01*
X109072300Y-59862194D02*
X109072300Y-63072408D01*
X108831000Y-51870157D02*
X108831000Y-51917062D01*
X108831000Y-59196592D02*
X108831000Y-63321411D01*
X108589700Y-51640578D02*
X108589700Y-51800387D01*
X108589700Y-58955292D02*
X108589700Y-63570413D01*
X108348400Y-51443077D02*
X108348400Y-51794000D01*
X108348400Y-58789555D02*
X108348400Y-63761404D01*
X108107100Y-51245575D02*
X108107100Y-51794000D01*
X108107100Y-62007899D02*
X108107100Y-63950607D01*
X107865800Y-51048073D02*
X107865800Y-51794000D01*
X107865800Y-62249792D02*
X107865800Y-64139811D01*
X107624500Y-50898957D02*
X107624500Y-51794000D01*
X107624500Y-62491092D02*
X107624500Y-64309659D01*
X107383200Y-50751089D02*
X107383200Y-51794000D01*
X107383200Y-62732392D02*
X107383200Y-64450663D01*
X107141900Y-50603220D02*
X107141900Y-51794000D01*
X107141900Y-62973692D02*
X107141900Y-64591667D01*
X106900600Y-50459897D02*
X106900600Y-50841538D01*
X106900600Y-51679680D02*
X106900600Y-51819000D01*
X106900600Y-63166525D02*
X106900600Y-64732671D01*
X106659300Y-50353974D02*
X106659300Y-50464926D01*
X106659300Y-63206000D02*
X106659300Y-64853710D01*
X106418000Y-63605821D02*
X106418000Y-64953660D01*
X106176700Y-63681000D02*
X106176700Y-65053610D01*
X105935400Y-63681000D02*
X105935400Y-65153560D01*
X105694100Y-63681000D02*
X105694100Y-65242635D01*
X105452800Y-63681000D02*
X105452800Y-65305939D01*
X105211500Y-63681000D02*
X105211500Y-65369243D01*
X104970200Y-63681000D02*
X104970200Y-65432547D01*
X104728900Y-63681000D02*
X104728900Y-65495851D01*
X104487600Y-63681000D02*
X104487600Y-65528104D01*
X104246300Y-63681000D02*
X104246300Y-65557305D01*
X104005000Y-63681000D02*
X104005000Y-65586505D01*
X103763700Y-63681000D02*
X103763700Y-65615706D01*
X103522400Y-63681000D02*
X103522400Y-65631428D01*
X103281100Y-63681000D02*
X103281100Y-65627637D01*
X103039800Y-63681000D02*
X103039800Y-65623847D01*
X102798500Y-63681000D02*
X102798500Y-65620056D01*
X102557200Y-63681000D02*
X102557200Y-65616266D01*
X102315900Y-63681000D02*
X102315900Y-65583503D01*
X102074600Y-63681000D02*
X102074600Y-65546578D01*
X101833300Y-63681000D02*
X101833300Y-65509654D01*
X101592000Y-63681000D02*
X101592000Y-65472730D01*
X101350700Y-63681000D02*
X101350700Y-65422266D01*
X101109400Y-63681000D02*
X101109400Y-65350790D01*
X100868100Y-63681000D02*
X100868100Y-65279313D01*
X100626800Y-63665825D02*
X100626800Y-65207837D01*
X100385500Y-63694624D02*
X100385500Y-65134717D01*
X100144200Y-63712843D02*
X100144200Y-65025766D01*
X99902900Y-63712843D02*
X99902900Y-64916814D01*
X99661600Y-63712843D02*
X99661600Y-64807863D01*
X99420300Y-63652596D02*
X99420300Y-64698912D01*
X99179000Y-62394591D02*
X99179000Y-64551324D01*
X98937700Y-62306000D02*
X98937700Y-64399957D01*
X98696400Y-63536938D02*
X98696400Y-64248590D01*
X98455100Y-63703846D02*
X98455100Y-64093724D01*
X98213800Y-63712843D02*
X98213800Y-63891966D01*
X95294000Y-56187759D02*
X95294000Y-56187759D01*
X95241966Y-56429059D02*
X95338949Y-56429059D01*
X95222975Y-56670359D02*
X95294000Y-56670359D01*
X95203985Y-56911659D02*
X95331742Y-56911659D01*
X95184994Y-57152959D02*
X95294000Y-57152959D01*
X95166003Y-57394259D02*
X95324534Y-57394259D01*
X95163349Y-57635559D02*
X95294946Y-57635559D01*
X95177262Y-57876859D02*
X95317327Y-57876859D01*
X95191175Y-58118159D02*
X95367157Y-58118159D01*
X95205088Y-58359459D02*
X95367157Y-58359459D01*
X95219002Y-58600759D02*
X95398571Y-58600759D01*
X95265315Y-58842059D02*
X96467940Y-58842059D01*
X95312656Y-59083359D02*
X96467157Y-59083359D01*
X95359997Y-59324659D02*
X96467157Y-59324659D01*
X95407339Y-59565959D02*
X96116362Y-59565959D01*
X95473000Y-59807259D02*
X96067157Y-59807259D01*
X95555615Y-60048559D02*
X96067157Y-60048559D01*
X95638231Y-60289859D02*
X96067157Y-60289859D01*
X95720846Y-60531159D02*
X96114820Y-60531159D01*
X95812338Y-60772459D02*
X96075379Y-60772459D01*
X95933700Y-61013759D02*
X96067157Y-61013759D01*
X96055061Y-61255059D02*
X96067157Y-61255059D01*
X96470953Y-58811453D02*
X96470953Y-58811453D01*
X96229653Y-58832843D02*
X96229653Y-59437956D01*
X95988353Y-58832843D02*
X95988353Y-61122427D01*
X95747053Y-58832552D02*
X95747053Y-60607705D01*
X95505753Y-58742429D02*
X95505753Y-59902925D01*
X95264453Y-56323274D02*
X95264453Y-58837670D01*
X102694913Y-49571873D02*
X102694913Y-49571873D01*
X101250082Y-49813173D02*
X103029820Y-49813173D01*
X100434942Y-50054473D02*
X102911081Y-50054473D01*
X99869223Y-50295773D02*
X102901184Y-50295773D01*
X99373778Y-50537073D02*
X102996401Y-50537073D01*
X98970595Y-50778373D02*
X103312766Y-50778373D01*
X103687245Y-50778373D02*
X104594006Y-50778373D01*
X98577978Y-51019673D02*
X104428335Y-51019673D01*
X98276787Y-51260973D02*
X104322981Y-51260973D01*
X97975595Y-51502273D02*
X104319001Y-51502273D01*
X97693775Y-51743573D02*
X104319001Y-51743573D01*
X97464790Y-51984873D02*
X103461376Y-51984873D01*
X97235804Y-52226173D02*
X101540813Y-52226173D01*
X97006819Y-52467473D02*
X101216935Y-52467473D01*
X96832255Y-52708773D02*
X97679100Y-52708773D01*
X99065786Y-52708773D02*
X100975635Y-52708773D01*
X96658864Y-52950073D02*
X97434336Y-52950073D01*
X99188051Y-52950073D02*
X100474853Y-52950073D01*
X96485472Y-53191373D02*
X97237767Y-53191373D01*
X99199697Y-53191373D02*
X100417157Y-53191373D01*
X96325603Y-53432673D02*
X97194001Y-53432673D01*
X99164522Y-53432673D02*
X100251736Y-53432673D01*
X96197841Y-53673973D02*
X97194001Y-53673973D01*
X99232843Y-53673973D02*
X100047068Y-53673973D01*
X96070079Y-53915273D02*
X97194001Y-53915273D01*
X99232843Y-53915273D02*
X99993057Y-53915273D01*
X95942317Y-54156573D02*
X97194001Y-54156573D01*
X99232195Y-54156573D02*
X99994001Y-54156573D01*
X95825947Y-54397873D02*
X97194001Y-54397873D01*
X99470698Y-54397873D02*
X99994001Y-54397873D01*
X95737644Y-54639173D02*
X97194001Y-54639173D01*
X99502843Y-54639173D02*
X99994001Y-54639173D01*
X95649341Y-54880473D02*
X95737284Y-54880473D01*
X99502843Y-54880473D02*
X99997157Y-54880473D01*
X95561038Y-55121773D02*
X95667157Y-55121773D01*
X99502843Y-55121773D02*
X99997157Y-55121773D01*
X95473811Y-55363073D02*
X95667157Y-55363073D01*
X99438012Y-55363073D02*
X100061987Y-55363073D01*
X95421199Y-55604373D02*
X95667157Y-55604373D01*
X98780320Y-55604373D02*
X100719681Y-55604373D01*
X95368587Y-55845673D02*
X95407924Y-55845673D01*
X98782843Y-55845673D02*
X100717157Y-55845673D01*
X98778606Y-56086973D02*
X100721395Y-56086973D01*
X98782843Y-56328273D02*
X100717157Y-56328273D01*
X98776892Y-56569573D02*
X100723109Y-56569573D01*
X98782843Y-56810873D02*
X100717157Y-56810873D01*
X98774536Y-57052173D02*
X99799801Y-57052173D01*
X100375000Y-57052173D02*
X100625000Y-57052173D01*
X98782843Y-57293473D02*
X99648228Y-57293473D01*
X100375000Y-57293473D02*
X100625000Y-57293473D01*
X98769258Y-57534773D02*
X99683523Y-57534773D01*
X100375000Y-57534773D02*
X100625000Y-57534773D01*
X98782843Y-57776073D02*
X100647000Y-57776073D01*
X98763980Y-58017373D02*
X99631377Y-58017373D01*
X100375000Y-58017373D02*
X100625000Y-58017373D01*
X98782843Y-58258673D02*
X99669826Y-58258673D01*
X100375000Y-58258673D02*
X100625000Y-58258673D01*
X99273382Y-58499973D02*
X99855292Y-58499973D01*
X100351277Y-58499973D02*
X100648723Y-58499973D01*
X99485162Y-58741273D02*
X100819000Y-58741273D01*
X99502843Y-58982573D02*
X100819000Y-58982573D01*
X99502843Y-59223873D02*
X100843640Y-59223873D01*
X99501348Y-59465173D02*
X101120432Y-59465173D01*
X99439117Y-59706473D02*
X101549460Y-59706473D01*
X99686067Y-59947773D02*
X102067377Y-59947773D01*
X99707843Y-60189073D02*
X101817026Y-60189073D01*
X99707843Y-60430373D02*
X101524018Y-60430373D01*
X99707843Y-60671673D02*
X101231011Y-60671673D01*
X104608032Y-50882210D02*
X104608032Y-50882210D01*
X104366732Y-49659807D02*
X104366732Y-49694000D01*
X104366732Y-50706000D02*
X104366732Y-51115218D01*
X104125432Y-49625465D02*
X104125432Y-49694000D01*
X104125432Y-50706000D02*
X104125432Y-51819000D01*
X103884132Y-49591123D02*
X103884132Y-49694000D01*
X103884132Y-50706000D02*
X103884132Y-51819000D01*
X103642832Y-49576836D02*
X103642832Y-49610538D01*
X103642832Y-50789463D02*
X103642832Y-51852616D01*
X103401532Y-49575572D02*
X103401532Y-49601715D01*
X103401532Y-50798284D02*
X103401532Y-52071882D01*
X103160232Y-49574309D02*
X103160232Y-49698199D01*
X103160232Y-50701800D02*
X103160232Y-52067157D01*
X102918932Y-49573045D02*
X102918932Y-50019281D01*
X102918932Y-50380718D02*
X102918932Y-52067157D01*
X102677632Y-49574149D02*
X102677632Y-52074284D01*
X102436332Y-49605916D02*
X102436332Y-52078045D01*
X102195032Y-49637684D02*
X102195032Y-52067157D01*
X101953732Y-49669452D02*
X101953732Y-52067157D01*
X101953732Y-59906000D02*
X101953732Y-60076490D01*
X101712432Y-49701220D02*
X101712432Y-52093587D01*
X101712432Y-59836683D02*
X101712432Y-60275208D01*
X101471132Y-49752701D02*
X101471132Y-52310323D01*
X101471132Y-59599264D02*
X101471132Y-60473925D01*
X101229832Y-49818714D02*
X101229832Y-52453438D01*
X101229832Y-59481000D02*
X101229832Y-60672643D01*
X100988532Y-49884726D02*
X100988532Y-52695876D01*
X100988532Y-59408121D02*
X100988532Y-60871361D01*
X100747232Y-49950738D02*
X100747232Y-52772354D01*
X100747232Y-58598482D02*
X100747232Y-60894000D01*
X100505932Y-50024194D02*
X100505932Y-52907749D01*
X100505932Y-55532843D02*
X100505932Y-60894000D01*
X100264632Y-50127117D02*
X100264632Y-53419777D01*
X100264632Y-55513147D02*
X100264632Y-56913382D01*
X100264632Y-57625000D02*
X100264632Y-57875000D01*
X100264632Y-58586618D02*
X100264632Y-60894000D01*
X100023332Y-50230041D02*
X100023332Y-53728248D01*
X100023332Y-55286727D02*
X100023332Y-56906569D01*
X100023332Y-57625000D02*
X100023332Y-57875000D01*
X100023332Y-58593430D02*
X100023332Y-60894000D01*
X99782032Y-50332964D02*
X99782032Y-57069942D01*
X99782032Y-57625000D02*
X99782032Y-57875000D01*
X99782032Y-58430058D02*
X99782032Y-60894000D01*
X99540732Y-50437154D02*
X99540732Y-57437458D01*
X99540732Y-57437458D02*
X99540732Y-58033750D01*
X99540732Y-58033750D02*
X99540732Y-59754170D01*
X99299432Y-50581569D02*
X99299432Y-54213898D01*
X99299432Y-55486103D02*
X99299432Y-57437458D01*
X99299432Y-57437458D02*
X99299432Y-58033750D01*
X99299432Y-58033750D02*
X99299432Y-58513898D01*
X99058132Y-50725984D02*
X99058132Y-52701119D01*
X99058132Y-55532843D02*
X99058132Y-57437458D01*
X99058132Y-57437458D02*
X99058132Y-58033750D01*
X99058132Y-58033750D02*
X99058132Y-58467157D01*
X98816832Y-50870399D02*
X98816832Y-52533885D01*
X98816832Y-55526621D02*
X98816832Y-57437458D01*
X98816832Y-57437458D02*
X98816832Y-58033750D01*
X98816832Y-58033750D02*
X98816832Y-58473378D01*
X98575532Y-51021634D02*
X98575532Y-52494000D01*
X98334232Y-51214951D02*
X98334232Y-52554155D01*
X98092932Y-51408269D02*
X98092932Y-52594000D01*
X97851632Y-51601587D02*
X97851632Y-52616238D01*
X97610332Y-51831505D02*
X97610332Y-52774077D01*
X97369032Y-52085782D02*
X97369032Y-53015377D01*
X97127732Y-52340058D02*
X97127732Y-54717157D01*
X96886432Y-52633379D02*
X96886432Y-54723417D01*
X96645132Y-52969184D02*
X96645132Y-54772290D01*
X96403832Y-53304989D02*
X96403832Y-54717157D01*
X96162532Y-53740661D02*
X96162532Y-54717157D01*
X95921232Y-54196397D02*
X95921232Y-54740917D01*
X95679932Y-54796879D02*
X95679932Y-55007446D01*
X95438632Y-55524420D02*
X95438632Y-55804355D01*
D30*
X95294000Y-56259686D02*
X95317288Y-56376764D01*
X95347624Y-56450000D01*
X95317288Y-56523236D01*
X95294000Y-56640314D01*
X95294000Y-56759686D01*
X95317288Y-56876764D01*
X95347624Y-56950000D01*
X95317288Y-57023236D01*
X95294000Y-57140314D01*
X95294000Y-57259686D01*
X95317288Y-57376764D01*
X95347624Y-57450000D01*
X95317288Y-57523236D01*
X95294000Y-57640314D01*
X95294000Y-57759686D01*
X95317288Y-57876764D01*
X95362970Y-57987049D01*
X95367157Y-57993315D01*
X95367157Y-58450000D01*
X95374513Y-58524689D01*
X95396299Y-58596508D01*
X95431678Y-58662696D01*
X95479289Y-58720711D01*
X95537304Y-58768322D01*
X95603492Y-58803701D01*
X95675311Y-58825487D01*
X95750000Y-58832843D01*
X96350000Y-58832843D01*
X96424689Y-58825487D01*
X96470953Y-58811453D01*
X96467157Y-58850000D01*
X96467157Y-59350000D01*
X96468847Y-59367157D01*
X96450000Y-59367157D01*
X96375311Y-59374513D01*
X96303492Y-59396299D01*
X96237304Y-59431678D01*
X96179289Y-59479289D01*
X96131678Y-59537304D01*
X96096299Y-59603492D01*
X96074513Y-59675311D01*
X96067157Y-59750000D01*
X96067157Y-60350000D01*
X96074513Y-60424689D01*
X96096299Y-60496508D01*
X96131678Y-60562696D01*
X96162292Y-60600000D01*
X96131678Y-60637304D01*
X96096299Y-60703492D01*
X96074513Y-60775311D01*
X96067157Y-60850000D01*
X96067157Y-61279111D01*
X95784533Y-60717175D01*
X95430093Y-59681940D01*
X95219429Y-58608181D01*
X95156441Y-57515765D01*
X95242293Y-56424908D01*
X95294000Y-56187759D01*
X95294000Y-56259686D01*
D29*
X106461537Y-50267163D02*
X106461537Y-50267163D01*
X106702838Y-50508463D02*
X106987270Y-50508463D01*
X106876759Y-50749763D02*
X107381035Y-50749763D01*
X106906000Y-50991063D02*
X107774801Y-50991063D01*
X106906000Y-51232363D02*
X108090957Y-51232363D01*
X106906000Y-51473663D02*
X108385768Y-51473663D01*
X106893894Y-51714963D02*
X108680579Y-51714963D01*
X108872486Y-51956263D02*
X108911014Y-51956263D01*
X109113155Y-52197563D02*
X109135243Y-52197563D01*
X109334167Y-52438863D02*
X109359473Y-52438863D01*
X109406495Y-52680163D02*
X109551453Y-52680163D01*
X109406000Y-52921463D02*
X109721042Y-52921463D01*
X109406000Y-53162763D02*
X109890630Y-53162763D01*
X109406000Y-53404063D02*
X110060219Y-53404063D01*
X109406000Y-53645363D02*
X110190163Y-53645363D01*
X109406000Y-53886663D02*
X110314707Y-53886663D01*
X109406000Y-54127963D02*
X110439251Y-54127963D01*
X109584855Y-54369263D02*
X110563796Y-54369263D01*
X109826155Y-54610563D02*
X110655090Y-54610563D01*
X110068875Y-54851863D02*
X110740539Y-54851863D01*
X110196360Y-55093163D02*
X110825988Y-55093163D01*
X110371136Y-55334463D02*
X110911437Y-55334463D01*
X110568041Y-55575763D02*
X110976455Y-55575763D01*
X110582843Y-55817063D02*
X111026426Y-55817063D01*
X110582843Y-56058363D02*
X111076397Y-56058363D01*
X110582843Y-56299663D02*
X111126368Y-56299663D01*
X110582843Y-56540963D02*
X111171802Y-56540963D01*
X110582843Y-56782263D02*
X111188252Y-56782263D01*
X110568244Y-57023563D02*
X111204702Y-57023563D01*
X110372396Y-57264863D02*
X111221152Y-57264863D01*
X110419679Y-57506163D02*
X111237602Y-57506163D01*
X110432843Y-57747463D02*
X111242456Y-57747463D01*
X110432843Y-57988763D02*
X111222575Y-57988763D01*
X110429882Y-58230063D02*
X111201040Y-58230063D01*
X110319916Y-58471363D02*
X111179504Y-58471363D01*
X110300452Y-58712663D02*
X111157969Y-58712663D01*
X108235012Y-58953963D02*
X108588371Y-58953963D01*
X110428309Y-58953963D02*
X111123069Y-58953963D01*
X108235012Y-59195263D02*
X108829671Y-59195263D01*
X110432843Y-59195263D02*
X111067804Y-59195263D01*
X108235012Y-59436563D02*
X108967157Y-59436563D01*
X110432843Y-59436563D02*
X111012539Y-59436563D01*
X108235012Y-59677863D02*
X108975475Y-59677863D01*
X110424524Y-59677863D02*
X110957274Y-59677863D01*
X108235012Y-59919163D02*
X109138877Y-59919163D01*
X110261122Y-59919163D02*
X110902009Y-59919163D01*
X108235012Y-60160463D02*
X110811694Y-60160463D01*
X108235012Y-60401763D02*
X110720514Y-60401763D01*
X108235012Y-60643063D02*
X110629334Y-60643063D01*
X108235012Y-60884363D02*
X110538155Y-60884363D01*
X108235012Y-61125663D02*
X110417738Y-61125663D01*
X108235012Y-61366963D02*
X110286723Y-61366963D01*
X108235012Y-61608263D02*
X110155708Y-61608263D01*
X108203610Y-61849563D02*
X110024693Y-61849563D01*
X108024728Y-62090863D02*
X109859058Y-62090863D01*
X98757843Y-62332163D02*
X99116572Y-62332163D01*
X107783428Y-62332163D02*
X109681805Y-62332163D01*
X98757843Y-62573463D02*
X99242157Y-62573463D01*
X107542128Y-62573463D02*
X109504553Y-62573463D01*
X98757843Y-62814763D02*
X99242157Y-62814763D01*
X107300828Y-62814763D02*
X109321977Y-62814763D01*
X98757843Y-63056063D02*
X99242157Y-63056063D01*
X107062369Y-63056063D02*
X109088141Y-63056063D01*
X98757843Y-63297363D02*
X99242157Y-63297363D01*
X106584088Y-63297363D02*
X108854305Y-63297363D01*
X98695477Y-63538663D02*
X99304522Y-63538663D01*
X106493038Y-63538663D02*
X108620469Y-63538663D01*
X98079847Y-63779963D02*
X108324732Y-63779963D01*
X98368439Y-64021263D02*
X108016991Y-64021263D01*
X98718676Y-64262563D02*
X107705096Y-64262563D01*
X99103342Y-64503863D02*
X107292160Y-64503863D01*
X99522736Y-64745163D02*
X106879224Y-64745163D01*
X100057156Y-64986463D02*
X106338809Y-64986463D01*
X100694071Y-65227763D02*
X105750790Y-65227763D01*
X101568042Y-65469063D02*
X104831010Y-65469063D01*
X111244000Y-57600000D02*
X111244000Y-57600000D01*
X111002700Y-55702490D02*
X111002700Y-59479520D01*
X110761400Y-54910771D02*
X110761400Y-60293560D01*
X110520100Y-54284603D02*
X110520100Y-55465631D01*
X110520100Y-57134370D02*
X110520100Y-60932141D01*
X110278800Y-53817093D02*
X110278800Y-55300761D01*
X110278800Y-58505106D02*
X110278800Y-58694895D01*
X110278800Y-59905106D02*
X110278800Y-61381554D01*
X110037500Y-53371737D02*
X110037500Y-54821909D01*
X110037500Y-58582843D02*
X110037500Y-58617157D01*
X110037500Y-59982843D02*
X110037500Y-61825974D01*
X109796200Y-53028401D02*
X109796200Y-54580609D01*
X109796200Y-58582843D02*
X109796200Y-58617157D01*
X109796200Y-59982843D02*
X109796200Y-62176432D01*
X109554900Y-52685066D02*
X109554900Y-54339309D01*
X109554900Y-59982843D02*
X109554900Y-62504922D01*
X109313600Y-52389497D02*
X109313600Y-52406361D01*
X109313600Y-59979258D02*
X109313600Y-62823406D01*
X109072300Y-52129827D02*
X109072300Y-52156709D01*
X109072300Y-59862194D02*
X109072300Y-63072408D01*
X108831000Y-51870157D02*
X108831000Y-51917062D01*
X108831000Y-59196592D02*
X108831000Y-63321411D01*
X108589700Y-51640578D02*
X108589700Y-51800387D01*
X108589700Y-58955292D02*
X108589700Y-63570413D01*
X108348400Y-51443077D02*
X108348400Y-51794000D01*
X108348400Y-58789555D02*
X108348400Y-63761404D01*
X108107100Y-51245575D02*
X108107100Y-51794000D01*
X108107100Y-62007899D02*
X108107100Y-63950607D01*
X107865800Y-51048073D02*
X107865800Y-51794000D01*
X107865800Y-62249792D02*
X107865800Y-64139811D01*
X107624500Y-50898957D02*
X107624500Y-51794000D01*
X107624500Y-62491092D02*
X107624500Y-64309659D01*
X107383200Y-50751089D02*
X107383200Y-51794000D01*
X107383200Y-62732392D02*
X107383200Y-64450663D01*
X107141900Y-50603220D02*
X107141900Y-51794000D01*
X107141900Y-62973692D02*
X107141900Y-64591667D01*
X106900600Y-50459897D02*
X106900600Y-50841538D01*
X106900600Y-51679680D02*
X106900600Y-51819000D01*
X106900600Y-63166525D02*
X106900600Y-64732671D01*
X106659300Y-50353974D02*
X106659300Y-50464926D01*
X106659300Y-63206000D02*
X106659300Y-64853710D01*
X106418000Y-63605821D02*
X106418000Y-64953660D01*
X106176700Y-63681000D02*
X106176700Y-65053610D01*
X105935400Y-63681000D02*
X105935400Y-65153560D01*
X105694100Y-63681000D02*
X105694100Y-65242635D01*
X105452800Y-63681000D02*
X105452800Y-65305939D01*
X105211500Y-63681000D02*
X105211500Y-65369243D01*
X104970200Y-63681000D02*
X104970200Y-65432547D01*
X104728900Y-63681000D02*
X104728900Y-65495851D01*
X104487600Y-63681000D02*
X104487600Y-65528104D01*
X104246300Y-63681000D02*
X104246300Y-65557305D01*
X104005000Y-63681000D02*
X104005000Y-65586505D01*
X103763700Y-63681000D02*
X103763700Y-65615706D01*
X103522400Y-63681000D02*
X103522400Y-65631428D01*
X103281100Y-63681000D02*
X103281100Y-65627637D01*
X103039800Y-63681000D02*
X103039800Y-65623847D01*
X102798500Y-63681000D02*
X102798500Y-65620056D01*
X102557200Y-63681000D02*
X102557200Y-65616266D01*
X102315900Y-63681000D02*
X102315900Y-65583503D01*
X102074600Y-63681000D02*
X102074600Y-65546578D01*
X101833300Y-63681000D02*
X101833300Y-65509654D01*
X101592000Y-63681000D02*
X101592000Y-65472730D01*
X101350700Y-63681000D02*
X101350700Y-65422266D01*
X101109400Y-63681000D02*
X101109400Y-65350790D01*
X100868100Y-63681000D02*
X100868100Y-65279313D01*
X100626800Y-63665825D02*
X100626800Y-65207837D01*
X100385500Y-63694624D02*
X100385500Y-65134717D01*
X100144200Y-63712843D02*
X100144200Y-65025766D01*
X99902900Y-63712843D02*
X99902900Y-64916814D01*
X99661600Y-63712843D02*
X99661600Y-64807863D01*
X99420300Y-63652596D02*
X99420300Y-64698912D01*
X99179000Y-62394591D02*
X99179000Y-64551324D01*
X98937700Y-62306000D02*
X98937700Y-64399957D01*
X98696400Y-63536938D02*
X98696400Y-64248590D01*
X98455100Y-63703846D02*
X98455100Y-64093724D01*
X98213800Y-63712843D02*
X98213800Y-63891966D01*
X95294000Y-56187759D02*
X95294000Y-56187759D01*
X95241966Y-56429059D02*
X95338949Y-56429059D01*
X95222975Y-56670359D02*
X95294000Y-56670359D01*
X95203985Y-56911659D02*
X95331742Y-56911659D01*
X95184994Y-57152959D02*
X95294000Y-57152959D01*
X95166003Y-57394259D02*
X95324534Y-57394259D01*
X95163349Y-57635559D02*
X95294946Y-57635559D01*
X95177262Y-57876859D02*
X95317327Y-57876859D01*
X95191175Y-58118159D02*
X95367157Y-58118159D01*
X95205088Y-58359459D02*
X95367157Y-58359459D01*
X95219002Y-58600759D02*
X95398571Y-58600759D01*
X95265315Y-58842059D02*
X96467940Y-58842059D01*
X95312656Y-59083359D02*
X96467157Y-59083359D01*
X95359997Y-59324659D02*
X96467157Y-59324659D01*
X95407339Y-59565959D02*
X96116362Y-59565959D01*
X95473000Y-59807259D02*
X96067157Y-59807259D01*
X95555615Y-60048559D02*
X96067157Y-60048559D01*
X95638231Y-60289859D02*
X96067157Y-60289859D01*
X95720846Y-60531159D02*
X96114820Y-60531159D01*
X95812338Y-60772459D02*
X96075379Y-60772459D01*
X95933700Y-61013759D02*
X96067157Y-61013759D01*
X96055061Y-61255059D02*
X96067157Y-61255059D01*
X96470953Y-58811453D02*
X96470953Y-58811453D01*
X96229653Y-58832843D02*
X96229653Y-59437956D01*
X95988353Y-58832843D02*
X95988353Y-61122427D01*
X95747053Y-58832552D02*
X95747053Y-60607705D01*
X95505753Y-58742429D02*
X95505753Y-59902925D01*
X95264453Y-56323274D02*
X95264453Y-58837670D01*
X102694913Y-49571873D02*
X102694913Y-49571873D01*
X101250082Y-49813173D02*
X103029820Y-49813173D01*
X100434942Y-50054473D02*
X102911081Y-50054473D01*
X99869223Y-50295773D02*
X102901184Y-50295773D01*
X99373778Y-50537073D02*
X102996401Y-50537073D01*
X98970595Y-50778373D02*
X103312766Y-50778373D01*
X103687245Y-50778373D02*
X104594006Y-50778373D01*
X98577978Y-51019673D02*
X104428335Y-51019673D01*
X98276787Y-51260973D02*
X104322981Y-51260973D01*
X97975595Y-51502273D02*
X104319001Y-51502273D01*
X97693775Y-51743573D02*
X104319001Y-51743573D01*
X97464790Y-51984873D02*
X103461376Y-51984873D01*
X97235804Y-52226173D02*
X101540813Y-52226173D01*
X97006819Y-52467473D02*
X101216935Y-52467473D01*
X96832255Y-52708773D02*
X97679100Y-52708773D01*
X99065786Y-52708773D02*
X100975635Y-52708773D01*
X96658864Y-52950073D02*
X97434336Y-52950073D01*
X99188051Y-52950073D02*
X100474853Y-52950073D01*
X96485472Y-53191373D02*
X97237767Y-53191373D01*
X99199697Y-53191373D02*
X100417157Y-53191373D01*
X96325603Y-53432673D02*
X97194001Y-53432673D01*
X99164522Y-53432673D02*
X100251736Y-53432673D01*
X96197841Y-53673973D02*
X97194001Y-53673973D01*
X99232843Y-53673973D02*
X100047068Y-53673973D01*
X96070079Y-53915273D02*
X97194001Y-53915273D01*
X99232843Y-53915273D02*
X99993057Y-53915273D01*
X95942317Y-54156573D02*
X97194001Y-54156573D01*
X99232195Y-54156573D02*
X99994001Y-54156573D01*
X95825947Y-54397873D02*
X97194001Y-54397873D01*
X99470698Y-54397873D02*
X99994001Y-54397873D01*
X95737644Y-54639173D02*
X97194001Y-54639173D01*
X99502843Y-54639173D02*
X99994001Y-54639173D01*
X95649341Y-54880473D02*
X95737284Y-54880473D01*
X99502843Y-54880473D02*
X99997157Y-54880473D01*
X95561038Y-55121773D02*
X95667157Y-55121773D01*
X99502843Y-55121773D02*
X99997157Y-55121773D01*
X95473811Y-55363073D02*
X95667157Y-55363073D01*
X99438012Y-55363073D02*
X100061987Y-55363073D01*
X95421199Y-55604373D02*
X95667157Y-55604373D01*
X98780320Y-55604373D02*
X100719681Y-55604373D01*
X95368587Y-55845673D02*
X95407924Y-55845673D01*
X98782843Y-55845673D02*
X100717157Y-55845673D01*
X98778606Y-56086973D02*
X100721395Y-56086973D01*
X98782843Y-56328273D02*
X100717157Y-56328273D01*
X98776892Y-56569573D02*
X100723109Y-56569573D01*
X98782843Y-56810873D02*
X100717157Y-56810873D01*
X98774536Y-57052173D02*
X99799801Y-57052173D01*
X100375000Y-57052173D02*
X100625000Y-57052173D01*
X98782843Y-57293473D02*
X99648228Y-57293473D01*
X100375000Y-57293473D02*
X100625000Y-57293473D01*
X98769258Y-57534773D02*
X99683523Y-57534773D01*
X100375000Y-57534773D02*
X100625000Y-57534773D01*
X98782843Y-57776073D02*
X100647000Y-57776073D01*
X98763980Y-58017373D02*
X99631377Y-58017373D01*
X100375000Y-58017373D02*
X100625000Y-58017373D01*
X98782843Y-58258673D02*
X99669826Y-58258673D01*
X100375000Y-58258673D02*
X100625000Y-58258673D01*
X99273382Y-58499973D02*
X99855292Y-58499973D01*
X100351277Y-58499973D02*
X100648723Y-58499973D01*
X99485162Y-58741273D02*
X100819000Y-58741273D01*
X99502843Y-58982573D02*
X100819000Y-58982573D01*
X99502843Y-59223873D02*
X100843640Y-59223873D01*
X99501348Y-59465173D02*
X101120432Y-59465173D01*
X99439117Y-59706473D02*
X101549460Y-59706473D01*
X99686067Y-59947773D02*
X102067377Y-59947773D01*
X99707843Y-60189073D02*
X101817026Y-60189073D01*
X99707843Y-60430373D02*
X101524018Y-60430373D01*
X99707843Y-60671673D02*
X101231011Y-60671673D01*
X104608032Y-50882210D02*
X104608032Y-50882210D01*
X104366732Y-49659807D02*
X104366732Y-49694000D01*
X104366732Y-50706000D02*
X104366732Y-51115218D01*
X104125432Y-49625465D02*
X104125432Y-49694000D01*
X104125432Y-50706000D02*
X104125432Y-51819000D01*
X103884132Y-49591123D02*
X103884132Y-49694000D01*
X103884132Y-50706000D02*
X103884132Y-51819000D01*
X103642832Y-49576836D02*
X103642832Y-49610538D01*
X103642832Y-50789463D02*
X103642832Y-51852616D01*
X103401532Y-49575572D02*
X103401532Y-49601715D01*
X103401532Y-50798284D02*
X103401532Y-52071882D01*
X103160232Y-49574309D02*
X103160232Y-49698199D01*
X103160232Y-50701800D02*
X103160232Y-52067157D01*
X102918932Y-49573045D02*
X102918932Y-50019281D01*
X102918932Y-50380718D02*
X102918932Y-52067157D01*
X102677632Y-49574149D02*
X102677632Y-52074284D01*
X102436332Y-49605916D02*
X102436332Y-52078045D01*
X102195032Y-49637684D02*
X102195032Y-52067157D01*
X101953732Y-49669452D02*
X101953732Y-52067157D01*
X101953732Y-59906000D02*
X101953732Y-60076490D01*
X101712432Y-49701220D02*
X101712432Y-52093587D01*
X101712432Y-59836683D02*
X101712432Y-60275208D01*
X101471132Y-49752701D02*
X101471132Y-52310323D01*
X101471132Y-59599264D02*
X101471132Y-60473925D01*
X101229832Y-49818714D02*
X101229832Y-52453438D01*
X101229832Y-59481000D02*
X101229832Y-60672643D01*
X100988532Y-49884726D02*
X100988532Y-52695876D01*
X100988532Y-59408121D02*
X100988532Y-60871361D01*
X100747232Y-49950738D02*
X100747232Y-52772354D01*
X100747232Y-58598482D02*
X100747232Y-60894000D01*
X100505932Y-50024194D02*
X100505932Y-52907749D01*
X100505932Y-55532843D02*
X100505932Y-60894000D01*
X100264632Y-50127117D02*
X100264632Y-53419777D01*
X100264632Y-55513147D02*
X100264632Y-56913382D01*
X100264632Y-57625000D02*
X100264632Y-57875000D01*
X100264632Y-58586618D02*
X100264632Y-60894000D01*
X100023332Y-50230041D02*
X100023332Y-53728248D01*
X100023332Y-55286727D02*
X100023332Y-56906569D01*
X100023332Y-57625000D02*
X100023332Y-57875000D01*
X100023332Y-58593430D02*
X100023332Y-60894000D01*
X99782032Y-50332964D02*
X99782032Y-57069942D01*
X99782032Y-57625000D02*
X99782032Y-57875000D01*
X99782032Y-58430058D02*
X99782032Y-60894000D01*
X99540732Y-50437154D02*
X99540732Y-57437458D01*
X99540732Y-57437458D02*
X99540732Y-58033750D01*
X99540732Y-58033750D02*
X99540732Y-59754170D01*
X99299432Y-50581569D02*
X99299432Y-54213898D01*
X99299432Y-55486103D02*
X99299432Y-57437458D01*
X99299432Y-57437458D02*
X99299432Y-58033750D01*
X99299432Y-58033750D02*
X99299432Y-58513898D01*
X99058132Y-50725984D02*
X99058132Y-52701119D01*
X99058132Y-55532843D02*
X99058132Y-57437458D01*
X99058132Y-57437458D02*
X99058132Y-58033750D01*
X99058132Y-58033750D02*
X99058132Y-58467157D01*
X98816832Y-50870399D02*
X98816832Y-52533885D01*
X98816832Y-55526621D02*
X98816832Y-57437458D01*
X98816832Y-57437458D02*
X98816832Y-58033750D01*
X98816832Y-58033750D02*
X98816832Y-58473378D01*
X98575532Y-51021634D02*
X98575532Y-52494000D01*
X98334232Y-51214951D02*
X98334232Y-52554155D01*
X98092932Y-51408269D02*
X98092932Y-52594000D01*
X97851632Y-51601587D02*
X97851632Y-52616238D01*
X97610332Y-51831505D02*
X97610332Y-52774077D01*
X97369032Y-52085782D02*
X97369032Y-53015377D01*
X97127732Y-52340058D02*
X97127732Y-54717157D01*
X96886432Y-52633379D02*
X96886432Y-54723417D01*
X96645132Y-52969184D02*
X96645132Y-54772290D01*
X96403832Y-53304989D02*
X96403832Y-54717157D01*
X96162532Y-53740661D02*
X96162532Y-54717157D01*
X95921232Y-54196397D02*
X95921232Y-54740917D01*
X95679932Y-54796879D02*
X95679932Y-55007446D01*
X95438632Y-55524420D02*
X95438632Y-55804355D01*
D30*
X103789128Y-49577602D02*
X104606980Y-49694000D01*
X103833494Y-49694000D01*
X103787055Y-49662970D01*
X103676770Y-49617288D01*
X103559692Y-49594000D01*
X103440320Y-49594000D01*
X103323242Y-49617288D01*
X103212957Y-49662970D01*
X103113704Y-49729289D01*
X103029295Y-49813698D01*
X102962976Y-49912951D01*
X102917294Y-50023236D01*
X102894006Y-50140314D01*
X102894006Y-50259686D01*
X102917294Y-50376764D01*
X102962976Y-50487049D01*
X103029295Y-50586302D01*
X103113704Y-50670711D01*
X103212957Y-50737030D01*
X103323242Y-50782712D01*
X103440320Y-50806000D01*
X103559692Y-50806000D01*
X103676770Y-50782712D01*
X103787055Y-50737030D01*
X103833494Y-50706000D01*
X104594006Y-50706000D01*
X104594006Y-50811695D01*
X104608032Y-50882210D01*
X104531479Y-50923128D01*
X104458237Y-50983236D01*
X104398129Y-51056478D01*
X104353465Y-51140039D01*
X104325961Y-51230708D01*
X104319001Y-51301374D01*
X104319000Y-51819000D01*
X103801374Y-51819000D01*
X103730708Y-51825960D01*
X103640039Y-51853464D01*
X103556478Y-51898128D01*
X103483236Y-51958236D01*
X103423128Y-52031478D01*
X103389601Y-52094204D01*
X103324689Y-52074513D01*
X103250000Y-52067157D01*
X102750000Y-52067157D01*
X102675311Y-52074513D01*
X102603492Y-52096299D01*
X102550000Y-52124892D01*
X102496508Y-52096299D01*
X102424689Y-52074513D01*
X102350000Y-52067157D01*
X101850000Y-52067157D01*
X101775311Y-52074513D01*
X101703492Y-52096299D01*
X101637304Y-52131678D01*
X101579289Y-52179289D01*
X101531678Y-52237304D01*
X101496811Y-52302534D01*
X101405425Y-52330255D01*
X101317521Y-52377241D01*
X101240473Y-52440473D01*
X101224628Y-52459780D01*
X100917251Y-52767157D01*
X100800000Y-52767157D01*
X100725311Y-52774513D01*
X100653492Y-52796299D01*
X100587304Y-52831678D01*
X100529289Y-52879289D01*
X100481678Y-52937304D01*
X100446299Y-53003492D01*
X100424513Y-53075311D01*
X100417157Y-53150000D01*
X100417157Y-53267252D01*
X100159780Y-53524629D01*
X100140474Y-53540473D01*
X100077242Y-53617521D01*
X100052127Y-53664508D01*
X100030255Y-53705426D01*
X100001322Y-53800808D01*
X99991553Y-53900000D01*
X99994001Y-53924856D01*
X99994000Y-54824853D01*
X99997157Y-54856905D01*
X99997157Y-55150000D01*
X100004513Y-55224689D01*
X100026299Y-55296508D01*
X100061678Y-55362696D01*
X100109289Y-55420711D01*
X100167304Y-55468322D01*
X100233492Y-55503701D01*
X100305311Y-55525487D01*
X100380000Y-55532843D01*
X100620000Y-55532843D01*
X100694689Y-55525487D01*
X100737499Y-55512501D01*
X100724513Y-55555311D01*
X100717157Y-55630000D01*
X100717157Y-55870000D01*
X100724513Y-55944689D01*
X100741291Y-56000000D01*
X100724513Y-56055311D01*
X100717157Y-56130000D01*
X100717157Y-56370000D01*
X100724513Y-56444689D01*
X100741291Y-56500000D01*
X100724513Y-56555311D01*
X100717157Y-56630000D01*
X100717157Y-56870000D01*
X100722679Y-56926071D01*
X100625000Y-57023750D01*
X100625000Y-57625000D01*
X100647000Y-57625000D01*
X100647000Y-57875000D01*
X100625000Y-57875000D01*
X100625000Y-58476250D01*
X100783750Y-58635000D01*
X100812542Y-58635000D01*
X100819000Y-58633715D01*
X100819000Y-59100000D01*
X100848002Y-59245802D01*
X100930592Y-59369408D01*
X101054198Y-59451998D01*
X101200000Y-59481000D01*
X101419043Y-59481000D01*
X101462970Y-59587049D01*
X101529289Y-59686302D01*
X101613698Y-59770711D01*
X101712951Y-59837030D01*
X101823236Y-59882712D01*
X101940314Y-59906000D01*
X102059686Y-59906000D01*
X102071726Y-59903605D01*
X102067157Y-59950000D01*
X102067157Y-59983082D01*
X100961042Y-60894000D01*
X99707843Y-60894000D01*
X99707843Y-60070000D01*
X99700487Y-59995311D01*
X99678701Y-59923492D01*
X99643322Y-59857304D01*
X99595711Y-59799289D01*
X99537696Y-59751678D01*
X99471508Y-59716299D01*
X99409715Y-59697554D01*
X99438322Y-59662696D01*
X99473701Y-59596508D01*
X99495487Y-59524689D01*
X99502843Y-59450000D01*
X99502843Y-59156907D01*
X99508448Y-59100000D01*
X99502843Y-59043094D01*
X99502843Y-58850000D01*
X99495487Y-58775311D01*
X99473701Y-58703492D01*
X99438322Y-58637304D01*
X99390711Y-58579289D01*
X99332696Y-58531678D01*
X99266508Y-58496299D01*
X99194689Y-58474513D01*
X99120000Y-58467157D01*
X98880000Y-58467157D01*
X98805311Y-58474513D01*
X98762501Y-58487499D01*
X98775487Y-58444689D01*
X98782843Y-58370000D01*
X98782843Y-58130000D01*
X98775487Y-58055311D01*
X98768947Y-58033750D01*
X99615000Y-58033750D01*
X99615000Y-58062542D01*
X99639403Y-58185223D01*
X99687270Y-58300785D01*
X99756763Y-58404789D01*
X99845211Y-58493237D01*
X99949215Y-58562730D01*
X100064777Y-58610597D01*
X100187458Y-58635000D01*
X100216250Y-58635000D01*
X100375000Y-58476250D01*
X100375000Y-57875000D01*
X99773750Y-57875000D01*
X99615000Y-58033750D01*
X98768947Y-58033750D01*
X98758709Y-58000000D01*
X98775487Y-57944689D01*
X98782843Y-57870000D01*
X98782843Y-57630000D01*
X98775487Y-57555311D01*
X98758709Y-57500000D01*
X98775487Y-57444689D01*
X98776199Y-57437458D01*
X99615000Y-57437458D01*
X99615000Y-57466250D01*
X99773750Y-57625000D01*
X100375000Y-57625000D01*
X100375000Y-57023750D01*
X100216250Y-56865000D01*
X100187458Y-56865000D01*
X100064777Y-56889403D01*
X99949215Y-56937270D01*
X99845211Y-57006763D01*
X99756763Y-57095211D01*
X99687270Y-57199215D01*
X99639403Y-57314777D01*
X99615000Y-57437458D01*
X98776199Y-57437458D01*
X98782843Y-57370000D01*
X98782843Y-57130000D01*
X98775487Y-57055311D01*
X98758709Y-57000000D01*
X98775487Y-56944689D01*
X98782843Y-56870000D01*
X98782843Y-56630000D01*
X98775487Y-56555311D01*
X98758709Y-56500000D01*
X98775487Y-56444689D01*
X98782843Y-56370000D01*
X98782843Y-56130000D01*
X98775487Y-56055311D01*
X98758709Y-56000000D01*
X98775487Y-55944689D01*
X98782843Y-55870000D01*
X98782843Y-55630000D01*
X98775487Y-55555311D01*
X98762501Y-55512501D01*
X98805311Y-55525487D01*
X98880000Y-55532843D01*
X99120000Y-55532843D01*
X99194689Y-55525487D01*
X99266508Y-55503701D01*
X99332696Y-55468322D01*
X99390711Y-55420711D01*
X99438322Y-55362696D01*
X99473701Y-55296508D01*
X99495487Y-55224689D01*
X99502843Y-55150000D01*
X99502843Y-54856907D01*
X99508448Y-54800000D01*
X99502843Y-54743093D01*
X99502843Y-54550000D01*
X99495487Y-54475311D01*
X99473701Y-54403492D01*
X99438322Y-54337304D01*
X99390711Y-54279289D01*
X99332696Y-54231678D01*
X99266508Y-54196299D01*
X99229392Y-54185040D01*
X99232843Y-54150000D01*
X99232843Y-53650000D01*
X99225487Y-53575311D01*
X99203701Y-53503492D01*
X99168322Y-53437304D01*
X99132564Y-53393732D01*
X99137030Y-53387049D01*
X99182712Y-53276764D01*
X99206000Y-53159686D01*
X99206000Y-53040314D01*
X99182712Y-52923236D01*
X99137030Y-52812951D01*
X99070711Y-52713698D01*
X98986302Y-52629289D01*
X98887049Y-52562970D01*
X98776764Y-52517288D01*
X98659686Y-52494000D01*
X98540314Y-52494000D01*
X98423236Y-52517288D01*
X98312951Y-52562970D01*
X98266512Y-52594000D01*
X98024845Y-52594000D01*
X97999999Y-52591553D01*
X97975153Y-52594000D01*
X97975146Y-52594000D01*
X97900807Y-52601322D01*
X97805425Y-52630255D01*
X97717521Y-52677241D01*
X97640473Y-52740473D01*
X97624624Y-52759785D01*
X97359781Y-53024628D01*
X97340474Y-53040473D01*
X97277242Y-53117521D01*
X97255479Y-53158236D01*
X97230255Y-53205426D01*
X97201322Y-53300808D01*
X97191553Y-53400000D01*
X97194001Y-53424856D01*
X97194000Y-54717157D01*
X96950000Y-54717157D01*
X96875311Y-54724513D01*
X96803492Y-54746299D01*
X96737304Y-54781678D01*
X96700000Y-54812292D01*
X96662696Y-54781678D01*
X96596508Y-54746299D01*
X96524689Y-54724513D01*
X96450000Y-54717157D01*
X96050000Y-54717157D01*
X95975311Y-54724513D01*
X95903492Y-54746299D01*
X95837304Y-54781678D01*
X95779289Y-54829289D01*
X95731678Y-54887304D01*
X95696299Y-54953492D01*
X95674513Y-55025311D01*
X95667157Y-55100000D01*
X95667157Y-55640517D01*
X95612951Y-55662970D01*
X95513698Y-55729289D01*
X95429289Y-55813698D01*
X95362970Y-55912951D01*
X95343858Y-55959091D01*
X95475398Y-55355796D01*
X95851440Y-54328210D01*
X96363463Y-53361168D01*
X97001991Y-52472561D01*
X97755210Y-51678835D01*
X98609180Y-50994676D01*
X99548100Y-50432744D01*
X100554597Y-50003436D01*
X101610044Y-49714699D01*
X102694913Y-49571873D01*
X103789128Y-49577602D01*
G04 #@! TD*
M02*
