G04 #@! TF.GenerationSoftware,KiCad,Pcbnew,(5.0.1)-4*
G04 #@! TF.CreationDate,2018-12-27T15:39:12-05:00*
G04 #@! TF.ProjectId,XHP70_LED_driver,58485037305F4C45445F647269766572,rev?*
G04 #@! TF.SameCoordinates,Original*
G04 #@! TF.FileFunction,Soldermask,Top*
G04 #@! TF.FilePolarity,Negative*
%FSLAX46Y46*%
G04 Gerber Fmt 4.6, Leading zero omitted, Abs format (unit mm)*
G04 Created by KiCad (PCBNEW (5.0.1)-4) date 12/27/2018 3:39:12 PM*
%MOMM*%
%LPD*%
G01*
G04 APERTURE LIST*
%ADD10C,0.100000*%
G04 APERTURE END LIST*
D10*
G36*
X100326000Y-63581000D02*
X97674000Y-63581000D01*
X97674000Y-62419000D01*
X100326000Y-62419000D01*
X100326000Y-63581000D01*
X100326000Y-63581000D01*
G37*
G36*
X102101000Y-62551000D02*
X100699000Y-62551000D01*
X100699000Y-61749000D01*
X102101000Y-61749000D01*
X102101000Y-62551000D01*
X102101000Y-62551000D01*
G37*
G36*
X108101000Y-61801000D02*
X105499000Y-61801000D01*
X105499000Y-60699000D01*
X108101000Y-60699000D01*
X108101000Y-61801000D01*
X108101000Y-61801000D01*
G37*
G36*
X105101000Y-61801000D02*
X102499000Y-61801000D01*
X102499000Y-60699000D01*
X105101000Y-60699000D01*
X105101000Y-61801000D01*
X105101000Y-61801000D01*
G37*
G36*
X96901000Y-61701000D02*
X96299000Y-61701000D01*
X96299000Y-60999000D01*
X96901000Y-60999000D01*
X96901000Y-61701000D01*
X96901000Y-61701000D01*
G37*
G36*
X100326000Y-61381000D02*
X97674000Y-61381000D01*
X97674000Y-60219000D01*
X100326000Y-60219000D01*
X100326000Y-61381000D01*
X100326000Y-61381000D01*
G37*
G36*
X102101000Y-60651000D02*
X100699000Y-60651000D01*
X100699000Y-59849000D01*
X102101000Y-59849000D01*
X102101000Y-60651000D01*
X102101000Y-60651000D01*
G37*
G36*
X109101000Y-60601000D02*
X108499000Y-60601000D01*
X108499000Y-59899000D01*
X109101000Y-59899000D01*
X109101000Y-60601000D01*
X109101000Y-60601000D01*
G37*
G36*
X96901000Y-60601000D02*
X96299000Y-60601000D01*
X96299000Y-59899000D01*
X96901000Y-59899000D01*
X96901000Y-60601000D01*
X96901000Y-60601000D01*
G37*
G36*
X100671000Y-55299000D02*
X100673402Y-55323386D01*
X100680515Y-55346835D01*
X100692066Y-55368446D01*
X100707612Y-55387388D01*
X100726554Y-55402934D01*
X100748165Y-55414485D01*
X100771614Y-55421598D01*
X100796000Y-55424000D01*
X100924000Y-55424000D01*
X100948386Y-55421598D01*
X100971835Y-55414485D01*
X100993446Y-55402934D01*
X101012388Y-55387388D01*
X101027934Y-55368446D01*
X101039485Y-55346835D01*
X101046598Y-55323386D01*
X101049000Y-55299000D01*
X101049000Y-55079000D01*
X101751000Y-55079000D01*
X101751000Y-58921000D01*
X101049000Y-58921000D01*
X101049000Y-58701000D01*
X101046598Y-58676614D01*
X101039485Y-58653165D01*
X101027934Y-58631554D01*
X101012388Y-58612612D01*
X100993446Y-58597066D01*
X100971835Y-58585515D01*
X100948386Y-58578402D01*
X100924000Y-58576000D01*
X100796000Y-58576000D01*
X100771614Y-58578402D01*
X100748165Y-58585515D01*
X100726554Y-58597066D01*
X100707612Y-58612612D01*
X100692066Y-58631554D01*
X100680515Y-58653165D01*
X100673402Y-58676614D01*
X100671000Y-58701000D01*
X100671000Y-59501000D01*
X98829000Y-59501000D01*
X98829000Y-58701000D01*
X98826598Y-58676614D01*
X98819485Y-58653165D01*
X98807934Y-58631554D01*
X98792388Y-58612612D01*
X98773446Y-58597066D01*
X98751835Y-58585515D01*
X98728386Y-58578402D01*
X98704000Y-58576000D01*
X98576000Y-58576000D01*
X98551614Y-58578402D01*
X98528165Y-58585515D01*
X98506554Y-58597066D01*
X98487612Y-58612612D01*
X98472066Y-58631554D01*
X98460515Y-58653165D01*
X98453402Y-58676614D01*
X98451000Y-58701000D01*
X98451000Y-58921000D01*
X97749000Y-58921000D01*
X97749000Y-55079000D01*
X98451000Y-55079000D01*
X98451000Y-55299000D01*
X98453402Y-55323386D01*
X98460515Y-55346835D01*
X98472066Y-55368446D01*
X98487612Y-55387388D01*
X98506554Y-55402934D01*
X98528165Y-55414485D01*
X98551614Y-55421598D01*
X98576000Y-55424000D01*
X98704000Y-55424000D01*
X98728386Y-55421598D01*
X98751835Y-55414485D01*
X98773446Y-55402934D01*
X98792388Y-55387388D01*
X98807934Y-55368446D01*
X98819485Y-55346835D01*
X98826598Y-55323386D01*
X98829000Y-55299000D01*
X98829000Y-54499000D01*
X100671000Y-54499000D01*
X100671000Y-55299000D01*
X100671000Y-55299000D01*
G37*
G36*
X109101000Y-59501000D02*
X108499000Y-59501000D01*
X108499000Y-58799000D01*
X109101000Y-58799000D01*
X109101000Y-59501000D01*
X109101000Y-59501000D01*
G37*
G36*
X97401000Y-59301000D02*
X96699000Y-59301000D01*
X96699000Y-58699000D01*
X97401000Y-58699000D01*
X97401000Y-59301000D01*
X97401000Y-59301000D01*
G37*
G36*
X96301000Y-59301000D02*
X95599000Y-59301000D01*
X95599000Y-58699000D01*
X96301000Y-58699000D01*
X96301000Y-59301000D01*
X96301000Y-59301000D01*
G37*
G36*
X108101000Y-58801000D02*
X105499000Y-58801000D01*
X105499000Y-57699000D01*
X108101000Y-57699000D01*
X108101000Y-58801000D01*
X108101000Y-58801000D01*
G37*
G36*
X105101000Y-58801000D02*
X102499000Y-58801000D01*
X102499000Y-57699000D01*
X105101000Y-57699000D01*
X105101000Y-58801000D01*
X105101000Y-58801000D01*
G37*
G36*
X103651000Y-57351000D02*
X102349000Y-57351000D01*
X102349000Y-56349000D01*
X103651000Y-56349000D01*
X103651000Y-57351000D01*
X103651000Y-57351000D01*
G37*
G36*
X96351000Y-55851000D02*
X95849000Y-55851000D01*
X95849000Y-55149000D01*
X96351000Y-55149000D01*
X96351000Y-55851000D01*
X96351000Y-55851000D01*
G37*
G36*
X97251000Y-55851000D02*
X96749000Y-55851000D01*
X96749000Y-55149000D01*
X97251000Y-55149000D01*
X97251000Y-55851000D01*
X97251000Y-55851000D01*
G37*
G36*
X98101000Y-54551000D02*
X97599000Y-54551000D01*
X97599000Y-53849000D01*
X98101000Y-53849000D01*
X98101000Y-54551000D01*
X98101000Y-54551000D01*
G37*
G36*
X97201000Y-54551000D02*
X96699000Y-54551000D01*
X96699000Y-53849000D01*
X97201000Y-53849000D01*
X97201000Y-54551000D01*
X97201000Y-54551000D01*
G37*
G36*
X99001000Y-54101000D02*
X98399000Y-54101000D01*
X98399000Y-53399000D01*
X99001000Y-53399000D01*
X99001000Y-54101000D01*
X99001000Y-54101000D01*
G37*
G36*
X103651000Y-54051000D02*
X102349000Y-54051000D01*
X102349000Y-53049000D01*
X103651000Y-53049000D01*
X103651000Y-54051000D01*
X103651000Y-54051000D01*
G37*
G36*
X99001000Y-53001000D02*
X98399000Y-53001000D01*
X98399000Y-52299000D01*
X99001000Y-52299000D01*
X99001000Y-53001000D01*
X99001000Y-53001000D01*
G37*
M02*
